<?xml version="1.0" encoding="utf-8"?>
<!-- Generator: Adobe Illustrator 26.5.0, SVG Export Plug-In . SVG Version: 6.00 Build 0)  -->
<svg version="1.1" id="Layer_2" xmlns="http://www.w3.org/2000/svg" xmlns:xlink="http://www.w3.org/1999/xlink" x="0px" y="0px"
	 viewBox="0 0 6000 4000" style="enable-background:new 0 0 6000 4000;" xml:space="preserve">
<style type="text/css">
	.st0{fill:#46FFF1;stroke:#46FFF1;stroke-width:4;stroke-miterlimit:10;}
</style>
<g>
	<path class="st0" d="M6000,3834.9H2683.6c-1.5,0-2.8-0.8-3.5-2.1c-0.7-1.3-0.7-2.8,0.1-4.1c61-96.8,159.3-203.3,263-284.8
		c107.6-84.6,130.3-211.3,62.2-347.6c-8.6-17.2-19.4-36.8-32.3-58.3c-40.6-18.2-89.8-44.4-150.7-83
		c-100.7-63.7-215.2-149-306.4-228.1c-44.9-38.9-81-73.9-104.5-101.2c-27.1-31.4-37.5-52.3-31.6-63.9c7.6-15,38.5-11.2,97.3,11.9
		c62,24.4,124,59.3,184.4,103.9c53,39.2,104.9,85.8,154.2,138.6c61.5,65.9,119.6,143,163.2,215.5c70.4,31.2,114.6,37.8,150.5,43.2
		c32.5,4.8,58.1,8.7,89.6,28.8c8.3,5.3,15.9,10.3,22.7,14.6c16.7,10.8,29.7,19.3,41.7,25.9c22.9-12.6,46.3-22.2,69.8-28.3
		c68-17.9,112.8-9.4,127.1,6.9c5,5.7,6.3,12.4,3.6,18.8c-6.1,14.7-31.5,24.9-68,27.3c-71.9,4.7-99.3,1.6-132.5-15.6
		c-112.1,63-212.5,197.8-248.9,343.4c-21,84.2-17,140.3,12.1,166.8c27.6,25.1,78.9,24.7,152.6-1.2
		c140.6-49.4,403.4-256.2,529.9-382.7c123.5-123.5,115.3-236.9-27.1-379.4c-20.3-20.3-43-40.2-68-59.7c-11.6,27-23.5,50.2-35.6,69.5
		c-29.5,47.1-61.2,72.7-94.4,76.1c-2.6,0.3-5.1,0.4-7.7,0.4c-28.5,0-58.2-16-88.5-47.6c-29.9-31.2-61.3-78.6-93.4-140.9
		c-29.7-57.6-54.5-120.3-72.9-183.4c-73-34-147.7-66.2-220.3-96.7c-87.9-36.9-146.4-57.9-189.8-68.3c-16.5-3.9-31-6.4-43.7-7.2
		c-1.4,22.8-5.3,47-11.7,72.8c-10.5,42-31.3,111.4-54.4,111.4c-0.5,0-0.9,0-1.4-0.1c-13.8-1.7-20.8-27.3-20.8-76.2
		c0-58,10-89.4,33.6-105c11.8-7.8,27.2-11.6,47.1-11.3c1.6-45.6-7.5-80.6-20.8-108.5c-42.8-5.7-78.2-11.5-104.6-15.8l-8-1.3
		c-92.5-15.1-138-40-135.2-73.8c2.5-30.5,43.7-59.1,77.9-77.7c39-21.2,80.2-35.5,94.2-35.5c8.6,0,14.2,2.1,17.3,6.3
		c5.1,7.1,1.5,17.9-3,31.6c-5.4,16.3-12.2,36.5-5.9,56.2c3.4,10.5,13.1,21.7,25.4,36c15.1,17.4,33.1,38.2,47.3,66.6
		c109.2,14.3,265.7,27.3,446.6,13.5c3.2-16.3,7.8-30,13.8-40.9c9.6-17.4,22.6-26.9,38.4-28.2c51.8-4.3,84.9,14.3,87,34.8
		c1.4,13-10.1,28.5-46.2,33c-29.2,3.7-58,6.6-86.2,8.8c-6.8,40.6-5.2,96.3,5,159.1c5.9,36.4,14.4,73.6,25.1,110.6
		c142.9,66.6,279.6,139.9,382.6,218.9c16.4-39.6,32.3-87,47.6-142.1c40.4-145.2,64.2-251.7,72.9-325.5c5.1-43.6,5.2-77.2,0-101.6
		c-47.4,11.6-93.2,20.6-138.6,26.6c-18.6,2.4-26.9-3.1-30.7-8.2c-4.6-6.2-4.7-14.8-0.4-24.3c10.5-22.9,46-49.4,99.3-53.5
		c28.5-2.2,48.8,4.6,62,20.7c6.1,7.4,10.8,17,14.2,29c70.8-17.8,145.5-41.4,228.3-69.4c86-29.1,149.1-58.9,187.6-88.6
		c33.9-26.2,48.7-52.2,44-77.5c-4.9-26.2-30.3-51.9-75.5-76.4c-20.3-11-44.6-21.7-72.2-31.8c-24.9,37.6-66.6,62.5-113.6,65
		c-130.5,6.8-310.2,11.2-425.2-7.1c-44.3-7-82-17.8-108.8-31.1c-27.6-13.7-41.6-29.1-40.8-44.5c1-16.9,19.1-31,54-42
		c37.5-11.8,92.3-19.3,163-22.3c106.5-4.5,256.3,13.5,381.8,46c25.2,6.5,55.6,15.3,86.4,26.3c7.7-12.8,13.3-27,16.5-42.2
		l147.4-702.2c1.8-8.7,0.1-17.6-4.9-25c-5-7.4-12.5-12.3-21.3-13.9l-834.3-151.1c-29.2-5.3-57.3,14.1-62.8,43.2l-136.1,724
		c2.6,1.9,4.9,3.8,6.8,5.7c6,6,16.3,9,25.3,11.5c11.8,3.4,22.9,6.5,22.9,16.6c0,8-8.4,17-20.4,22c-15.5,6.4-31.1,3.8-41.9-6.9
		c-0.5-0.5-1-1-1.6-1.5l-14.5,77c9.4-2.9,18.4-5.4,26.9-7.6c36.3-9.4,69.7-9.9,96.6-1.3c24.9,7.9,42.5,23.1,49.5,42.7
		c6.6,18.3,3.3,39.2-9.4,58.6c-13.8,21.2-38.2,40.4-70.7,55.7c-35.9,16.8-93.3,34.2-166,50.2c-70.5,15.6-150.5,28.6-225.3,36.6
		c-68.5,7.4-211.9,18.8-285.6-4.9c-46,14.5-98.6,26.7-159.4,34.1c-95.3,11.6-158.8,31.4-205.2,45.8c-54.8,17.1-87.9,27.4-123.7,9.2
		c-66.6-33.9-134.9-223.6-164.7-330.3c-30-107.1-98.1-402.7-98.1-488.2c0-43.7,1.5-95.4,12.4-146.7c12.9-60.8,37-109.2,71.7-143.8
		c14.5-14.5,29.1-26.8,43.7-36.8c-8.8,0.3-17.7,1.3-26.4,3c-67.6,13.6-114.6,71.4-132.4,162.7c-27.3,140.8-2.4,244.6,19.5,336.2
		c14.8,61.6,27.5,114.9,21.9,168.7c-6.7,64.7,26,130.6,57.6,194.4c33.2,66.9,64.6,130.1,51.7,190.1c-8.3,38.9-6.9,83.4,4.1,125.2
		c9.7,37,26.3,68.1,45.8,86.6c6.3-5.1,12.9-9.7,20-13.7c41.8-23.7,73.5-26.1,86.3-18c4.9,3.1,7.4,7.8,7,13.1
		c-0.9,12.6-17.5,27.1-45.5,39.6c-23.1,10.4-46.6,6.8-67.8-10.4c-0.1-0.1-0.1-0.1-0.2-0.2c-36.4,32.6-51.3,81.3-66.9,132.3
		c-9,29.2-18.2,59.4-31.9,86.7c-40.5,81.1-76.6,282.3,18.9,402.4c56,70.3,116.4,76.7,169.7,82.3c37.2,3.9,72.3,7.6,98.4,33.6
		c27.8,27.8,105.8,84.6,195.6,134.9c57.7,32.4,107.8,55.2,147.6,67.5c46.5-29.4,85.7-30.6,103.3-21.8c7.5,3.8,11.2,9.5,10.3,15.6
		c-1.6,10.6-16.5,19.2-41.1,23.6c-4.6,0.8-9.5,1.2-14.8,1.2c-16.1,0-35.3-3.6-56.4-9.9c-13.2,8.6-27.7,20.1-42.9,35.3
		c-7.4,7.4-14.3,15.3-20.8,23.5c18.4,26.5,28.7,52,30.8,76.3c3.4,39.1-9.7,96.1-35,152.5c-18.3,40.8-48,90-71.8,94.6
		c-6.1,1.2-17.3,0.3-23.2-19.2c-0.1-0.4-0.2-0.8-0.2-1.2c0-0.5,0.1-55.2,14.2-123c8.3-39.9,19.7-76.4,33.9-108.7
		c11.8-26.9,25.7-50.9,41.3-71.6c-16.6-22.8-39.4-46.4-68.3-70.8c-47.5-40-110.1-81-186-121.8c-53.4-28.7-122-55.2-183.5-70.8
		c-52.2-13.3-123.1-24.8-164.5-4.3c-17.6,8.7-28.1,22.6-31.2,41.5c-9.4,57.1,77.9,113,152.8,149.9c14.7,7.3,30.1,14.3,45.9,21.2
		c0.9-1.7,1.8-3.3,2.9-4.9c12.3-19.3,32.7-32.1,59.1-36.8c28.6-5.1,62.3-0.9,100.1,12.7c42.6,15.3,76.6,32.7,98.6,50.3
		c20.1,16.2,29.1,31.9,25.4,44.4c-2,6.6-8.4,15-27.4,17.7c-14.8,2.2-34.6,0.3-57.2-5.3c-39.3-9.8-117.8-33.6-197.3-67.6
		c-6.4,16.2-7.1,35.7-1.8,56.1c7.2,27.7,24.9,56.3,51.1,82.5c65.5,65.5,142.9,159.4,139.9,235.2c-1.1,26.9-12.3,49.7-33.4,67.7
		c-20.8,17.7-47.7,27.5-75.9,27.5H0v-8h2089.7c26.3,0,51.4-9.1,70.7-25.6c19.3-16.5,29.6-37.3,30.6-61.9
		c1.2-31.5-12.5-69.8-41-113.7c-23.3-35.9-55.8-74.8-96.6-115.6c-27.3-27.3-45.7-57.1-53.2-86.2c-5.8-22.2-4.9-43.4,2.2-61.2
		c-15.4-6.7-30.9-13.8-46-21.3c-50.2-24.7-89.1-49.5-115.5-73.6c-32.1-29.2-46.1-57.7-41.6-84.7c3.5-21.6,15.5-37.5,35.6-47.4
		c76.6-37.7,257.3,22.6,355.3,75.2c76.4,41.1,139.5,82.4,187.4,122.7c28.6,24.1,51.4,47.6,68.3,70.3c6.4-8,13.1-15.5,20-22.4
		c13.2-13.2,26.2-24,38.7-32.7c-119.1-38.9-293-155.1-340.3-202.4c-24-24-56.3-27.4-93.6-31.3c-26.3-2.8-56.2-5.9-86-17.3
		c-34.1-13.1-63.3-35.3-89.2-67.9c-54.7-68.8-64.1-157.8-62.4-220.5c2.2-82.1,23.5-152.2,42.6-190.5c13.4-26.7,22.5-56.6,31.4-85.5
		c9.2-29.9,18.7-60.8,32.7-87.5c10.1-19.2,22-35,35.9-47.7c-44.9-42.9-68.5-140.3-51.7-218.7c12.3-57.2-18.5-119.2-51.1-184.9
		c-32.1-64.8-65.4-131.8-58.4-198.8c5.5-52.5-7.1-105.1-21.7-166c-22.1-92.4-47.2-197.1-19.6-339.6c9.8-50.4,27.8-90.7,53.7-119.8
		c23.1-26,51.6-42.5,84.9-49.2c12.9-2.6,26.5-3.6,40.3-3c17.2-10.3,34.5-17.6,52.4-22.1c32.9-8.3,62.6-5.6,87.3-1.8
		c32.4,4.9,81.3,34.8,108,80.5c18.7,31.9,22.4,65.1,10.8,96c-10.7,28.3-26.2,54.5-43.6,81c2.8,14.4,4.9,28.2,6.4,40.6
		c8,63.8,6.6,132.5-3.7,183.9c-12.8,64.2-21.2,168.6-12.4,259.2c6,8,12.1,15.9,18.2,23.7c41.8,53,100.7,106.5,220.2,101.5
		c45.2-1.9,77.6-21,91.3-53.7c20.8-49.6-4.5-120.8-67.6-190.3c-46.2-50.9-70.8-94.9-79.8-142.9c-7.5-39.9-4.3-83.6,10.9-144.6
		c-38.7-53.4-62.1-122.4-81.7-180.1c-12.7-37.3-23.6-69.5-36-90.4c-34.7-58.5-67.9-72.4-97.2-84.8c-11.9-5-23.1-9.7-33.6-17
		c-24.4-16.9-40.9-45.9-49-86.1c-6.9-34.1-7.8-76.5-2.8-126.1c11.1-109.9,47.3-218.5,58.1-249.2c22.1-62.6,58.6-131.7,102.9-194.6
		c48-68.2,101.7-124.7,155.2-163.4c78.7-56.8,159.4-82.1,221.5-69.4c15.1,3.1,28.7,8.4,40.6,15.7c14.9-0.7,29.6-0.6,44.2,0.4
		c60.5,4.2,117.5,23.9,164.7,56.9c40.3,28.2,72.5,79.6,90.6,144.7c17,61.1,19.5,126.9,6.8,180.6c-8.5,36.1-22.3,65.8-35.7,94.7
		c-25.9,55.9-50.4,108.7-25.8,195c5.2,18.4,11.3,37.7,17.2,56.3c18.5,58.5,37.5,119.1,37.1,170.3c-0.6,59-27.4,97.2-82,116.9
		c-3.7,1.3-7.3,2.5-10.9,3.7c16.2,16.1,31.8,36.6,47.3,62.2c48.2,79.4,41.5,167,36.2,237.4c-1.6,20.6-3.1,40-3.1,57.5
		c0,19,3.6,40.2,7.5,62.7c6,35,12.2,71.1,6.8,107c-6.3,41.3-27.5,74.4-64.8,101.1c-19.2,13.8-37.6,22.4-54.9,25.8
		c-6.1,12.2-12.9,24.3-19.9,36.3c-8.4,14.5-6.4,28.5-0.3,42.2c20.1-11.2,39.5-33,59.8-55.9c10.2-11.5,20.7-23.4,31.9-34.5
		c23.7-23.7,39.2-28.2,51.5-31.9c8.2-2.4,14.8-4.3,22-11.5c14.9-14.9,17.1-15.3,30-14.1c4,0.4,9.6,0.9,17.4,0.9
		c10.5,0,24.2-2.6,37.5-5.1c26.1-5,50.7-9.6,61.8,1.5c7.2,7.2,22.8,16,37.8,24.5c8.7,4.9,17.1,9.7,24.2,14.2l135.4-720.5
		c6.3-33.4,38.6-55.7,72.1-49.6l834.3,151.1c10.9,2,20.3,8.1,26.5,17.3s8.3,20.2,6.1,31.1l-147.4,702.2c-3.3,15.6-9,30.1-16.7,43.3
		c71.3,26.3,142,64.3,151.2,113.7c11.1,59.2-68.7,118.2-237,175.1c-83,28.1-157.9,51.8-229,69.6c14.3,67.2-8.8,200-73,431.1
		c-15.6,56.1-31.9,104.5-48.8,145c25.8,20.2,49.4,40.8,70.4,61.7c73.6,73.6,111.4,139.8,115.7,202.5c4.3,62.7-24.7,124.2-88.6,188.2
		c-127.1,127.1-391.3,334.9-532.9,384.6c-37.2,13.1-69.3,19.9-95.5,20.2c-27.8,0.4-49.8-6.6-65.2-20.7
		c-15.6-14.2-24.8-35.9-27.3-64.5c-2.5-29,1.8-66.1,12.8-110.1c36.4-145.6,136.3-280.7,248.5-345.9c-11.1-6.3-23.2-14.2-37.9-23.8
		c-6.7-4.4-14.4-9.3-22.6-14.6c-30.1-19.2-55-22.9-86.5-27.6c-34.6-5.2-76.8-11.5-142.3-39.3c9.7,16.7,18.7,33.2,26.7,49.1
		c36.1,72.2,47.7,141.1,34.5,204.6c-12.2,58.8-46.4,111.6-98.8,152.8c-100.8,79.2-196.5,182.2-257.3,276.7H6000V3834.9z
		 M2359.3,3713.3c4.7,14.8,11.6,13.5,13.9,13c34.5-6.6,107.8-152.8,100.4-238.6c-1.9-22.3-11.3-45.8-27.9-70.3
		c-40.6,54.9-61.5,123.4-72.3,175.1C2360.2,3655.8,2359.3,3707.3,2359.3,3713.3z M2013.3,3358.6c70.6,30.1,146.6,54.8,195.8,67.1
		c46.6,11.6,71.6,4.6,75.1-7c4.6-15.2-23.2-50.4-119-84.8c-36-12.9-69.2-17.2-96-12.4c-24.1,4.3-42.7,15.8-53.7,33.2
		C2014.7,3356,2014,3357.3,2013.3,3358.6z M2523.4,3346.4c25.1,6.9,45.6,9.2,60.7,6.5c26-4.6,34-12.7,34.6-16.8c0.5-3.6-4-6.3-6-7.3
		c-9-4.5-27.9-6.5-53.5,1.5C2549.5,3333.2,2537.4,3338.2,2523.4,3346.4z M3292,3248.8c30.2,14.6,56.9,16.7,123.4,12.3
		c39.3-2.6,57.5-13.7,61.1-22.4c1.5-3.6,0.7-7.1-2.2-10.5c-6.1-7.1-20.1-12-38.2-13.6c-22.5-2-50.4,1.2-80.8,9.2
		C3334,3229.4,3312.8,3237.8,3292,3248.8z M2400.1,2661c-9,0-12.1,2.6-13.1,4.6c-1.9,3.7-2.7,16.5,30.6,55
		c23.3,27,59.2,61.7,103.7,100.4c90.9,78.9,205.1,163.9,305.4,227.4c55.3,35,100.8,59.7,138.9,77.5
		c-88.6-143.1-263.7-355.1-491.4-444.6C2433.7,2665.4,2411.9,2661,2400.1,2661z M3251.2,2719.3c18.1,60.4,42,120.2,70.4,175.2
		c65.8,127.6,126.9,189.5,181.7,183.9c44-4.5,85.6-52.4,124.3-142.8C3526.5,2857.6,3392.2,2785.3,3251.2,2719.3z M2777.7,2542.2
		c-17,0-30.2,3.3-40.2,10c-21,14-30,43.4-30,98.4c0,52.5,8.6,67.6,13.7,68.2c6.9,0.9,25.7-20.1,47.1-105.3
		c6.6-26.2,10.2-49.8,11.5-71.2C2779,2542.2,2778.4,2542.2,2777.7,2542.2z M2788.2,2534.6c13.2,0.9,28.2,3.3,45.1,7.4
		c43.9,10.5,102.8,31.7,191.1,68.7c70.6,29.6,143.1,61,214.3,93.9c-9.9-35.2-17.8-70.4-23.4-104.9c-10.3-63.3-12-118.5-5.4-159.7
		c-178,13.5-332.2,1-441.1-13c2.3,5.1,4.4,10.4,6.4,16C2785,2470.9,2789.3,2501.3,2788.2,2534.6z M3278.8,2370.1
		c-4.6,0-9.5,0.2-14.7,0.6c-13,1.1-23.8,9.2-32,24.1c-5.3,9.6-9.5,21.8-12.4,36.3c27.4-2.2,55.3-5.1,83.7-8.6
		c25.1-3.1,40.5-12.7,39.3-24.3C3341.3,2386,3320.2,2370.1,3278.8,2370.1z M2683.6,2229.7c-11.3,0-51.1,13.1-90.4,34.5
		c-45.8,24.9-72,50.2-73.7,71.3c-2.3,28.5,42.1,51.1,128.6,65.2l8,1.3c25.3,4.1,58.7,9.6,99,15.1c-13.4-25.1-29.9-44.1-43.7-60.1
		c-12.9-14.9-23.1-26.7-27-38.8c-7.1-22.2,0.1-43.8,6-61.2c3.5-10.6,6.9-20.5,4.1-24.3C2692.6,2230.2,2687.5,2229.7,2683.6,2229.7z
		 M1988,2398.4c18.7,14.7,38.4,17.5,58.5,8.5c29.3-13.1,40.3-25.9,40.8-32.9c0.2-2.4-0.9-4.3-3.3-5.8c-8.8-5.5-36.8-5.2-78.1,18.2
		C1999.4,2390,1993.4,2394.1,1988,2398.4z M3691.4,2307c-3.1,0-6.3,0.1-9.7,0.4c-47.8,3.7-82.8,27.4-92.7,48.8
		c-3.1,6.7-3.2,12.5-0.5,16.2c3.5,4.7,11.7,6.5,23.2,5c45.1-5.9,90.6-14.8,137.8-26.4c-3-10.7-7.2-19.3-12.6-25.9
		C3726.8,2312.9,3712.2,2307,3691.4,2307z M1954.5,1126.4c-16.9,10.3-34.4,24.1-52.6,42.3c-72,72-81.7,184.4-81.7,284.9
		c0,84.9,67.9,379.3,97.8,486.1c8.9,31.8,33.4,114.3,68.9,193.2c32.7,72.5,64.4,118.2,91.7,132.1c32.8,16.7,64.7,6.8,117.6-9.7
		c46.7-14.5,110.7-34.5,206.6-46.1c56-6.8,104.9-17.7,148.1-30.7c-12.7-5.5-22.4-12.3-28-20.9c-5.1-7.7-6-15.8-2.8-24
		c7.9-20.4,41.5-41.1,102.7-63.5c52.3-19.1,112.8-34.9,153.8-45.1c21-5.2,32.8-11.8,36.1-20.1c4-10.1-4.6-23.3-14.5-38.6
		c-4-6.2-8.3-12.9-12-19.9c-3.1,1.3-6.2,2.4-9.4,3.2c-19.6,5.1-105.8,22.3-203.1,35c-87.5,11.5-208.5,22.4-287.8,9.6
		c-38-6.1-69.8-6.2-95.1-2.9c0.1,11.9-2.4,21.6-7.6,29.1c-12.7,18.1-37.4,17.9-49.3,17.8c-0.8,0-1.5,0-2.2,0
		c-12.1,0-16.8-4.4-18.7-8.1c-1.3-2.6-2.7-8.1,2.7-15.6c8.4-11.5,30.7-24.2,66.7-30.1c-1.1-11.5-4.6-25.2-10.6-41
		c-11.7-31.2-18.3-68.4-21.9-104.6c-38.4-51.8-62.6-95.6-77.4-139.4c-20.5-60.9-21.6-121.4-3.2-185.1
		c15.5-53.9,45.5-98.5,74.5-141.7c5-7.5,10-14.9,14.9-22.3c-10.2-51.4-27.4-101.3-53.9-141.1
		C2076.7,1166.9,2017.1,1129.8,1954.5,1126.4z M2576.9,2178.5c54.4,13.8,149.1,14.6,271.2,1.4c154.3-16.7,317.8-52.9,388.7-86.2
		c71.7-33.7,85.8-77.3,76-104.4c-11.4-31.6-59-56.5-136.6-36.4c-9.6,2.5-19.9,5.5-30.6,8.8l-6.3,33.3c0,0.2-0.1,0.3-0.1,0.4
		c-0.2,0.6-4.5,14.1-18.5,29.7c-12.8,14.3-36.4,33.1-76.7,41.7c-106.8,22.9-123.2,14.7-125.5,5c-1.7-7.4,6.1-16.6,24.6-29.1
		c15.2-10.2,37.3-22.3,63.8-34.9c42.2-20.1,89.8-38.9,131.6-52.2l16.1-85.5c-10.2-7.4-21.1-11-33.4-15.1c8.5,20,13.9,43.2,11.3,59.5
		c-1.6,9.9-5.9,16.6-12.9,20.1c-8.8,4.4-18.7,2.7-28.1-4.4c-3.7,8.1-9.8,14.3-17.8,17.8c-10,4.3-20.2,2.4-29.7-5.5
		c-2.6,10.5-8,19-17.5,22.4c-6.6,2.4-14.1,3-22,1.8c-4.5,9.6-14,20-33.9,24.8c-18.5,4.5-26.2,13.5-35.2,24
		c-11.2,13.1-23.9,28-60.5,32.7c-37.6,4.9-75.2,25.2-122.9,50.8C2706.4,2123.8,2650.4,2154,2576.9,2178.5z M2793.3,1942.7
		c3.5,6.4,7.6,12.8,11.6,19.1c10.6,16.4,20.7,32,15.2,45.9c-4.3,11-17.6,18.9-41.6,24.9c-154.8,38.7-239.2,73.6-250.9,103.7
		c-2.2,5.8-1.6,11.2,2,16.7c5.8,8.7,17.1,15.9,33.6,21.5c78.4-25,137.4-56.7,185.2-82.4c48.4-26,86.6-46.6,125.6-51.7
		c33.5-4.4,44.7-17.4,55.4-30c9-10.5,18.3-21.4,39.3-26.6c13.3-3.2,22.7-9.7,27.7-18.8c-7.8-2.3-15.8-6.1-23.4-11.5
		c-14.9-10.5-24.2-23.7-24.2-34.5c0-10.1,5.6-14,9-15.4c11.1-4.6,28.5,3.4,38.8,13.7c8.4,8.4,14.6,25.2,10.6,41.6
		c5.6,0.7,11.3,0.3,16.6-1.6c7.6-2.8,11.8-11.2,13.4-21.8c-15.1-18-24.6-48.9-20.1-60c1.3-3.2,3.8-5,6.9-5
		c10.4,0,17.4,19.2,20.3,35.7c1.5,8.8,2.2,18.1,1.4,26.7c6.4,6.7,15.1,11.9,25,7.6c8-3.5,12.4-9.7,14.7-16.1
		c-2.1-2.2-4.1-4.6-6.1-7.4c-11.1-15.5-17.4-36.7-8.7-45.4c2.7-2.7,6.2-3.5,9.6-2.1c8.5,3.5,15.5,20.7,15.7,38.4
		c0.1,5-0.5,9.7-1.5,14c5.9,5.2,13.8,9.4,21.8,5.4c4.5-2.3,7.4-7.1,8.6-14.2c2.6-16.2-4.3-41.7-13.9-61.8c-6.4-2.3-13-4.9-20-8.4
		c-14.7-7.3-19.6-16.6-19.3-22.9c0.2-4,2.4-7.2,5.9-8.5c6.1-2.4,14.4,1,22.8,9.4c5.6,5.6,11.3,14.1,16.4,24c2.4,0.8,4.8,1.6,7.2,2.4
		c11.3,3.8,22.1,7.4,32.5,14.1l5.5-29.4c-7.5-5-17.1-10.5-26.5-15.8c-15.5-8.8-31.5-17.9-39.5-25.8c-8.1-8.1-32.8-3.4-54.6,0.7
		c-13.6,2.6-27.7,5.3-39,5.3c-8.2,0-14-0.5-18.2-0.9c-10.6-1-10.8-1-23.6,11.8c-8.7,8.7-16.8,11-25.4,13.6
		c-12.1,3.5-25.8,7.5-48.1,29.8c-11,11-21.4,22.8-31.5,34.2C2834.7,1908.5,2814.7,1930.9,2793.3,1942.7z M3137,1964.6
		c-40.4,13.1-86,31.2-126.5,50.5c-71.6,34.1-85,51.2-84.1,55c0,0,1.4,4.7,25.5,3.5c20.1-1,50.6-5.9,90.5-14.4
		c37.9-8.1,60.2-25.6,72.1-38.9c12.1-13.4,16.5-25.3,17-26.9L3137,1964.6z M3632.1,1930.8c-11.6,0-22.9,0.2-33.7,0.7
		c-152.3,6.5-208,33.6-209.3,56.7c-0.7,11.8,12.2,24.9,36.3,36.9c26.2,13,63,23.5,106.5,30.4c114.4,18.1,293.5,13.8,423.6,7
		c43.8-2.3,82.6-25.2,106.3-59.8c-25.5-9-53.7-17.6-84-25.4C3865.8,1948.2,3734.3,1930.8,3632.1,1930.8z M2182.8,1992.4
		c-33,5.5-53.4,16.9-60.7,26.8c-2.2,3-2.9,5.6-2.1,7.3c0.9,1.8,4.4,3.7,11.5,3.7c0.7,0,1.5,0,2.3,0c11.3,0.1,32.4,0.3,42.6-14.4
		C2180.7,2009.8,2182.8,2002,2182.8,1992.4z M2226,1981c18.2,0,38.6,1.6,61.1,5.2c151.7,24.5,457.7-36.8,487.6-44.5
		c2.6-0.7,5.3-1.6,7.9-2.7c-6.9-15.5-9.6-32.4,0.5-49.7c6-10.3,11.8-20.6,17.2-30.9c-18.1,1.4-34.5-3.6-47.5-14.5
		c-16-13.4-26.1-35.1-28.7-61.1c-2.6-26.2,2.9-55.1,15.5-81.2c24.4-50.8-3-122.2-25.1-179.6c-14.7-38.3-26.3-68.5-19.2-84.2
		c2.1-4.5,5.5-7.7,10.4-9.4c5.1-1.8,10.4-1.4,15.7,1.4c15.8,8.2,32.8,37.9,51.8,90.9c15.8,44.1,30.1,95.6,41.5,137
		c5.3,19.2,9.9,35.9,13.7,48c16.7,54.2,6,99.4-14,142.1c14.3-3.8,29.7-11.6,45.8-23.1c79.4-56.9,66.3-133.1,54.8-200.2
		c-3.9-22.8-7.6-44.3-7.6-64c0-17.7,1.5-37.3,3.1-58.1c5.3-69.3,11.8-155.5-35-232.7c-16.9-27.8-33.3-48.4-49.5-63.7
		c-20.7,5.6-39.9,7.9-57.3,7.9c-46.6,0-80.3-16.7-94.2-32.4c-7.1-8-9.2-15.9-6-22.2c2.7-5.4,10.5-11.5,31.9-9.5
		c28.4,2.6,60.7,5.5,91.7,21.6c12.7,6.6,24.7,15,36.4,25.7c4.8-1.4,9.8-3,14.8-4.8c114.5-41.2,76.7-161.2,40.1-277.2
		c-5.9-18.7-12-38.1-17.3-56.5c-25.3-89.1-0.3-143.2,26.3-200.5c13.2-28.4,26.8-57.9,35.1-93.1c24-101.9-8.7-257.1-94.2-317
		c-31.2-21.8-97.5-57.8-193.2-56c9.8,7.9,18.1,17.4,24.7,28.4c5.4,8.9,6.8,18,4.2,27.1c-7.9,28.1-52.4,51.2-99.6,75.8
		c-55,28.6-111.8,58.2-104.2,93.6c4.3,19.8,7.1,36.8,8.6,52.3c15.3,4.1,30.3,4.6,44.4,1.3c46.9-10.9,72.6-33.5,97.3-55.3
		c29-25.5,56.4-49.6,113.3-49.6c36.3,0,64.7,4.6,86.7,14c23.5,10.1,39.8,26.1,48.4,47.5c9.8,24.4,4.3,59.6-1,93.5
		c-4,25.7-7.8,50-3.7,64.8c5,18-4.4,35.3-14.4,53.6c-10.4,19.1-21.1,38.8-14.6,59.5c14,44.7-20.8,119-61.5,172.9
		c-13.7,18.1-23.2,35.4-31.7,50.8c-17.2,31.2-30.8,55.9-66.7,67.5c-27.4,8.9-50.1,5.6-71.7-3.8c-2.3,5-4.7,10.1-7.2,15.3
		c-9.9,20.6-20.2,41.8-20.2,60c0,8.7,1.5,19.9,3,31.7c1.6,11.7,3.2,24.1,3.5,35.7c24.8,7,47.4,21,68.8,42.5
		c24.7,24.7,10.8,45.5-3.9,67.6c-12.6,19-26.9,40.5-21.5,69.5c0.9,4.7,1.9,9.9,3,15.4c9.4,46.7,23.7,117.3-13.2,159.3
		c-22.5,25.6-61.2,36.7-115.1,33.1c-61.4-4.2-105.6-35.3-138.9-78.1c-25.6,106-19.4,176.9,68.6,273.9c65.2,71.9,91,146.1,69,198.7
		c-15,35.8-49.9,56.6-98.3,58.6c-54.4,2.3-100.1-6.9-139.8-28.1c-31.5-16.8-59.2-41.1-87.1-76.5c-3.5-4.5-6.9-8.9-10.3-13.2
		c4,33,10.5,63.8,20.2,89.5c6.1,16.2,9.7,30.4,10.9,42.7C2201.1,1981.8,2213,1981,2226,1981z M2965.1,1910.3c-1.6,0-3,0.2-4.2,0.7
		c-1,0.4-4,1.7-4,8c0,8,8.4,19.2,20.8,28c6.1,4.3,13.7,8.2,21.7,10.5c3.4-13.5-1.7-27.7-8.4-34.4
		C2983.5,1915.5,2972.6,1910.3,2965.1,1910.3z M3024.4,1878.7c-2.1,4.5,2.3,26.7,13.5,44.3c-0.1-5.1-0.6-10.3-1.5-15.3
		C3033.1,1888.8,3026.9,1879.8,3024.4,1878.7z M3076.9,1877c-0.2,0-0.3,0.1-0.7,0.4c-4.2,4.2-1,20.5,9.5,35.1
		c0.5,0.6,1.1,1.5,1.8,2.4c0.3-2.5,0.4-4.7,0.3-6.7c-0.2-15.6-6.5-29.4-10.7-31.1C3077.1,1877.1,3077,1877,3076.9,1877z
		 M3163.5,1866.8c1.9,1.5,3.7,3.2,5.5,5c12.1,12.1,27.2,7.7,33.1,5.2c9.5-4,15.5-10.7,15.5-14.6c0-4-8.3-6.4-17.1-8.9
		c-10-2.8-21.3-6.1-28.8-13.6c-0.8-0.8-1.7-1.6-2.8-2.5L3163.5,1866.8z M2711.9,1435.3c-1.2,0-2.3,0.2-3.5,0.6
		c-2.8,1-4.6,2.7-5.8,5.2c-5.8,12.6,5.9,42.9,19.4,78c22.6,58.8,50.8,132,24.8,185.9c-24.1,50.1-19.3,107.2,11.1,132.7
		c12.8,10.8,28.7,14.8,46.6,12.2c20.9-42.9,32.8-87.9,16.2-141.8c-3.8-12.3-8.4-28.9-13.7-48.3c-21.4-77.2-57.1-206.3-89.3-223
		C2715.7,1435.8,2713.8,1435.3,2711.9,1435.3z M3081.6,1818.9c-0.5,0-0.9,0.1-1.2,0.2c-0.3,0.1-0.8,0.3-0.8,1.4
		c-0.1,2.7,2.8,9.4,14.9,15.4c3.6,1.8,7.2,3.4,10.7,4.8c-3.4-5.7-7-10.6-10.5-14.1C3088.5,1820.5,3084,1818.9,3081.6,1818.9z
		 M2160.8,1361.5c-3.4,5.1-6.9,10.3-10.4,15.5c-28.6,42.7-58.3,86.8-73.4,139.5c-35.4,122.8,9.4,220.6,71.5,307
		c-1.8-23.1-2.5-45.3-2.6-64.6c-0.3-63.5,5.7-132.3,16-184C2172.6,1522.2,2174.9,1440.7,2160.8,1361.5z M2359.5,1427.7
		c37.3,50.1,82.2,76.3,137,80c51.3,3.5,87.9-6.7,108.6-30.4c34.3-39.1,20.5-107.3,11.4-152.4c-1.1-5.5-2.2-10.8-3.1-15.5
		c-6-32.2,9.9-56.1,22.7-75.3c14.5-21.8,24.9-37.5,4.9-57.5c-20-20-40.5-33.1-63.1-39.9c-0.4,12-2.7,22.6-8.8,29.5
		c-5,5.7-12.1,8.6-21.1,8.6c-25,0-54.6-17.7-55.4-33.2c-0.3-5.3,2.4-14.7,24.4-17.2c18.8-2.2,36.4-1.5,52.9,2.1
		c-0.5-10.5-2-21.8-3.4-32.6c-1.6-12.1-3.1-23.5-3.1-32.8c0-20,10.7-42.1,21-63.5c2.5-5.2,5-10.3,7.2-15.3
		c-15-7.6-29.6-17.8-45.1-28.7c-3.2-2.2-6.4-4.5-9.7-6.8c-3.6-2.5-14.7-10.2-11.2-18.5c4.7-11,31.8-8.7,45.5-5.9
		c24,4.9,38.3,15,38.3,27.1c0,8.6-3,18.3-7.3,28.7c20.1,8.7,41.1,11.7,65.9,3.6c32.8-10.7,45.1-33,62.1-63.8
		c8.6-15.6,18.3-33.2,32.3-51.7c38.2-50.6,73.3-124,60.2-165.7c-7.5-23.9,4.5-46.1,15.2-65.7c9.2-16.9,17.8-32.8,13.7-47.7
		c-4.5-16.4-0.6-41.5,3.5-68.1c4.9-31.4,10.4-66.9,1.4-89.3c-15.2-38-57-56.5-127.6-56.5c-53.9,0-78.9,22.1-108,47.7
		c-24.3,21.4-51.9,45.7-100.8,57.1c-14.5,3.4-29.9,3.1-45.5-0.7c1.2,17.2,0.6,32.5-1.5,47.7c-5.2,36.1-20.3,71.3-47.7,110.7
		c-39.8,57.4-13,131.7,15.3,210.4c22.4,62.4,45.7,127,40.4,191.1c-7.6,91.6-39.9,171.1-71.1,248c-18.8,46.3-36.6,90.1-48.3,134.7
		C2360.8,1422.5,2360.1,1425.1,2359.5,1427.7z M2554.9,173.1c-54.5,0-119.6,24.9-183.5,71.1c-120.1,86.7-216.5,244.4-255.3,354.2
		c-10.8,30.5-46.7,138.3-57.7,247.3c-4.9,48.8-4,90.4,2.7,123.7c7.7,38.1,23.1,65.4,45.7,81.1c9.8,6.8,20.6,11.4,32.1,16.2
		c30.4,12.8,64.9,27.4,101,88.1c12.8,21.6,23.9,54.2,36.7,91.9c18.7,55,39.9,117.3,73.7,168.1c1,1.5,2,3,3,4.4
		c0.1-0.4,0.2-0.9,0.3-1.3c11.8-45.1,29.7-89.1,48.7-135.7c31-76.3,63.1-155.2,70.5-245.6c5.2-62.4-17.8-126.1-39.9-187.7
		c-29-80.7-56.4-156.9-14.3-217.7c40.6-58.6,51.7-103.9,47.6-156.1c-11.9-3.8-23.8-9.6-35.3-17.3c-28-18.7-50.1-46.5-60.6-76.2
		c-9.6-27.1-9.1-54.3,1.4-78.5c12.1-27.9,36.8-51,73.3-68.7c57.5-27.9,114.1-44.4,168.8-49.3c-8.4-3.9-17.4-6.9-27.2-8.9
		C2576.5,174.1,2565.9,173.1,2554.9,173.1z M1966.7,1119.5c19.9,2.3,40,7.8,59.4,16.3c36,15.8,66.3,40.2,85.4,68.8
		c27.7,41.6,43.9,91.5,53.4,136.1c15.3-23.8,28.9-47.4,38.3-72.6c13.6-36,1.9-68.3-10.2-89.1c-24.6-42-71.3-71.9-102.3-76.6
		C2052.7,1096.5,2012,1095.8,1966.7,1119.5z M2692.6,1157.4c-9.1,0-15.3,2-17.1,5.5c-1.6,3.1,0.3,8,4.9,13.3
		c8.4,9.5,27.9,21.6,57.3,26.9c18.6,3.4,46.5,4.9,81.1-3.6c-40.3-34.6-79-38.1-119.3-41.8C2697,1157.6,2694.7,1157.4,2692.6,1157.4z
		 M2538.4,1131c-6.7,0-13.5,0.4-20.6,1.2c-5.3,0.6-17.7,2.7-17.3,8.8c0.5,9.2,24.7,25.6,47.5,25.6c6.7,0,11.6-1.9,15.1-5.9
		c5-5.7,6.8-15.2,6.9-26.3C2559.9,1132.1,2549.5,1131,2538.4,1131z M2548.8,928.1c-9.3,0-15.3,1.7-16,3.4c0,0-0.3,2.7,8.4,8.7
		c3.3,2.3,6.5,4.6,9.7,6.8c15,10.5,29.2,20.5,43.7,27.8c3.9-9.4,6.6-18.1,6.6-25.3c0-7.6-12.8-15.3-31.9-19.2
		C2561.5,928.7,2554.6,928.1,2548.8,928.1z M2626.9,192.3c-51.7,2.8-111.4,16.7-178.4,49.2c-64.7,31.4-90.4,81.5-70.6,137.4
		c10,28.1,30.9,54.4,57.5,72.2c9.9,6.6,20,11.7,30.1,15.2c-1.6-15.2-4.5-31-8.1-48C2448.4,377,2508,346,2565.7,316
		c43.6-22.7,88.6-46.1,95.6-70.8c2-7,0.9-13.8-3.4-20.8C2650,211.3,2639.6,200.5,2626.9,192.3z"/>
</g>
</svg>
