<?xml version="1.0" encoding="utf-8"?>
<!-- Generator: Adobe Illustrator 26.5.0, SVG Export Plug-In . SVG Version: 6.00 Build 0)  -->
<svg version="1.1" id="Layer_2" xmlns="http://www.w3.org/2000/svg" xmlns:xlink="http://www.w3.org/1999/xlink" x="0px" y="0px"
	 viewBox="0 0 6000 4000" style="enable-background:new 0 0 6000 4000;" xml:space="preserve">
<style type="text/css">
	.st0{fill:#46FFF1;stroke:#46FFF1;stroke-width:4;stroke-miterlimit:10;}
</style>
<g>
	<path class="st0" d="M6000,3662.4H4163.3c-1.6,0-3.1-1-3.7-2.5c-0.6-1.5-0.3-3.2,0.9-4.4c10.2-10.2,14-49-3.1-86.8
		c-6.9-15.3-19.1-34.4-40.3-51.4c-36.4,33.8-80.2,56.1-125.4,63.4c-44.2,7.1-86.2,7.2-121.3,0.1c-31.6-6.3-55.2-17.9-66.4-32.6
		c-7.4-9.6-8.9-20-4.4-29.9c11.9-26.4,64.3-44.5,143.6-49.9c85.4-5.7,139.5,13.4,173.6,38.4c41.8-40.6,71.3-95.7,79-155.1
		c12.8-98-37.6-180-138.3-224.9c-72.5-32.4-140.5-27.6-207.1-3.1c3.9,32,4.6,64.4,1.9,94.9c-6.1,67.2-31.8,160.1-119.7,220.8
		c-44.1,30.5-132.3,58.7-262.2,83.9c-116.3,22.6-259.8,41.4-415,54.2c-149.1,12.4-302.2,18.5-431.1,17.2
		c-31.4-0.3-61.3-1.1-89.3-2.2c18.2,35.7,49.9,62.3,50.4,62.7c1.3,1.1,1.8,2.9,1.2,4.4c-0.6,1.6-2.1,2.6-3.8,2.6h-451.3
		c-1.1,0-2.2-0.5-3-1.3s-1.1-2-1-3.1c0.1-0.9,9.8-85.8-31.6-132.6c-2.4-2.7-5-5.3-7.6-7.6c-17.8,7.2-41.2,12.4-69.7,15.4
		c-58.5,6.2-98.6,2.4-107.1-10.3c-2.2-3.3-2.4-7-0.5-10.6c8-15.1,53-25.6,109.4-25.6c27.7,0,50.9,7.3,69.2,21.8
		c17.9-8.1,28.3-18.3,30-30.2c1.2-8.6-2-18.1-9.4-27.9c-18.4,1.8-36.3,2.2-53.8,1.2c-111.7-6.3-160.5-32.7-168.9-55.4
		c-3-8.2-1.1-16.1,5.4-22.4c15.8-15.2,60.1-20.4,119.9,4.4c37.6,15.5,67.8,32.9,87.6,50.2c5.2,4.6,9.7,9.1,13.4,13.7
		c11.2-1.2,22.4-2.9,33.5-5c-2.2-9.8-3-19.8-2.6-30c1.8-38.7,22.7-77.6,58.7-109.6c37-32.7,87.7-55.7,142.8-64.7
		c41-6.7,66.9-2.7,77.1,11.7c4.8,6.9,8.2,19.6-3.6,40.7c-19.7,35.4-72.9,79.3-135.7,111.9c-41.6,21.6-84.7,37.1-127,46.1
		c15.5,52,71.4,93.4,159.1,116.3c47.1,12.3,117.3,20.7,206.1,24.8c-7.1-18.1-9.4-35.5-6.6-51.6c6.9-39.8,43.5-71.9,108.8-95.5
		c112.8-40.8,226.7-34.2,347.3-27.3c111.5,6.4,226.7,13.1,358.5-13.7c112.7-22.9,211.5-91.3,307.1-157.3
		c68.8-47.6,135.7-93.9,204.2-120.3c-4.7-34.1-12.9-65.1-22.4-90.4c-26.6,15-64,29.4-124.8,35.7c-65.8,6.8-109.8,5.6-141.9,4.8
		c-53.8-1.5-78.3-2.1-128.2,35.3c-22.4,16.8-39.8,35-53.8,49.6c-20.8,21.7-35.7,37.4-53.3,35.3c-13.3-1.6-26.4-13.4-42.6-38.7
		c-14.4,7.3-30.9,11.2-45.5,11.2c-29.7,0-68.5,24.4-109.7,50.2c-22.6,14.2-45.9,28.8-68.9,40.1c-68.7,33.8-115.3,50.7-135,31
		c-5.2-5.2-7.5-11.4-7.7-17.8c-11.8,0.2-23-2.7-30.8-10.6c-8.6-8.6-11.6-19-11.2-28.8c-1.5,0.1-2.9,0.2-4.5,0.2
		c-15.5,0.6-46.7-0.2-81.5-12.4c-23.4-8.2-33.7-17.6-38-25.5c-10.3-1.3-21.4-3.3-33.1-6.1c-56.3-13.6-93-7.3-122.5-2.2
		c-22,3.8-40.9,7-61.4,1c-18.6-5.5-20.1-15.4-19.4-20.8c1.5-10.4,13.4-21.5,32.7-30.5c19.5-9.1,43.6-14.4,66.1-14.4
		c11.4,0,24,0.2,37.4,0.5c63.8,1.2,143.2,2.7,191.1-19.4c11.6-5.3,21.6-11.6,30.6-18.2c-18.8-3.6-36.8-6.5-59.5,0.7
		c-16,5-39.7,10.5-61.5,7.8c-21.7-2.7-37.1-13.2-44.3-30.5c-4.7-11.2-5.1-19-1.3-24.5c6.4-9.2,22.7-8.6,45.3-7.8
		c7.2,0.3,15.3,0.6,23.7,0.6c22.2,0,28.5-6.1,35.2-12.6c6.8-6.6,13.8-13.5,34.6-13.5c13.4,0,32-6.2,53.5-13.5
		c40.6-13.6,91-30.5,139.2-17c58.2,16.4,130.2,31.7,170.2,5.1c6.6-4.4,6.1-7.8,5.4-13.1c-0.5-3.9-1.2-8.8,2.3-13.3
		c3.8-4.8,12.5-10.3,48.5-13.9c60-6.1,68.3-13,92.7-33.3c7-5.8,14.8-12.4,25.5-20.3c28-20.8,44-20.8,59.4-20.8
		c11.7,0,22.8,0,39.6-10c14.8-8.9,25.7-25.7,37.3-43.4c18-27.7,38.4-59.1,78.7-64.8c22.1-3.2,37.9-20.4,54.6-38.6
		c21.8-23.8,45.8-49.8,88-52.4c-16.6-36.7-2.7-80.5,7.3-103.9c10.4-24.2,2.6-43.5-9.1-72.8c-14-35-33.2-82.8-33.2-167.1
		c0-57.5,8.2-97.3,14.8-129.2c11.2-54.2,17.9-86.9-27.7-150.8c-53.5-74.9-61.7-199-26.8-226.6c5.6-4.5,13.5-7.4,23.9-4.3
		c0-5.6,0.1-11.3,0.3-17c3.7-79.9,37.1-152,99.4-214.3c35.1-35.1,70.6-47.8,105.5-38c39,11,76.2,49.4,110.5,114.2
		c26,49.1,49.7,113.8,65.1,177.4c19.2,79,23.7,135.6,15.7,195.4c-7.6,56.7-27.3,119.1-68,215.3c-19.5,46.2-37.4,80.6-51.7,108.3
		c-40.7,78.6-55.9,108.1-16.2,222.2l0.6,1.6c38.4,110.3,71.5,205.5,40.3,264c-13.6,25.5-38.2,42.7-75.4,52.5
		c-25.7,6.8-45,8.9-60.1,8.3c-9.2,9-21.1,16.4-32.3,23.4c-16.8,10.5-32.7,20.5-34.1,32.5c-0.8,7.1,3.3,15,12.6,24.3
		c10.9,10.9,21.8,29.3,31.2,52.4c9.5-5.9,17.6-11.8,25.2-17.4c26.8-19.6,46.2-33.7,93.6-22.5c36.2,8.6,59.9-0.4,81.9-31.1
		c21.8-30.4,40.7-80.8,66.8-150.5c12-32,25.6-68.3,41.7-108.5c87.2-218,29.5-556.6-0.2-668.7c-14.6-55.4-8.7-89.9-3-123.2
		c6.9-40.1,14.1-81.5-12.8-162.2c-29.3-87.9-63.8-160.1-102.5-214.5c-49-68.8-105-109.4-166.5-120.7c-47.6-8.8-93.6,9.8-145,58.5
		c-46.4,44-91.2,106.9-138.6,173.5c-27.1,38-55.1,77.4-84.5,114.6c-30.2,38.3-67.6,73.2-111.1,103.7c-34.7,24.4-73.4,46-115,64.3
		c-70.7,31.1-126.2,42-126.7,42.1c-1.8,0.3-3.6-0.6-4.4-2.2c-0.8-1.6-0.4-3.6,1-4.8c95.9-81,150-238.6,134.7-392.3
		c-12.2-122,40.6-187.9,87.2-246c10.4-13,20.3-25.3,29.2-37.9c22.6-32.1,52.7-104.6,65.6-188.3c-5.5-9.9-10.8-20.3-16-31
		c-32.5-66.8-50.9-120.2-65.7-163.2c-15.5-44.9-26.7-77.3-45.3-99.7c-19-22.9-45.9-34.8-89.9-39.9c-1.8-0.2-3.2-1.6-3.5-3.3
		c-0.3-1.8,0.6-3.5,2.2-4.3c1-0.5,25.1-11.5,60.6-5.3c20.7,3.6,41.1,12.5,60.6,26.2c24.1,17,46.8,41.8,67.5,73.5
		c50.1,76.7,48.2,175.7,37.8,245.5c90.5,162.6,201.2,188.3,328.1,217.8c9.3,2.2,18.9,4.4,28.5,6.7c77,18.4,139.3,66.9,177.9,104.3
		c27,26.2,46.6,50.8,57.2,65.1c-6.1-42.7-27.6-105.4-58.2-168.7c-30-62.2-83-155.1-164.9-244.7c-36.2-39.6-73.7-74.1-108.6-100
		c26.8,75.2,43.3,135.6,40.7,161.2c-1.6,15.6-11,19.1-16.5,19.7c-0.9,0.1-1.8,0.2-2.7,0.2c-17.5,0-45.5-18.6-74.1-49.4
		c-32.4-35-59.5-78.8-74.4-120.4c-14.7-41.2-5-57.5,5.7-64c17.5-10.6,50.4-2.2,92.7,23.7c4,2.5,8.1,5.1,12.3,7.8
		c-1.1-2.9-2.2-5.9-3.3-8.8c-34.9-93.2-81.8-201.6-128.8-297.3c-114.3-232.7-275.4-278.2-339.4-286.9
		c-59.7-8.2-129.8,21.1-192.1,57.6c6.8,14.8,0,44.8-53.5,106c-133.4,152.7-163.4,213.1-166.9,274.9c86,38.3,166.2,37.7,221.1,29.3
		c3.8-0.6,7.6-1.2,11.4-1.9c-4.5-12.6-6.7-28.3-6.7-47c0-17.3,16-31.9,44.9-41.2c38.6-12.4,91.7-12.3,105.1,6.4
		c3.6,5,6,13.6-3.2,25.8c-16.1,21.7-64.4,48.4-128.8,61.9c4.2,7.9,9.6,13.9,16.4,17.8c36.2,21.2,105.8-17.9,139.3-36.6
		c22.3-12.5,42.6-14.9,60.3-7.2c40.3,17.7,61.1,84.6,76.2,147.8c23.7,99.4,11.6,202.6-30.9,262.9c-46.2,65.7-92.8,102.9-146.6,117.2
		c-23.6,6.3-40.8,3.6-52.7-8c-10.2-10.1-14.8-25.2-19.2-39.8c-1-3.4-2.1-7-3.2-10.3c-2.4-7.1-4.5-11.4-6.5-12.9
		c-1.3-1-2.6-1-6.2-0.7c-5.8,0.5-14.5,1.2-27.6-7c-7.7-4.8-12-10.6-12.7-17.3c-0.5-4.9,0.9-9.8,3.6-14.7c-8.1,0.8-15.4,0.1-20.4-3.1
		c-4.2-2.7-6.5-7.1-6.5-12.5c0-12.3-6.1-25.3-13.4-28.3c-3.1-1.3-6.2-0.4-9.3,2.7c-7.5,7.5-21.1,14.6-34.6,18.1
		c-9.3,2.4-26.3,5-35.7-4.4c-8.9-8.9-6.1-37.8-0.5-84.4c2.6-21.5,5.3-43.6,5.3-59.5c0-21-9.6-26.5-24.1-34.9
		c-12.6-7.3-28.4-16.4-41.2-38.8c-4.2-7.3-8.5-14.6-12.7-21.7c-25.4-42.7-49.4-83.1-49.4-144.3c0-2.8,0-5.7,0.1-8.5
		c-10.6-4.9-21.3-10.4-32.1-16.5c-9.5-5.4-14.8-15.5-15.7-30.1c-2-30.5,15.4-80.1,47.6-136.2c30.4-53,68-100.1,98.1-122.8
		c27.6-20.9,70.7-53.6,118.6-82.5c-11.4-7.3-37.7-2.7-70.1,12.5c-38.4,18-81,48.8-116.6,84.5c-126.6,126.6-132.2,203.7-114.6,337.8
		c5.1,38.7,12.2,72.1,19,104.4c17.5,82.5,31.4,147.6-3.3,236.8c-32.7,84-23.4,132.4-8,212.7c6.8,35.7,14.6,76.1,20.4,128.4
		c6.6,59.5-2.3,113-26.3,159c-19.2,36.8-48.2,68.9-86,95.4c-49.4,34.6-101.5,50.4-123.1,56c17.6,9.2,58.7,29,107,40.9
		c17.6,4.3,37.2,7.8,57.5,9.2c40.5-30,86.1-81.5,101.5-165.6c8.9-48.6,24.5-76.8,44.1-79.6c13-1.8,25.7,7.8,35,26.4
		c11.1,22.1,15.3,53.2,11.3,83.2c-3.4,25.6-14.4,63.1-47.4,96.1c-26,26-59.2,41.7-98.8,46.6c-13.7,1.7-28.3,2.1-43.5,1.3
		c-4.2,3-8.5,6-12.9,8.8c-34.9,22.5-67.4,33-83.5,37.2c122.3,63.6,234.7,80.4,334.6,50.1c12.5-26.3,32.7-53.2,61.7-82.2
		c101.5-101.5,153-206.5,153-311.8c0-25.4,7.8-34.2,14.4-37.1c6.8-3,14.9-0.7,22.6,6.3c12.5,11.5,22.3,33.9,26.1,60
		c3.3,22.6,3.9,59.3-12.1,105.9c-9.5,27.7-32.5,82.6-79.4,139.7c-45.1,54.9-98.3,94.6-157.9,117.9c-7.4,2.9-15,5.6-22.6,7.9
		c-11.1,24.6-14.8,48.3-11.5,71.9c5.7,40.8,31.7,81.7,86.8,136.9c48.8,48.8,78,94.8,89.3,140.9c11.2,45.5,5.2,92.1-18.2,142.6
		c-4.7,10-9,19.2-13.2,28.1c-36.1,76.4-52.6,111.3-38.6,189.4c7.5,41.6-2.8,89.8-26.5,129.4c8.1,7,15.3,14.3,21.1,21.8
		c13.9,17.5,20.2,34.8,17.9,48.6c-1.9,10.9-9.8,25-37.3,29.9c-8.6,1.5-15.2,0.4-21.7-0.6c-12.4-2.1-23.1-3.8-46.7,14.4l-0.9,0.7
		c-24.8,19.1-47.1,36.3-63.1,36.3c-4.9,0-9.3-1.6-12.9-5.3c-13-13-17-35.7-9.5-53.9c4.9-11.9,19.1-31.8,58.8-31.8
		c23.7,0,48.8-14.3,70.5-40.4c4.8-5.7,9.2-11.7,13.2-18c-9.1-7.3-19.3-14.2-30.2-20.3c-28.1-15.8-41.3-31.9-54.1-47.5
		c-12.2-14.8-23.6-28.8-47.8-40.9c-19.5-9.8-40.3-9.6-58.6,0.3c-1.8,1-3.5,2-5.2,3.1c17.8,7.1,30.5,18.8,35.5,33
		c4.3,12.2,2.4,25-5.3,34.9c-21.8,28.5-13.4,64.8-6.6,94c4.7,20.4,8.4,36.5,1,45.8c-3.7,4.6-9.6,6.9-18,6.9
		c-14.5,0-26.3-5-35.1-14.8c-19-21.2-24.2-64-16.5-134.8c2.7-24.7,13-46.6,28.4-61.9c-23.2-5.4-42.3-1-57.9,7
		c8.1,13.4,10.7,34.4,7.9,62.6c-1.3,13.4-2.4,25.9-3.4,36.9c-5.8,65.4-8.7,98.2-41.4,98.2c-4.8,0-11.5-2.3-16.1-13.4
		c-9.7-23.5-5.5-71.8-3.2-91.5c3.6-31.2,10.8-66.3,18.7-74.2c6.9-6.9,15.3-14.5,25.4-20.9c-1.1-1-2.2-1.9-3.4-2.6
		c-17.3-11.4-45.2,1-60.3,9.4c-5.4,3-10.5,7.7-15,13.8c6.2-1.2,11.1-0.6,15.3,1.9c9.4,5.6,13.1,19.9,13.1,51.1
		c0,55.9-2.9,106-38,106c-6,0-14.2-4.1-19.2-23.4c-5.6-21.7-5.4-55.1,0.6-85.1c1.9-9.7,5.3-23,10.9-35.8c-7.1,3.4-15,7.6-23.4,12.2
		c-29,16-49.5,33.9-59.3,46.7c10.6,0.1,18.3,0.2,22.4,0.2c6.3,0,11.3,0.7,14.9,2c6,2.3,6.9,6,6.9,8c0,9.2-17.2,16.1-39.9,16.1
		c-13.1,0-17.2-5.3-18.3-9.8c-0.7-2.6-0.4-5.6,0.6-8.7c-13.3-0.2-29.6-0.4-48.1-0.7c-90.8-1.3-242.7-3.5-346.9-3.5
		c-41.9,0-65.8,6.5-71,19.3c-1,2.4-1.3,5-1.1,7.8c9.9-0.7,21.1-1.1,33.6-1.1c16.9,0,34.8-0.4,53.7-0.9c109.2-2.6,245-5.9,325.6,74.6
		c32.6,32.6,61.4,58,82.4,76.5c34.5,30.4,50.3,44.3,46.1,55.4c-4.8,12.7-31.2,13.3-122.2,13.3c-42.3,0-76.1,1.5-103.3,2.7
		c-95.8,4.3-121.6,5.4-196.6-69.7c-11.2-11.2-22.6-22.3-33.7-33c-45.8-44.6-84-81.7-92.1-109.2c-12,1.2-21,2.9-27.9,5
		c2,2.9,3.9,5.6,5.7,8.4c13.8,20.4,24.1,36.7,30.6,48.4c9.6,17.4,9.9,22.7,7,25.8c-4.4,4.8-12.4-1.1-16.3-3.9
		c-41.8-30.4-58.8-52-53.5-68.2c1.9-5.8,6.5-10.6,14.1-14.3c-27-38.9-63.7-88.6-106.6-144.8c-100.7-131.8-216.2-273.2-308.8-378.1
		c-47.1-53.3-87-90.6-118.5-110.7c-26-16.6-45.7-21-57-12.9c-25.1,18-10.8,97.7,30.7,170.6c131.7,231.4,261.4,411.2,385.4,534.2
		c34.8,34.5,68.9,64.1,101.7,88.3c52-9.6,105.4-8.5,143.3,3.8c51.4,16.7,87,44.3,82.7,64.2c-2.2,10.2-15,21.3-64,16.1
		c-34.8-3.7-74.4-18.7-117.7-44.6c-15.2-9.1-30.7-19.4-46.5-31c-10.7,2.1-21.4,4.7-31.8,7.7c-53.8,15.7-127,50.4-169.7,127.1
		c-28.6,51.4-33.2,94-23.7,119.5c6.6-18.1,13.6-35.2,21.1-50.6c27.1-56,58.7-90.2,84.5-91.5c9.3-0.5,17.1,3.7,22,11.6
		c9.8,16,9.7,51.7-20,104.1c-32.2,56.6-70.5,68.5-94.3,55.1c-4.3-2.4-8.2-5.7-11.5-9.6c-50.4,149.3-72.7,358.7-72.9,361.1
		c-0.2,2-1.9,3.6-4,3.6H0v-8h1608.6c1.7-15.5,9.2-79.7,23.2-156.6c11.1-61.4,28.3-140.7,51.7-208.3c-5.4-9.8-8.4-22.2-8.7-36.4
		c-0.6-28.6,9.5-62.4,29.2-97.8c18.4-33.1,44.2-61.5,76.5-84.4c28.4-20.2,61.4-35.8,98-46.5c8.4-2.4,16.9-4.6,25.5-6.4
		c-31.2-23.6-63.5-52-96.6-84.8c-124.6-123.6-254.7-303.9-386.7-536c-39.2-68.9-61.2-157.7-28.4-181.1
		c30.5-21.8,94.8,21.4,186.2,124.9c94.9,107.4,212.5,251.6,314.6,385.7c41.3,54.2,76.4,102,102.4,139.5c8.1-2.7,18.4-4.7,31.1-6
		c-0.3-4.1,0.2-7.9,1.7-11.5c6.7-16.6,31.6-24.3,78.4-24.3c104.3,0,256.2,2.2,347,3.5c20.2,0.3,37.8,0.5,51.8,0.7
		c10.6-17.2,37.5-38.4,65.1-53.6c13.4-7.4,24.1-12.9,32.8-16.4c5.8-10.1,13.3-19.1,22.9-24.4c20.4-11.3,48.9-22.1,68.6-9.1
		c2.2,1.5,4.3,3.2,6.1,5.2c17.5-9.3,39.5-14.5,66.5-7.7c1.2,0.3,2.4,0.6,3.5,0.9c3.4-2.6,6.9-5,10.6-7c20.7-11.3,44.1-11.4,66-0.5
		c25.7,12.8,37.7,27.5,50.4,43c12.3,15,25,30.5,51.8,45.6c11,6.2,21.2,13.1,30.5,20.5c22.3-37.8,31.9-83.4,24.8-122.9
		c-14.5-80.6,2.4-116.2,39.3-194.3c4.2-8.9,8.6-18.1,13.2-28.1c45.6-98,24.8-180.1-69.5-274.4c-56.4-56.4-83.1-98.7-89-141.4
		c-3.3-23.3-0.1-46.3,9.5-70.1c-42.3,11.8-87,15.6-133.5,11.1c-66.3-6.3-137-29.5-210.2-68.8c-1.5-0.8-2.3-2.5-2.1-4.2
		c0.3-1.7,1.6-3,3.2-3.3c0.4-0.1,44.2-8.2,91.5-38.7c1.4-0.9,2.9-1.9,4.4-2.9c-15.8-1.6-32.3-4.5-49.3-8.7
		c-65.3-16.1-117.6-46.3-118.1-46.6c-1.4-0.8-2.2-2.5-1.9-4.1c0.3-1.6,1.6-2.9,3.2-3.3c0.7-0.1,67.9-13.2,130.7-57.2
		c83.8-58.7,120.4-141.8,108.7-246.8c-5.8-52-13.5-92.2-20.3-127.8c-15.1-78.9-25.1-131,8.4-217.1c33.8-86.9,20.2-151,2.9-232.2
		c-6.9-32.4-14-66-19.1-105c-8.9-67.7-11.5-123.8,4.4-177.3c16.1-53.9,50.7-105.4,112.4-167.1c36.8-36.8,79.1-67.4,118.9-86.1
		c38.5-18.1,67.9-21.6,80.8-9.6c7.5-4.4,15-8.7,22.7-12.8c68.7-37.2,127.7-52.7,175.2-46.2c42.3,5.8,107.5,23.9,177.4,77.3
		c66.9,51.1,123.5,123.1,168.1,214c49.5,100.7,100.8,220.1,136.3,317.5c37.9,26.8,79.4,64.3,119.3,107.9
		c82.6,90.3,136,183.9,166.2,246.6c34.8,72.1,58,143.7,60.5,186.8c0.1,1.8-1,3.5-2.7,4c-1.7,0.6-3.6-0.1-4.6-1.6
		c-0.2-0.4-23.9-36.5-65.1-76.4c-37.9-36.7-98.8-84.2-174-102.2c-9.6-2.3-19.2-4.5-28.4-6.7c-67.8-15.7-131.8-30.6-190.6-66
		c-54.8-33-99.3-80.2-137.8-146.9c-13.9,80.8-43.1,150.2-65.3,181.7c-9,12.8-18.9,25.2-29.5,38.3c-45.6,56.9-97.3,121.4-85.5,240.2
		c7.5,74.8-1,151.7-24.4,222.5c-22.5,67.9-57.3,125-101.3,166.2c21-5.3,61.9-16.9,110.1-38.2c64.4-28.4,155.4-80.2,222.8-165.5
		c29.3-37.1,57.2-76.3,84.3-114.3c47.6-66.9,92.6-130.1,139.6-174.6c25.3-24,49.1-40.7,72.8-50.9c26.6-11.5,52.5-14.7,79.1-9.8
		c63.6,11.7,121.4,53.4,171.6,124c39.2,55,74,127.9,103.6,216.6c27.5,82.6,20.2,125.1,13.1,166.1c-5.9,34-11.4,66.1,2.8,119.8
		c29.8,112.8,87.9,453.7-0.2,673.8c-16.1,40.1-29.6,76.4-41.6,108.3c-26.3,70.3-45.4,121.1-67.8,152.4
		c-23.9,33.4-50.9,43.6-90.3,34.2c-43.8-10.4-61,2.1-87,21.1c-7.9,5.7-16.5,12.1-27,18.4c4.5,11.9,8.7,24.8,12.3,38.5
		c4.6,17.3,8.2,35.1,10.7,53.2c67.7-24.6,137-29.1,211.4,4.1c54.9,24.5,95.1,59.1,119.4,102.7c21.5,38.7,29.7,83.8,23.6,130.5
		c-7,53.2-31.8,105.6-69.9,147.7c-3.5,3.9-7.1,7.6-10.8,11.2c21.8,17.8,34.5,37.8,41.7,53.7c15.5,34.2,15.5,70.9,6.3,88.9h1829
		V3662.4z M2135.9,3654.4h436.5c-7.1-6.8-18-18-28.5-32.3c-7.4-10-13.4-20-18-29.9c-91.2-4.1-163.4-12.6-211.6-25.2
		c-58.1-15.1-102.4-37.9-131.6-67.7c-16.2-16.5-27.4-35.1-33.2-54.8c-10.1,2-20.1,3.5-30,4.7c6.8,10.4,9.6,20.5,8.2,30
		c-2,13.8-12.3,25.4-30.7,34.6c-0.2,0.1-0.4,0.2-0.6,0.3c2,1.9,3.9,3.8,5.7,5.9c23,26,30.9,62.4,33.5,88.4
		C2137.4,3629.3,2136.5,3646.6,2135.9,3654.4z M2531.1,3584.5c29.2,1.2,60.3,2,93.3,2.4c128.6,1.3,281.5-4.8,430.4-17.2
		c333.3-27.7,591.2-80.1,673.3-136.8c85.4-59,110.3-149.5,116.3-215c2.8-31.5,1.9-62.4-1.5-91.3c-67.2,26.2-133,71.7-200.8,118.6
		c-96.2,66.5-195.7,135.4-310,158.6c-132.8,27-248.6,20.3-360.6,13.8c-119.7-6.9-232.8-13.4-344.1,26.8
		c-62.4,22.6-97.3,52.6-103.6,89.4C2520.5,3551.2,2524.2,3568.6,2531.1,3584.5z M3972.7,3475.4c-9.3,0-18.9,0.3-29.1,1
		c-75.2,5.1-126.3,22-136.9,45.2c-3.3,7.2-2.1,14.5,3.4,21.8c9.9,12.9,32.4,23.7,61.7,29.6c34.2,6.9,75.2,6.8,118.5-0.2
		c44.4-7.1,86.1-29,120.4-60.3C4081.9,3491.8,4038.4,3475.4,3972.7,3475.4z M2020.3,3494.6c-62.8,0-97.7,12.5-102.4,21.4
		c-0.6,1.1-0.4,1.7,0,2.4c3.8,5.6,29.5,14.3,99.6,6.8c25.5-2.7,46.8-7.2,63.2-13.3C2064.6,3500.4,2044.3,3494.6,2020.3,3494.6z
		 M1936.8,3368.9c-17.4,0-31.4,3.8-38.4,10.6c-4.2,4-5.4,8.7-3.4,13.9c7.8,20.9,60.8,44.5,161.8,50.2c15.7,0.9,31.5,0.6,47.1-0.6
		c-18-19.2-50.6-39.4-94.2-57.5c-32.7-13.5-57.3-16.5-72.2-16.5C1937.3,3368.9,1937,3368.9,1936.8,3368.9z M2380.3,3237.6
		c-9.4,0-20.4,1-32.7,3c-53.7,8.8-103,31.1-138.8,62.8c-34.4,30.5-54.3,67.4-56,103.9c-0.5,9.6,0.3,19,2.3,28.1
		c123-26,230.2-104.8,257.7-154.2c5.4-9.7,10.4-23.1,4-32.2C2411.5,3241.4,2398.8,3237.6,2380.3,3237.6z M1692.2,3288.6
		c3.3,5.1,7.5,9.1,12.3,11.8c20.3,11.4,53.9-0.3,83.4-52.1c28.1-49.4,28.4-82.5,20.2-95.9c-3.4-5.5-8.4-8.1-14.8-7.8
		c-17.6,0.9-47.3,24.2-77.7,87C1707.2,3248.8,1699.4,3268.1,1692.2,3288.6z M2915.8,3264.1c0.1,4.6,1.7,9.1,5.4,12.8
		c17.3,17.3,70.7-5.4,125.8-32.5c22.6-11.1,45.7-25.6,68.1-39.7c42.1-26.4,81.9-51.4,113.9-51.4c13,0,28.1-3.6,41.2-10.1
		c-1.3-2.1-2.6-4.3-3.9-6.6c-35.6-61.6-48.2-105-33.8-116.1c9.9-7.6,28,1.6,53.7,27.4c29.7,29.7,28.6,53.7,22.5,68.6
		c-5,12.2-15.1,22.2-27.2,29.7c14.4,22.6,25.9,33.4,36.5,34.7c13.6,1.6,27.4-12.9,46.6-32.9c14.2-14.8,31.8-33.3,54.8-50.5
		c52.1-39.1,79.2-38.3,133.2-36.9c31.9,0.9,75.6,2.1,140.9-4.7c60.6-6.3,96.7-20.3,122.7-35.2c-9.5-23.4-20.1-41.1-29.9-50.9
		c-11.1-11.1-16-21.2-14.9-30.9c1.8-15.9,19.3-26.8,37.8-38.4c9-5.6,18.1-11.3,25.7-17.6c-19.3-2.9-30.5-10.7-40.4-17.7
		c-15.5-10.9-27.8-19.6-67.4-3.4c-47.9,19.7-87.7,22.3-94.7,6.4c-5.6-12.9,12.9-30.2,50.7-47.7c46.4-21.4,109.7-42.7,148.3-22.6
		c16,8.4,26,23,29.7,43.6c2.5,13.8-1.3,25-8.5,34.5c13.3-0.2,29.8-2.6,51.1-8.2c34.8-9.2,57.8-25,70.3-48.5
		c29.6-55.5-3-149.2-40.8-257.7l-0.6-1.6c-20.1-57.9-26.6-95-22.5-128.1c4.1-32.6,18.8-61.1,39.2-100.4
		c14.3-27.6,32-61.8,51.4-107.7c76.8-181.5,87-261.1,52-405.7c-15.3-63-38.8-127-64.4-175.6c-32.7-61.9-69.2-100.1-105.6-110.3
		c-32-9-64.8,3.1-97.7,36c-75.8,75.8-99.1,156.5-97.7,228.9c7.1,3.9,15.1,10.4,24.2,20.8c32.1,36.7,48.3,82.4,55.1,106.3
		c9.9,35.1,12.4,66.8,6.3,80.9c-2.9,6.7-7.3,8.3-10.4,8.4c-0.1,0-0.2,0-0.4,0c-9.5,0-20.7-12.8-34.5-39.2
		c-21.2-40.8-45.5-102-47.8-171.9c-6.7-2.7-13.3-2.7-19.1,1.9c-28.8,22.8-25.5,140.2,28.4,215.6c22.4,31.3,33.7,56.8,36.6,82.6
		c2.7,24.1-1.8,46.3-7.6,74.4c-6.5,31.6-14.6,70.9-14.6,127.6c0,82.7,18.8,129.8,32.6,164.1c12,30,20.7,51.7,9,79
		c-9.8,22.8-23.5,66.1-5.9,100.5c13.9,0.2,29.6,2.9,47.7,8.7c30.5,9.8,54,18.6,69.8,26.1c17.3,8.2,23.7,13.9,22.2,19.6
		c-0.9,3.3-3.7,13.5-76-2.8c-32.6-7.3-55.6-21.9-68.4-43.5c-41.3,1.1-64,25.9-86.2,50c-17.7,19.3-34.5,37.6-59.4,41.1
		c-36.7,5.2-55.3,33.7-73.2,61.3c-12.1,18.6-23.5,36.1-39.9,45.9c-18.7,11.2-31.4,11.2-43.7,11.2c-14.7,0-28.7,0-54.6,19.2
		c-10.5,7.8-18.3,14.3-25.1,20c-25.1,21-34.5,28.8-97,35.2c-24.9,2.5-39.3,6.2-43,10.9c-1.4,1.8-1.2,3.7-0.7,7.3
		c0.8,5.8,1.9,13.7-8.9,20.8c-18.5,12.3-43.4,17.4-76.1,15.5c-27-1.6-59-7.8-100.7-19.5c-45.8-12.9-95,3.6-134.5,16.9
		c-22.2,7.5-41.4,13.9-56.1,13.9c-17.5,0-22.8,5.2-29,11.2c-7.2,7-15.3,14.9-40.8,14.9c-8.6,0-16.8-0.3-24-0.6
		c-18.5-0.7-34.5-1.3-38.4,4.3c-2,2.9-1.3,8.6,2.1,16.8c16.2,38.5,72.5,25.5,96,18.1c25.8-8.1,45.5-4.3,66.4-0.3
		c1.3,0.3,2.7,0.5,4,0.8c6.6-5.2,12.6-10.5,18.3-15.5c21.5-18.8,38.4-33.6,60.4-23.3c15.5,7.2,16,16.5,14.9,21.4
		c-3.4,15.4-31.9,29.4-59.7,29.4c-11.5,0-22-1.5-31.9-3.4c-10.8,8.4-23.2,16.7-37.8,23.4c-49.6,22.9-130,21.4-194.6,20.1
		c-13.3-0.3-25.9-0.5-37.3-0.5c-47.1,0-88.6,23-90.8,38c-0.9,6.3,6.9,10,13.7,12c18.7,5.5,36,2.5,57.8-1.2
		c30.2-5.2,67.8-11.6,125.7,2.3c10.1,2.4,19.7,4.2,28.6,5.5c-0.2-2.7,0.1-4.9,0.5-6.6c4.5-17.2,30.9-26.7,60.2-21.6
		c14.2,2.5,22.9,7.2,25.1,13.7c1.3,3.8,0.3,7.7-2.9,11.2c-8.9,9.8-34.1,15.8-69.6,12.9c5.8,6.1,16.1,12,29.9,16.9
		c33.6,11.8,63.6,12.5,78.6,12c2.1-0.1,4-0.2,6-0.3c1.9-7.7,5.8-14.6,10.4-19.3c9.3-9.3,20.7-9.9,29-1.6c6.5,6.5,4,12.3,2.6,14.5
		c-4.3,6.8-17.1,11.7-35.2,13.7c-0.6,8.1,1.7,16.8,8.8,23.9c6.4,6.4,15.8,8.7,25.8,8.3c1-4.7,2.8-9.2,5.3-13
		c7-11,20.7-19.7,35.4-14.3c6.9,2.5,8,6.8,8.1,9.2c0.3,9.8-15.7,17.5-20.6,19.6C2930.3,3261,2923.1,3263.1,2915.8,3264.1z
		 M2940,3235.8c-8.5,0-15.6,6.1-19.5,12.3c-1.5,2.4-2.8,5-3.6,7.8c5.7-1,11.4-2.8,16.6-5c11.3-4.9,15.8-10.2,15.8-12
		c0-0.3-0.8-1.1-2.8-1.9C2944.3,3236.2,2942.1,3235.8,2940,3235.8z M2893.3,3198.6c-4.5,0-8.3,3.2-10.2,5.1
		c-3.2,3.2-5.9,7.7-7.6,12.7c15.4-2.1,24.5-6.1,26.8-9.7c0.4-0.7,1.2-1.9-1.5-4.6C2898.3,3199.5,2895.7,3198.6,2893.3,3198.6z
		 M2747.5,3180.3c37.4,4,61.9-2.2,68.8-9.8c1.7-1.8,1.3-2.9,1.2-3.2c-0.9-2.5-6.3-6.2-18.9-8.4c-26.9-4.7-48.2,4.4-51.1,15.8
		C2747,3176.5,2747,3178.4,2747.5,3180.3z M3240.7,3025.9c-1.4,0-2.4,0.3-3.2,0.9c-6.8,5.2-3,38.5,35.9,105.8c1.3,2.3,2.7,4.6,4,6.7
		c10.8-6.6,19.7-15.4,24.1-25.9c7.5-18.1,0.3-38.8-20.7-59.9C3260.1,3032.9,3247,3025.9,3240.7,3025.9z M1923.5,3022.4
		c57.3,41,109.9,65,154,69.6c38.4,4,53.7-2.4,55.3-9.8c2.8-13.2-28.3-39-77.4-55C2020.4,3015.9,1971.8,3014.4,1923.5,3022.4z
		 M2882.3,3073c7.5,1.2,15.3,2.1,23.6,2.1c25.2,0,49.6-12.7,51.9-23.1c1.2-5.6-5-9.8-10.5-12.4c-17.3-8.1-31,3.9-51.8,22.1
		C2891.4,3065.2,2887,3069.1,2882.3,3073z M2036,2867.5c8.6,25.5,48.1,63.9,89.5,104.2c11.1,10.8,22.5,21.9,33.7,33.1
		c72.6,72.6,95.2,71.6,190.6,67.3c27.3-1.2,61.2-2.7,103.6-2.7c41.9,0,68.7-0.1,87.2-1.4c22.3-1.6,26.8-4.9,27.5-6.7
		c0.5-1.3,0-4.9-8.9-14.3c-7.6-8.1-19.7-18.8-35-32.3c-21.1-18.6-50-44.1-82.7-76.8c-78.1-78.1-212.1-74.9-319.7-72.3
		c-19,0.5-36.9,0.9-53.9,0.9C2055.7,2866.4,2045.2,2866.8,2036,2867.5z M2982.2,2837c-4.1,6.2-8.5,12.2-13.3,17.9
		c-23.3,27.9-50.6,43.2-76.7,43.2c-26,0-44.2,9.5-51.4,26.9c-6.2,15.1-2.9,34.5,7.7,45.1c10.6,10.6,37.3-9.9,65.5-31.7l0.9-0.7
		c26.4-20.3,39.9-18.1,52.9-15.9c6,1,11.7,2,18.9,0.7c12.6-2.3,28.2-8.1,30.8-23.4c2-11.6-3.8-26.6-16.3-42.3
		C2996,2850.1,2989.6,2843.4,2982.2,2837z M1992.3,2876c-6.9,3.2-10,6.8-11.1,10.1c-2.7,8.3,3.9,25.3,50.6,59.2c2,1.4,3.5,2.4,4.5,3
		c-2-6-10.1-22.9-42-69.5C1993.6,2877.9,1992.9,2877,1992.3,2876z M2772.7,2732.4c-16.1,14-26.8,35.5-29.5,60.2
		c-7.4,67.4-2.6,109.4,14.5,128.6c7.3,8.2,16.9,12.1,29.2,12.1c5.8,0,9.6-1.3,11.7-3.9c5-6.3,1.5-21.5-2.6-39
		c-6.7-29.2-16-69.2,8.1-100.7c6-7.8,7.4-17.8,4.1-27.4C2803.5,2749.1,2790.8,2738.4,2772.7,2732.4z M2698.9,2740.7
		c-9.9,6.1-18.1,13.5-24.9,20.2c-4.5,4.5-12.1,32.4-16.4,69.5c-4.6,39.7-3.6,72.5,2.6,87.6c3.5,8.5,7.4,8.5,8.7,8.5
		c24.2,0,27.3-21.9,33.4-90.9c1-11,2.1-23.6,3.4-37C2708.4,2771.8,2706.1,2752.5,2698.9,2740.7z M2608.7,2765.1
		c-6,11.1-10.7,25.3-14.1,42c-5.8,28.9-6,60.9-0.7,81.5c2.8,10.9,7.1,17.4,11.4,17.4c25.1,0,30-36,30-98c0-26.9-2.8-40.5-9.1-44.2
		C2622.5,2761.6,2616.4,2762.4,2608.7,2765.1z M3763.6,2844.7c16.1,0,25.7,6.8,35.6,13.8c10.5,7.4,21.9,15.5,43.3,17.1
		c8.3-9,13.1-19.5,10.8-32.8c-3.2-18-11.8-30.8-25.5-37.9c-27.8-14.5-78-6.5-141.2,22.7c-38.4,17.7-49,32-46.7,37.2
		c3,6.9,31.7,11,84.3-10.6C3740.9,2847.3,3753.5,2844.7,3763.6,2844.7z M2510,2836.7c-1.3,2.8-1.7,5-1.3,6.6c0.8,3.3,7,3.8,10.6,3.8
		c19.4,0,30-5.3,31.7-7.9c-0.9-0.7-4.2-2.3-13.6-2.3C2532.7,2837,2523.2,2836.9,2510,2836.7z M3744.3,2656.4
		c12.1,17.3,32.4,29.2,60.5,35.5c42.6,9.6,60.3,9.5,65.5,8.2c-3.5-3.4-19-14.2-85.7-35.7C3769.4,2659.6,3756.1,2657,3744.3,2656.4z
		 M3687.8,1806.6c3.2,65.5,26,123.5,47,163.9c17.2,33,25.6,34.9,27.4,34.9c0,0,0.1,0,0.1,0c1.5-0.1,2.7-2,3.3-3.6
		c4.3-9.9,4-37.8-6.6-75.6c-6.6-23.3-22.3-67.7-53.4-103.2C3700.4,1817.1,3694.2,1811,3687.8,1806.6z M3148.1,1559.9
		c-1,0-2,0.2-3,0.6c-6,2.6-9.6,13.8-9.6,29.8c0,48.1-10.8,96.9-32,145c-25.8,58.4-67.3,116.4-123.3,172.5
		c-25.7,25.7-44.5,49.9-56.8,73.2c5-1.7,9.9-3.5,14.8-5.4c124.3-48.7,203-166.6,232.7-252.8c27.9-81,7.6-139.5-11.8-157.4
		C3156.6,1563.1,3152.3,1559.9,3148.1,1559.9z M2684.8,1880.4c44.1,0.7,90.5-9.9,126.4-45.8c31.4-31.4,41.8-67.1,45.1-91.5
		c3.8-28.4-0.1-57.8-10.5-78.6c-7.5-15.1-17.5-23.3-26.8-22c-7.4,1-25.8,10.3-37.3,73.1c-7.9,43-24,81.4-48,114.1
		C2719.9,1848.6,2703.5,1865.5,2684.8,1880.4z M3081.4,1241c7.6,0,12.3,3.2,17.6,19.2c1.1,3.4,2.2,7,3.3,10.5
		c8.5,28,16.5,54.5,62.2,42.4c51.9-13.8,97-50,142.1-114.1c41.2-58.5,52.8-159.1,29.6-256.4c-13.7-57.7-34.3-126-71.6-142.4
		c-15.5-6.8-32.9-4.6-53.2,6.8c-23.1,13-50.2,27.4-75.8,36c-31,10.4-54.4,10.6-71.4,0.6c-8.7-5.1-15.5-12.8-20.5-23.1
		c-4.4,0.8-8.8,1.6-13.3,2.3c-55.4,8.5-136,9.2-222.6-28.6c0,1.6,0,3.3,0,4.9c0,59,23.5,98.4,48.3,140.2c4.2,7.1,8.6,14.4,12.8,21.8
		c11.7,20.5,25.8,28.7,38.2,35.8c15.1,8.7,28.1,16.2,28.1,41.8c0,16.4-2.7,38.8-5.4,60.5c-3.8,31.7-8.6,71-1.8,77.8
		c4.8,4.8,15.2,5.6,28.1,2.4c12.2-3.1,24.3-9.4,30.9-16c5.4-5.4,11.8-7,18-4.5c10.3,4.2,18.3,19.9,18.3,35.6c0,2.8,0.9,4.5,2.8,5.8
		c4,2.6,12,2.8,22.3,0.9c5-6.1,11.2-12.1,17.4-18c2.6-2.5,5-4.8,7.4-7.2c10.1-10.1,20.7-10.9,26.8-8.4c4.5,1.8,7.3,5.5,7.3,9.9
		c0.1,4-2.1,11.6-17.2,18.3c-4.9,2.2-21.1,9.1-37.2,12.5c-4.2,5.5-6.9,10.9-6.4,15.6c0.4,4.1,3.4,7.8,8.9,11.3
		c10.8,6.8,17.4,6.2,22.7,5.8C3079.2,1241.1,3080.4,1241,3081.4,1241z M3093.4,1174.5c-4.1,0-9.4,2.1-14.6,7.3
		c-2.4,2.4-5,4.9-7.5,7.3c-3,2.8-6,5.8-8.9,8.7c7.6-2.3,15.9-5.4,24.5-9.2c9.2-4.1,12.5-8.4,12.4-10.9c0-1.5-1.5-2.3-2.3-2.6
		C3095.9,1174.7,3094.7,1174.5,3093.4,1174.5z M3605.5,912c-5.8,0-10.6,1.1-14.3,3.4c-11.6,7-12.4,26.3-2.3,54.4
		c14.5,40.5,41,83.4,72.7,117.6c27.5,29.7,55.7,48.5,70,46.8c3.6-0.4,8.4-2.2,9.5-12.6c2.4-23.4-13.6-84.2-44.2-168.6
		c-7.2-5-14.3-9.7-21.2-13.9C3646.6,921.3,3622.2,912,3605.5,912z M3242.5,743.2c35.5,6.5,58.9,18.9,76.5,40
		c19.6,23.5,30.9,56.5,46.7,102.2c14.8,42.8,33.1,96,65.4,162.3c3.5,7.3,7.1,14.3,10.7,21.2c8.8-67.5,8.1-158.5-38.1-229.3
		c-35.9-54.9-78.1-88.2-122.3-96.1C3265.7,740.6,3252.3,741.5,3242.5,743.2z M3134.2,724.2c-16.8,0-36,2.6-53,8.1
		c-25,8-39.4,20.3-39.4,33.6c0,18.4,2.2,33.6,6.7,45.5c62.8-12.9,110.8-39.1,125.7-59.2c7.6-10.2,4.2-14.9,3.1-16.4
		C3172,728.2,3154.8,724.2,3134.2,724.2z M3021.5,408.7c-47.4,28.5-89.8,60.6-118.9,82.6c-29.3,22.2-66.1,68.3-96,120.5
		c-31,53.9-48.4,103.1-46.5,131.7c0.8,11.7,4.7,19.6,11.7,23.7c9.6,5.5,19.1,10.4,28.6,14.9c4.3-62.5,35.9-124.6,168.6-276.6
		c24.5-28.1,40.9-51.6,48.7-70C3021.2,426.9,3024.3,416.2,3021.5,408.7z"/>
</g>
</svg>
