<?xml version="1.0" encoding="utf-8"?>
<!-- Generator: Adobe Illustrator 26.5.0, SVG Export Plug-In . SVG Version: 6.00 Build 0)  -->
<svg version="1.1" id="Layer_2" xmlns="http://www.w3.org/2000/svg" xmlns:xlink="http://www.w3.org/1999/xlink" x="0px" y="0px"
	 viewBox="0 0 6000 4000" style="enable-background:new 0 0 6000 4000;" xml:space="preserve">
<style type="text/css">
	.st0{fill:#46FFF1;stroke:#46FFF1;stroke-width:4;stroke-miterlimit:10;}
</style>
<g>
	<path class="st0" d="M6000,3657.7H4434.5c-2,0-3.6-1.4-3.9-3.4c-0.3-1.9,0.8-3.8,2.7-4.4c0.4-0.1,36.2-12.3,71.6-41.8
		c47.1-39.4,71-89.2,71-148.1c0-49.8-29.3-97.2-84.8-136.8c-27.7,38.2-64.4,72.6-109.5,102.4c-60.4,40-137.5,72.9-229.1,97.9
		c-104.3,28.5-230.2,47.4-374.1,56.3c-171.3,10.6-316.3,8.5-419.2-6c-50.1-7.1-89.8-17-117.8-29.5c-4.4-2-8.6-4-12.4-6.1
		c-42.9,8.5-83,14.1-120.1,16.8c-17,1.2-33.3,1.9-48.9,1.9c-126.3,0-208.1-40.6-243.6-120.9c-0.9-2.1-1.8-4.3-2.7-6.5
		c-54.2,14.3-104.9,19.5-142.8,7.6c-23-7.2-42-18.2-56.6-32.7c-13.6-13.5-23.3-30.1-28.9-49.3c-9.5-32.2-7.3-71.4,6.3-113.4
		c12.5-38.4,34.2-77.4,61.2-109.7c90.3-108.2,265.5-209.9,362-260.8c140.3-74.1,287.4-133.9,374.9-152.3c17.9-3.8,32.6-5.8,44.8-6.5
		c0.2-27.5,7.4-58.5,14.3-88.8c8.6-37.4,16.7-72.7,10.5-96.2c-5.4-20.6-14.5-39.2-23.3-57.2c-7.4-15.1-14.5-29.7-19.3-45
		c-31.7,19.5-65.3,36.8-99.1,50.9c-5.5,2.3-10.9,4.5-16.3,6.5c13.2,28.3,19.3,63.4,9.5,101.7c-9.2,35.7-31,68.2-64.9,96.6
		c-38.7,32.5-92.4,58.7-159.7,78.1c-131.2,37.8-359.7,69.1-611.2,83.9c-56.6,3.3-113.6,5.7-169.7,7.2c-1.8,8.3-3.5,16.8-5.2,25.6
		c22.3,5.7,44.7,28.9,65.7,68c23.5,44,42.9,104.8,54.6,171.3c15.3,87.1,12.7,193.8-7.2,292.7c-8.7,43.3-20,81.1-32.8,109.4
		c-13.6,30.2-27.7,47.1-41.8,50.4c-6.2,1.4-15.7,0.8-25.1-10.6c-7.3-8.8-13.8-23-19.3-42.2c-12.6-43.9-21.7-109.6-26.3-190
		c-4.6-80.1-4.2-167.2,1-251.7c4.3-69.7,11.8-134.6,22-190.7c-0.9,0-1.8,0-2.6,0c-19.9,0.7-38.5,20.5-53.9,57.1
		c-18,42.9-31.4,107.8-39.9,192.8c-11.7,117.3-6,209.6-1.3,283.8c5.8,92.3,9.6,153.2-26.3,191.4c-33.7,35.8-102.5,50.5-237.4,50.5H0
		v-8h1929.2c132.5,0,199.6-13.9,231.6-47.9c33.5-35.7,29.8-95.2,24.1-185.4c-4.7-74.4-10.4-167.1,1.4-285.1
		c8.6-85.8,22.2-151.5,40.5-195.1c16.9-40.3,37.4-61.1,60.9-62c1.5-0.1,2.9,0,4.4,0.1c1.6-8.3,3.2-16.3,4.9-24.2
		c-66.5,1.6-131.7,1.9-193.5,0.8c-127.3-2.3-239.6-10.1-333.6-23.4c-172.4-24.3-282.1-76.8-343.7-116.5
		c-36.3-23.4-66.7-49.4-88.2-75.4c-19.9-24.1-31.8-47.7-34.3-68.1c-3-24,7-41.9,28-50.4c23.2-9.5,61.6-15.8,113.1-18.8
		c-6.7-11.6-13.6-24.1-20.7-37.4c-40.2-75.8-85.4-179.6-134.6-308.4c-87.6-229.7-166.8-484-206.2-615.1
		c-5.8-19.4-1.7-40.4,11.1-56.2c12.8-15.8,32.4-24.2,52.7-22.5l815.6,67.6c41.5,3.4,76.6,32.8,87.3,73
		c49.4,185.7,157.3,595.1,180.3,719.7c5.7,0,11.4,0.1,17.2,0.2c77.2,1.5,161.8,8.8,244.5,21.2c154.4,23,283.6,60.6,314.4,91.3
		c6.1,6.1,8.4,12.7,7,19.7c-6.1,29.3-81.2,58.9-176.2,96.4c-98.6,38.9-210.3,82.9-262.3,134.9c-27.4,27.4-50.5,82.3-67.8,158.7
		c304.7-8.1,614.1-43.7,776.9-90.6c156.6-45.1,205.6-116.8,219-169c9.4-36.4,3.4-69.9-9.2-96.8c-66.1,24.5-120.3,31-147.7,17.3
		c-32-16-60.2-80.7-80.2-140.3c-23.9-5-48.4-9.5-72.6-14c-25.6-4.7-52.1-9.6-77.2-15c-12.3-2.6-22-5.6-29.1-9.1
		c-34.6,13.9-78.1,27.1-113.6,24.2c-22.5-1.8-39.2-10.1-49.5-24.5c-69.8-97.2-98-303.8-116.4-493c-2.1-21.7-3.6-40.9-4.9-57.9
		c-4.4-56-7-89.8-24.1-118c-10.9-18-21.1-21.9-35.3-27.3c-13.7-5.2-30.8-11.8-52.9-33.9c-24.8-24.8-17.2-46.7-11.6-62.7
		c5-14.4,7.6-21.6-8.5-27.8c-26.2-10.1-21.5-30.7-17.8-47.3c3.2-14.3,4.8-23.3-4.2-28.3c-17.7-9.8-21.3-37.9-14.5-58.5
		c0.1-0.4,0.3-0.8,0.4-1.2c-5.8-0.7-11.6-1.7-17.3-3.2c-27.2-7-39.7-33.6-36-55.3c3-17.8,18.5-37.6,52.1-34.7
		c7,0.6,24.6,0.5,48.5-0.3c-1.3-14.1-1.5-24.4-0.2-29c1.9-6.9,11.5-13.4,29.3-19.7c33.3-11.8,89.4-21.2,142.8-23.9
		c36.4-1.8,101.7-1.8,130.1,18.5c8.1,5.8,8.2,11.3,6.9,14.9c-2.2,5.8-10.6,14.7-58.6,23.9c-28.4,5.5-66.6,10.4-113.4,14.6
		c-45.6,4.1-92.4,6.9-128.1,8.3c3.8,34.6,13.1,90.5,26.7,152.9c10.3,47.2,21,88.2,31,118.6c15.7,47.7,25.4,56.3,28.9,57.8
		c19.2,8.2,52.5,6.9,79.6,3.9c-0.2,0-0.4,0-0.6,0c-42.7-3.1-50.8-10.9-53.1-16.4c-1.4-3.2-1.7-8.4,4.7-14.8
		c16.8-16.8,68.3-23.3,89.6-25.3c33.8-3.2,75.9-3.1,93.5,4.2c6.2,2.6,9.4,6.1,9.4,10.5c0,10.9-12.7,21-38.9,30.7
		c-13.4,5-26.6,8.4-33,10c13.8,61.7,66,204.5,109.3,312.8c1-5.2,2-10.3,3.2-15.3c6.4-27,35.1-145.8,77-282.1
		c-36.9-11.8-104.1-77.3-104.9-78.1c-15.3-15.3-65.4-30-91.8-18.7c-8.4,3.6-15.6,7.7-22.5,11.7c-16,9.2-29.8,17.2-46.6,9.8
		c-11.1-4.9-13.4-11.4-13.4-16.1c0-10.5,11.8-21.5,32.3-30.3c10.6-4.5,17.7-11.2,24.6-17.7c10.6-10,21.7-20.3,44.3-20.3
		c15.2,0,27.4,3.2,36.3,5.5c4.9,1.3,11.6,3,12.9,2c0.2-0.1,0.6-1,0.6-3.5c0-2.2-3.4-6.1-13.1-10.1c-23.4-9.7-59.4-11.4-67.6-3.2
		c-1.1,1.1-2.3,2.3-3.7,3.8c-19.5,19.7-60,60.6-86.6,60.6c-12.6,0-21.5-6.1-24-16.3c-3.3-13.2,5.9-28.5,22.2-37
		c13.7-7.2,26.2-22.5,38.3-37.4c4.1-5,8.1-9.9,12-14.3c-4.3,0-8.8,0-13.5,0c-8.4,0-16.5,5.4-25.1,11.2c-10.4,7-21.8,14.7-36.3,14.7
		c-5.2,0-10.7-1-16.7-3.3c-9.4-3.6-11.6-9.3-11.8-13.4c-1.3-26.2,78.1-66.2,81.5-67.9c19.1-9.5,52.2-5,81.4-1
		c17.4,2.4,39,5.4,42.6,1.7c3.2-3.2,4.1-7.5,2.4-11.7c-3-7.3-14.4-15.1-37.2-15.1c-29.3,0-45.4,4.6-67.7,11
		c-6.7,1.9-14.3,4.1-22.8,6.3c-23.9,6.2-40.4-5.7-47.3-17.8c-6.4-11.2-5.7-23.2,1.8-30.6c8.7-8.7,15.5-7.3,22.6-5.8
		c7.1,1.5,15,3.2,29.8-3.2c31.2-13.6,103.1-25.9,120-25.9c18.4,0,65.2,33.9,83.6,52.3c8.2,8.2,16.4,9.4,25.8,10.8
		c10.2,1.5,21.7,3.1,33.4,14.8c8.2,8.2,23.9,21.5,42.1,36.9c14.1,11.9,29.8,25.3,45.7,39.3c12.9-18.3,27.2-34.2,43.1-47.6
		c34.2-29.1,69.8-42.6,101.1-54.4c2.9-1.1,5.8-2.2,8.7-3.3c34.6-13.3,56.2-15.6,67.9-7.3c11.4,8.1,10.9,23.6,10.4,38.7
		c-0.1,2.9-0.2,5.8-0.2,8.7c0,3-0.2,6.6-0.4,10.7c-1.1,22.1-3,59.1,20.2,78.7c17.2,14.6,46,17.6,85.6,8.9
		c64.9-14.2,93.2-38.7,105.5-56.8c6-8.9,8.9-17.1,10.2-23.5c-19.5,22.6-46.9,41-78.5,52.5c-33.1,12.1-66.8,14.8-90.2,7.3
		c-20.8-6.7-32.2-21-32.2-40.2c0-65-26.4-146.3-61.8-157.6c-11-3.5-41,8.8-75.6,23.1c-37.3,15.4-83.7,34.6-129.2,43.7
		c-18.1,3.6-34.7,5.5-50.1,5.5c-30.6,0-56-7.2-77.1-21.7c-20.3-14-31.7-29.3-34.8-46.8c-5.4-30.7,16.1-60.8,36.9-89.9
		c21.3-29.8,39.7-55.6,25.2-75.5c-1.6-2.2-3.1-4.3-4.7-6.4c-18.4-25.3-34.4-47.1-36.7-71.7c-2.5-26.6,11.6-54.3,44.5-87.1
		c36.6-36.6,30.4-68.4,21-116.6c-8.5-43.4-19-97.5-1.9-176.1c11.8-54,33.4-101.9,64.2-142.6c28.8-38,65.1-68.7,107.7-91.4
		c95.5-50.9,215.8-56.2,321.8-14.2c44.3,17.5,71.9,38.7,82.3,62.9c22.8-1.6,49.2,8.3,78.7,29.5c94.1,67.6,90.7,179.2,88.3,260.7
		c-1,32.3-1.8,60.2,3.4,79.2c7.5,27.2,26.7,55,51,90.3c35.7,51.7,80.1,116.1,109.1,211c8.1,26.6,5.2,54.5-8.6,83.2
		c-10.9,22.7-28.4,45.2-52,67.3c56.2,18.7,101.1,43.6,137,76.2c52.3,47.5,85.5,111.7,98.7,190.9c10,60,12.4,127.4,7.3,205.1
		c19.1-18,41-35.4,65.8-51.1c50.1-31.7,106.2-52.6,166.9-62.2c71-11.2,149.3-7,232.7,12.6c87.9,20.6,162.9,57.3,223.1,109
		c47,40.4,84.8,90.5,110.1,145.7c17.2-16.9,35.6-26,53-24.5c17.6,1.5,33.1,13.9,44.7,35.7c12.6,23.7,21,58.5,24.9,103.3
		c8.5,96.8-11.6,241.2-56.5,406.6c-37.9,139.9-89.7,280-135,365.5c-90.3,170.2-147.1,281.7-177.2,424.1
		c-9,42.7-24.4,80.6-47.1,115.8c-2,3-4,6.1-6.1,9.1c57.7,41.2,88.2,90.8,88.2,143.4c0,33.8-7.8,65.3-23.2,93.5
		c-12.3,22.5-29.4,43-50.9,60.9c-20.7,17.2-41.1,28.6-55.3,35.3H6000V3657.7z M3241.4,3535.4c1,0.5,2,0.9,3.1,1.4
		c27.3,12.2,66.3,21.9,115.7,28.9c102.4,14.4,246.7,16.5,417.6,6c269.4-16.6,471.1-68,599.4-152.8c44.7-29.5,80.4-62.8,107.5-100.2
		c-26.8-18.2-58.9-34.5-95.2-48.4c-18.8,29.7-40.7,54.9-65.3,74.5c-35.8,28.5-78.6,44.3-134.8,49.5c-50.3,4.7-107.3,0.6-167.5-3.9
		c-133.9-9.8-285.7-20.9-463,47.5C3440.7,3483.3,3334.6,3516,3241.4,3535.4z M2298.4,2883.3c-10,55-17.4,118.9-21.8,189.9
		c-10.5,170.6-0.2,351.1,25,439c9.6,33.4,22,50.2,34.9,47.2c11.2-2.6,24.2-18.9,36.4-45.9c12.5-27.7,23.7-64.9,32.2-107.6
		c19.7-98,22.3-203.6,7.1-289.8C2390.3,2990.9,2342.8,2895.3,2298.4,2883.3z M2821.3,3427.1c0.7,1.8,1.5,3.6,2.2,5.3
		c38.3,86.8,134,125.3,284.5,114.3c34.3-2.5,71.2-7.5,110.5-15c-15.2-10.3-24.2-21.9-26.7-34.8c-11.2-56.1,99.8-126,321-202.3
		c99.2-34.2,201.4-59.1,303.5-73.9c95-13.7,188.5-18.6,278-14.5c84.8,3.9,163.2,15.7,232.8,35c20.7,5.8,40.3,12.1,58.8,19
		c92.6-152.7,92.4-405.6,10-543.7c-97.7-163.7-142-214.2-234.9-307.1c-21.7-21.7-44.6-41.1-66.6-59.9
		c-71.2-60.5-138.5-117.6-155.1-240c-3.3-24.6,5.3-74.4,16.2-137.5c11.3-65.6,24.9-143.9,31.4-225.7
		c-43.2,44.7-70.9,91.7-87.2,124.9c-23.9,49.1-78.8,128.3-154.4,223.1c-69.6,87.2-148,176.1-209.6,237.7
		c-31.8,31.8-70.4,62-112.3,88.5c4.6,15.5,11.9,30.4,19.5,45.8c9,18.3,18.2,37.3,23.9,58.7c6.7,25.3-1.7,61.6-10.5,100
		c-6.8,29.8-13.8,60.2-14.1,86.7c35.6-0.6,44.9,11.2,46.9,20.1c3.1,13.7-9.9,28.1-23.1,31.4c-10.5,2.6-23.4-1.6-28.5-20.8
		c-1.8-7-2.8-14.5-3.2-22.3c-11.8,0.7-26.1,2.7-43.3,6.3c-86.8,18.2-233.2,77.7-372.8,151.5c-165.6,87.5-293.3,179.5-359.6,258.9
		c-47.6,57.1-86.5,145.9-66,215.7c11.1,37.6,38.1,63.4,80.2,76.6c33,10.3,79.2,7.8,137.7-7.5c-10-29.8-10.4-61-1.2-92.7
		c10-34.9,31.6-70.6,64.2-106.3c61.8-67.7,163.1-134.8,292.9-194.2c58.6-26.8,107.5-41,145.2-42.1c42.3-1.2,61.1,14.4,69.4,27.7
		c11.1,17.7,11,42.4-0.3,69.7c-11,26.6-31.6,53.3-58.1,75.2c-57.1,47.1-181.1,127.7-307.7,190.4
		C2956.5,3378.5,2886.6,3409,2821.3,3427.1z M4031.8,3212.8c-168.6,0-345.7,30.6-516.3,89.4c-111.1,38.3-194.7,75.2-248.5,109.6
		c-48.7,31.1-71.9,60-67.3,83.6c2.5,12.5,12.7,23.9,30.4,34.1c95.1-19,204.1-52.2,325.7-99.2c79.7-30.8,161.9-48.3,251.2-53.5
		c77.8-4.6,150.8,0.8,215.2,5.5c123.6,9,221.3,16.2,296.8-43.9c24.1-19.2,45-43.4,62.7-71.1c-79.8-29.5-179.2-48.1-287.6-53.1
		C4073.5,3213.3,4052.7,3212.8,4031.8,3212.8z M3316.5,2994.3c-1.4,0-2.9,0-4.4,0.1c-36.7,1.1-84.5,15-142.1,41.4
		c-262.4,120-392.2,262.4-351.5,383.9c1.1-0.3,2.2-0.6,3.3-0.9c54.8-15.4,118.6-41.2,189.8-76.5c126-62.5,249.4-142.6,306.2-189.5
		c52.1-43,77-102.1,56.7-134.5C3364.7,3002.5,3344.7,2994.3,3316.5,2994.3z M4393.6,3263.1c36.5,14.1,68.4,30.5,95.5,48.9
		c25.2-36.6,42.3-77.1,51.8-122c30.3-143.4,87.4-255.4,178-426.2c88.1-166.1,209-557,190.6-767.7c-3.8-43.8-11.9-77.5-24-100.2
		c-10.4-19.6-23.3-30.2-38.3-31.5c-15.3-1.3-32.3,7.2-48.9,24.3c1.2,2.7,2.3,5.3,3.4,8c20,49,30.1,100.8,29.2,149.8
		c-0.8,45.8-11.3,86.9-29.8,115.9c-23.3,36.7-43.4,51.7-59.7,44.5c-33.9-14.9-30.9-121.7-6.8-212.1c12-44.8,31.8-82.8,54.2-107.6
		c-35.4-78.9-122.8-204.8-329-253.1c-231.8-54.3-377.2,18.5-464.3,103.8c-0.5,7.3-1.1,14.8-1.8,22.3c-7,78.3-19.9,153.2-30.3,213.4
		c-10.8,62.4-19.3,111.7-16.1,135.1c16.2,119.3,82.3,175.5,152.3,234.9c22.2,18.9,45.2,38.3,67.1,60.3
		c93.4,93.4,138,144.2,236.1,308.7c24.4,40.8,42.6,93.4,52.6,151.9c9.8,57.1,11.8,119.1,5.8,179.1
		C4452.8,3128.6,4429,3204.2,4393.6,3263.1z M1449.2,2506c-52.5,2.8-91.5,9-114.6,18.4c-17.6,7.2-25.6,21.7-23.1,42
		c4,32.1,37.3,85.2,118.9,137.8c61,39.3,169.5,91.2,340.5,115.3c148.8,21,337.1,27.1,527.8,22.3c0.7-3.1,1.4-6.1,2.1-9.1
		c17.7-75.6,40.7-128,68.3-155.5c53.1-53.1,165.7-97.5,265-136.7c85.4-33.7,166.1-65.5,171.3-90.6c0.9-4.3-0.7-8.3-4.8-12.5
		c-29.2-29.2-159.5-66.6-309.9-89.1c-90-13.4-178.2-20.5-259.1-21.2c1.9,11.2,2.9,19.4,2.9,24.1c0,17.1-23.6,32.8-72.2,47.9
		c-38.7,12-92.4,23.5-159.5,34.1c-116.5,18.4-248.3,29.6-291.6,29.6c-26.4,0-40.2-4.7-41.1-13.9c-0.7-6.6,5.4-13.3,19-21.1
		c13.1-7.5,32.8-15.9,58.8-24.7c60.2-20.6,152.4-43.6,266.7-66.6c59.2-11.9,128.9-17.8,207.6-17.5
		c-24.4-130.2-141.3-572.4-179.9-717.6c-9.8-37-42.1-63.9-80.2-67.1l-815.6-67.6c-17.8-1.5-34.5,5.6-45.8,19.5
		c-11.3,13.9-14.8,31.7-9.6,48.8c39.3,131,118.4,385.1,206,614.5c49.1,128.6,94.2,232,134.2,307.5c7.7,14.6,15.3,28.1,22.6,40.7
		c26.3-1.3,55.9-1.7,88.4-1.3c91.6,1.1,204.7,9.1,318.6,22.5c191.2,22.5,432.4,66.7,483,117.4c11.5,11.5,10,20.2,6.7,25.5
		c-9.6,15.4-49.3,24.2-121.4,27.1c-61.4,2.4-143,0.2-236-6.4c-186.9-13.4-369.8-40.7-444.6-66.4
		C1519.8,2606.2,1487.2,2570.1,1449.2,2506z M3442.4,2719.9c0.3,7.2,1.3,14.1,2.9,20.6c3.1,11.9,9.8,17.3,18.8,15.1
		c10.4-2.5,19.1-13.6,17.2-21.8C3479.6,2725.7,3468.1,2719.5,3442.4,2719.9z M1458.3,2505.6c35.7,59.4,66.8,94,92.7,102.9
		c74.3,25.5,256.3,52.7,442.6,66c92.7,6.6,174,8.9,235.1,6.4c89.5-3.6,110.4-16.2,114.9-23.3c1-1.5,3.9-6.2-5.5-15.6
		c-20.6-20.6-80.1-42.8-172.2-64.2c-83.9-19.5-192.6-37.6-306.1-50.9c-113.6-13.4-226.4-21.3-317.7-22.4
		C1511.4,2504.1,1483.4,2504.5,1458.3,2505.6z M3074.8,2364.1c24.8,72.7,51.1,119.4,74.7,131.2c24.9,12.5,77.5,5.8,140.5-17.3
		c-7.1-13.3-15.9-24.8-24.9-33.8C3223.5,2402.6,3152.2,2380.7,3074.8,2364.1z M3071.9,2355.3c80.4,17,155,39.4,198.9,83.2
		c9.8,9.8,19.2,22.2,26.8,36.7c5.5-2.1,11.1-4.3,16.8-6.7c34.1-14.2,67.9-31.7,99.9-51.5c-2.3-9-3.6-18.3-3.6-28.1
		c0-36.6,56.4-87.4,116.1-141.2c23.1-20.8,46.9-42.3,68-63.4c36.9-36.9,112.9-132.7,180.9-237.3c81.1-124.7,129.2-228.3,135.4-291.7
		c14-141-21.4-229.9-108.1-271.8c-39.5-19.1-96.2-18.2-151.6,2.3c-58.4,21.7-106.7,61.9-132.4,110.3c-25.6,48.1-49.4,121-72.5,191.4
		c-27.6,84.3-56.1,171.5-87.9,216.7c-29.7,42.1-52.9,83.3-67.2,119.1c-3.5,8.9-6.5,17.4-8.9,25.5c32,70,60.6,135.1,60.6,176
		c0,8.4-0.9,18.1-7.5,19.1c-4.9,0.8-10-3.8-17-15.4c-5-8.3-10.9-20-17.6-34.8c-12.6-28.2-24.6-60.2-30.3-78
		c-5.5-16.9-4.2-39.5,3.3-66.2c-1.8-4-3.7-8-5.5-12c-11.9-25.9-24.2-52.7-35.3-78.8c-27.3-64.1-48.3-164-65.2-244.3
		c-9.4-44.9-17.6-83.6-24.1-101.7c-17.5-48.7-53.5-91.1-102.3-139.8c-12.4-12.4-26-25-39.7-37.2c-15.7,23.8-30.3,53.4-43,90.7
		c-11.2,32.6-21.7,65.3-31.6,97.1c39.9,0.1,64.5,21.5,71.3,61.9c8,48,11.6,211.6,11.6,343.3c0,64.1,17.7,172.1,44.1,268.8
		C3060.2,2318,3066,2337.4,3071.9,2355.3z M2218.3,2327.1c-75.9,0-144.8,5.7-202.3,17.3c-114,22.9-205.8,45.8-265.7,66.3
		c-72.7,24.9-72.4,37-72.3,37.5c0.2,1.7,6.6,6.7,33.2,6.7c43,0,174.3-11.2,290.3-29.6c203.1-32,225-62.5,225-74.1
		c0-4.6-1.1-12.8-3-24.1C2221.8,2327.1,2220.1,2327.1,2218.3,2327.1z M3736.3,1361.7c26.1,0,50.2,4.8,70.2,14.5
		c43.6,21.1,75.2,54.4,93.9,99.1c19.6,46.7,25.9,107.5,18.6,180.7c-8.2,82.9-78.9,206.3-136.7,295.3
		c-68.3,105.1-144.8,201.4-182,238.6c-21.3,21.3-45.2,42.8-68.3,63.7c-58.4,52.6-113.5,102.3-113.5,135.3c0,8.1,1,16,2.8,23.6
		c40.6-25.8,77.9-55.2,108.8-86c125.4-125.4,311-353.1,362.5-458.7c15.6-32.1,45.7-83.8,95.2-132.8c5.1-70.4,4.7-143-6.8-212
		c-22.1-132.6-98.9-218.4-234.6-262.3c-0.3,0.3-0.6,0.6-1,0.8c-37.7,33.2-88.1,63.2-138,82.3c-49.6,19-90.4,24.3-112.2,14.5
		c-11.5-5.2-17.5-14.6-17.5-27.1c0-27.2,11.6-49.6,34.5-66.3c24.7-18,61.2-28.5,105.7-30.3c41-1.6,85.8,4.4,126.5,17.1
		c53.6-48.7,75.5-100.2,61.7-145.3c-28.6-93.7-72.6-157.5-108-208.8c-24.8-35.9-44.3-64.2-52.1-92.7c-5.5-20.1-4.7-48.6-3.7-81.6
		c2.4-79.7,5.7-188.8-85-254c-27-19.4-50.9-28.8-71.3-28.1c0.6,2.2,1.1,4.5,1.4,6.8c3.6,25.5-10.9,52.2-40.7,75.1
		c-11.8,9-24.8,16.5-37.7,22.1c-5.7,30.4-6.8,59.1-6.8,75.6c0,44.9,20.3,71.5,40,97.2c21.2,27.7,41.3,53.9,31.2,98.8
		c-5.5,24.4-4.5,30.8-3.9,32.3c3.8-0.9,14.5-11.8,22.3-19.8c12.1-12.3,27.1-27.6,41.6-35.8c13.8-7.8,28.3-6.4,39.8,3.8
		c11.3,10.1,18.9,28.1,20.9,49.5c2.1,23.7-2.5,49.8-13.3,75.5c-22.6,53.3-47.2,68.4-63.9,71.7c-13.9,2.7-27.7-1.6-39.2-12.3
		c-19.7,52.2-78.6,141.2-142,181.9c-51.1,32.8-106.7,43.3-144.3,46.4c-41.7,3.4-83.7-1-107-11.1c-34.1-14.8-40.1-60.2-44.5-93.3
		c-1.1-8.4-2.2-16.3-3.5-22.6c-2-9.4-9.2-25.7-17.4-44.6c-18.2-41.5-43.1-98.5-36.4-134.6c4.7-25.5,15.6-45.5,24.4-61.6
		c8.7-15.9,15.6-28.5,12-38.6l-0.6-1.6c-8.7-24.5-23.1-65.5,0.2-74.8c6.3-2.5,11.1-24.8,15.7-46.4c8-37.3,19-88.3,48.9-118.2
		c37.6-37.6,65.9-25.6,95.8-12.9c10.9,4.6,22.1,9.4,34.3,11.9c18.7,3.8,34.3-3,50.8-10.1c21.7-9.5,46.3-20.2,80.5-5.8
		c13.1,5.5,34.9,2.6,57.3-6.4c9.1-44.8,26.9-84,56.7-99.3c5.2-2.7,10.6-4.6,16.3-5.7c-10.3-21.3-36.5-40.6-76.9-56.6
		c-103.9-41.1-221.7-36-315.1,13.8c-60.9,32.5-139.5,98.5-167.9,228.6c-16.8,77-6.4,130.2,1.9,172.9c9.5,48.9,16.4,84.2-23.2,123.8
		c-31,31-44.4,56.7-42.2,80.7c2.1,22.4,17.4,43.4,35.2,67.8c1.5,2.1,3.1,4.3,4.7,6.5c17.9,24.6-3,53.9-25.2,84.9
		c-19.8,27.8-40.3,56.5-35.5,83.9c2.7,15.2,13,28.8,31.4,41.5c29.8,20.5,69.4,25.4,121.1,15c44.7-9,90.7-28,127.7-43.3
		c39.1-16.1,67.3-27.8,81.1-23.4c39.7,12.8,67.4,97.3,67.4,165.3c0,19.9,14.5,28.7,26.7,32.6c45,14.5,128.2-11.8,167.9-67.2
		c1-1.3,2.6-1.9,4.2-1.6c1.6,0.4,2.8,1.7,3,3.3c0.1,0.8,2.4,18.9-12.1,40.6c-18.9,28.3-56.2,48.8-110.8,60.7
		c-42.2,9.2-73.3,5.6-92.5-10.6c-26.2-22.2-24.2-61.7-23-85.2c0.2-4,0.4-7.5,0.4-10.3c0-2.9,0.1-6,0.2-8.9c0.4-13.5,0.8-26.3-7-31.9
		c-9-6.4-29.3-3.7-60.4,8.2c-2.9,1.1-5.8,2.2-8.7,3.3c-44.5,16.8-96.7,36.6-141,99.9c14.1,12.5,28.1,25.5,40.8,38.2
		c49.5,49.5,86.1,92.7,104.1,142.8c6.7,18.6,14.5,55.7,24.4,102.8c16.8,79.9,37.7,179.4,64.7,242.8c11.1,26,23.4,52.8,35.2,78.7
		c0.6,1.3,1.2,2.6,1.8,3.8c13.1-39.7,38.4-87.3,74.5-138.4c31.1-44.2,59.5-130.8,86.9-214.6c23.1-70.8,47.1-144,73-192.7
		c26.7-50.1,76.5-91.7,136.7-114.1C3678.3,1367.2,3708.5,1361.7,3736.3,1361.7z M2897.3,2319.9c5.1,1.8,11.7,3.7,20.3,5.5
		c25.1,5.3,51.5,10.2,77,14.9c22.8,4.2,45.7,8.5,68.2,13.1c-6.3-19.5-11.7-38.1-16.1-54c-26.6-97.3-44.4-206.2-44.4-270.9
		c0-131.4-3.6-294.4-11.5-342c-6.1-36.6-27.5-55.2-63.6-55.2c-0.7,0-1.4,0-2.2-0.1c-42,136.4-70.7,255.2-77,282.3
		c-2.1,9.1-3.9,18.3-5.2,27.8c18.6,46,35,84.4,45.3,105.4c13.2,26.9,15.5,47.3,15.1,59.8c-0.5,16-5.9,28.1-14.4,32.4
		c-8.4,4.2-21.2,1.2-32.1-20c-22.7-44.1-30.9-113-22.2-176.4c-45.2-111.9-102.1-266.9-115.4-330.5c-0.4-2.1,0.9-4.2,3-4.7
		c28.9-6.4,69.5-21.1,69.5-33.8c0-0.3-0.8-1.6-4.4-3.1c-14-5.8-50.9-7.3-89.7-3.6c-42,4-74.5,12.8-84.7,23c-1.5,1.5-3.8,4.2-3,6
		c0.6,1.4,5.7,8.6,46.3,11.6c22.1,1.6,43.7,1.2,43.9,1.2c0,0,0.1,0,0.1,0c2,0,3.7,1.5,4,3.5c0.2,2-1.1,3.9-3.1,4.4
		c-3.6,0.8-89.1,18.9-127.5,2.5c-3.7-1.6-14.8-6.4-33.3-62.7c-10.1-30.7-20.9-72-31.2-119.4c-11.7-53.6-22.6-115.1-26.9-154.3
		c-24.5,0.8-42.7,1-50,0.3c-28.2-2.4-41,12.9-43.6,28c-3.1,18.1,7.3,40.3,30.1,46.2c6.4,1.6,12.7,2.7,18.8,3.3
		c6.9-12.4,17.9-18.6,30.6-16.8c17.4,2.5,20.9,6.4,22,9.5c0.8,2.3,0.3,4.9-1.6,6.9c-5.6,6.1-24.6,10-46.1,8.7
		c-0.5,1.1-0.8,2.2-1.1,3c-5.9,17.5-2.9,41.4,10.7,48.9c14.7,8.1,11.3,23.5,8.2,37c-3.7,16.3-6.9,30.4,12.9,38.1
		c23.3,9,18.2,23.7,13.2,37.9c-5.4,15.5-11.6,33.2,9.7,54.4c20.9,20.9,36.4,26.8,50.1,32c14.5,5.5,26.9,10.3,39.3,30.6
		c18.1,29.8,20.8,64.3,25.2,121.5c1.3,16.9,2.8,36.1,4.9,57.8c18.3,188.2,46.3,393.5,115,489.2c8.9,12.4,23.6,19.5,43.6,21.1
		c30.4,2.5,68.8-7.6,104.5-21.5c-4.1-3.4-6.2-7.2-6.4-11.4c-0.9-21.2,51.5-38.4,67.6-43.2c11.8-3.5,23.3-6.1,32.2-7.4
		c14.6-2.1,18.1,0.1,19.7,2.7c0.9,1.5,1.8,4.5-2.1,8.4c-9.8,9.8-45.8,31.5-86.7,49.5C2901,2318.3,2899.2,2319.1,2897.3,2319.9z
		 M2982.1,2264c-6.5,0-20.8,2.3-39.5,7.8c-24.3,7.2-44.9,16.5-55.2,24.9c-3.8,3.1-8,7.5-7.1,11.5c0.4,1.5,1.8,4.1,7.1,7.2
		C2931.5,2297.3,2970,2274.4,2982.1,2264z M3279.4,2061c-4.9,21.2-5.2,38.9-0.9,52.2c5.4,16.8,16.8,47.3,28.8,74.5
		c16.7,37.8,24.5,46,26.8,47.8c0.5-1.2,1.1-4.2,1.1-10.8C3335.2,2187.2,3309.4,2126.7,3279.4,2061z M4792.4,1895.1
		c-1.1,1.3-2.2,2.6-3.3,3.9c-19.8,24.6-36.4,59.4-46.7,97.7c-12.4,46.3-18.9,95.3-18.1,134.6c0.8,37.4,8.4,62.9,20.3,68.1
		c11.8,5.2,29.4-9.6,49.7-41.5c17.6-27.7,27.7-67.4,28.5-111.7c0.8-48-9.1-98.7-28.6-146.7C4793.6,1898.2,4793,1896.6,4792.4,1895.1
		z M2840.8,1957.9c-5.5,57.6,2.8,117.9,23.1,157.3c6.9,13.3,15.1,19.6,21.4,16.5c4.5-2.3,9.6-10.2,10-25.5
		c0.5-16.3-4.6-36.2-14.3-56C2871.4,2030.8,2857,1997.8,2840.8,1957.9z M2743.5,1520.8c11.2,0,21.9,1.9,29,3.6
		c19.4,4.6,36.9,12.8,45.5,21.4c18.8,18.8,73.5,67.3,101.5,76.1c10-32.2,20.7-65.3,32-98.3c12.4-36.3,27.2-67.3,44.5-93.4
		c-16-14.2-32-27.7-46.3-39.8c-19.1-16.2-34.1-29-42.6-37.4c-9.8-9.8-19-11.1-28.9-12.5c-9.9-1.4-20.2-2.9-30.3-13
		c-18.8-18.8-63.5-50-77.9-50c-16,0-87,12.3-116.8,25.2c-17.1,7.4-27.2,5.2-34.6,3.6c-6.4-1.4-9.6-2.1-15.2,3.6
		c-4.8,4.8-5,13.1-0.5,21c5.5,9.6,18.8,19.1,38.3,14c8.4-2.2,15.6-4.3,22.6-6.3c22.9-6.6,39.4-11.4,69.9-11.4
		c22.7,0,39.4,7.5,44.6,20.1c3,7.2,1.4,14.8-4.1,20.4c-6.2,6.2-22,4.3-49.4,0.6c-26.7-3.7-59.9-8.3-76.8,0.2
		c-37.5,18.8-77.7,47.2-77,60.3c0,1,0.2,3.8,6.7,6.4c19.1,7.3,32-1.4,45.7-10.6c9.2-6.2,18.7-12.6,29.5-12.6c7.5,0,14.5,0,21.2-0.1
		c5-4.8,10-8.5,15.1-10.4c20.8-7.8,81.5-12,94.4,0.9c1.8,1.8,2.4,4.1,1.5,6.2c-1.5,3.7-4.3,10.4-107.7,11.3
		c-5.4,5.5-11,12.4-16.8,19.5c-12.6,15.5-25.7,31.5-40.8,39.4c-15.2,8-20.1,20.1-18.1,28c1.6,6.5,7.5,10.2,16.3,10.2
		c23.3,0,65.1-42.3,80.9-58.3c1.4-1.4,2.7-2.7,3.8-3.8c12.3-12.3,54.1-7.7,76.3,1.5c11.9,4.9,18,10.8,18,17.5c0,4.7-1.2,7.9-3.7,9.8
		c-4.4,3.4-10.5,1.8-19.8-0.6c-8.5-2.2-20.1-5.2-34.3-5.2c-19.5,0-28.4,8.4-38.8,18.2c-7,6.6-15,14.1-26.9,19.2
		c-18.9,8.1-27.4,17.4-27.4,22.9c0,4.1,4.7,7,8.6,8.7c13.1,5.7,24.2-0.6,39.4-9.4c6.8-3.9,14.5-8.4,23.3-12.1
		C2725.5,1522,2734.7,1520.8,2743.5,1520.8z M2744,1402.3c-18.8,0-40.4,2.5-51.9,6.8c-1.7,0.6-3.5,1.6-5.3,2.8
		c61-0.8,81.5-3.7,88.3-5.6C2769.2,1403.5,2757.3,1402.3,2744,1402.3z M2446.5,1360.9c17.6,0.4,31.4-2.9,35.2-5.6
		c-1.5-0.9-5.5-2.5-14.9-3.9C2457.1,1350.1,2450.6,1355.1,2446.5,1360.9z M3632.3,1242.5c-47,0-89,9.8-115.1,29
		c-20.7,15.2-31.3,35.3-31.3,59.9c0,9.4,4.2,15.9,12.8,19.8c19.5,8.8,59.1,3.3,106-14.6c47.9-18.4,96.1-46.9,132.9-78.5
		C3702.5,1247.6,3666.1,1242.5,3632.3,1242.5z M2682.1,1209.2c-9.1,0-18.7,0.2-28.6,0.7c-51.9,2.6-108.4,12-140.5,23.4
		c-20.9,7.4-23.8,12.8-24.2,14.3c-1,3.6-0.8,12.9,0.5,26.6c35.5-1.4,82.4-4.2,128.2-8.3c146.7-13.3,163.5-28.9,165.1-33.4
		c0.7-1.9-2.2-4.3-4-5.6C2762.4,1215.4,2728,1209.2,2682.1,1209.2z M3135,545.8c-14.1,0-28.8,5.8-45.8,22.8
		c-28.2,28.2-38.9,77.9-46.7,114.2c-6.2,28.9-10.3,48.1-20.6,52.2c-16.2,6.5-2.8,44.3,4.4,64.7l0.6,1.6c4.7,13.4-2.9,27.4-12.6,45.1
		c-8.5,15.6-19.1,35-23.6,59.2c-6.2,33.7,18.1,89.4,35.9,130c8.4,19.3,15.7,35.9,17.9,46.1c1.4,6.6,2.5,14.6,3.6,23.2
		c4.2,31.2,9.9,74,39.8,87c16.9,7.3,54,14.4,103.2,10.4c36.7-3,90.9-13.2,140.6-45.1c65.5-42.1,122.9-133.7,140.1-181.5
		c-9.2-9.9-19.6-24-14.7-32.4c2.9-5,9.8-6.1,20.4-3.2c2.3,0.6,6.2,2.7,7.2,9.3c0.8,5.6-0.5,14-3.8,24.3c0.3,0.4,0.7,0.7,1.1,1.1
		c9.8,9.8,21.8,14,33.7,11.7c14.8-2.9,36.8-16.8,58-66.9c22.2-52.3,13.7-98.8-5.5-115.9c-9-8.1-19.6-9-30.6-2.8
		c-13.5,7.7-28.1,22.5-39.8,34.4c-15.5,15.7-24.8,25.3-31.9,21.4c-5.1-2.8-6.9-10.7,0-41.3c9.3-41.2-8.8-64.8-29.7-92.1
		c-19.5-25.5-41.7-54.4-41.7-102.1c0-23.5,1.8-48.4,6-72.1c-22.7,8.3-44.6,10.4-58.7,4.5c-31-13.1-53-3.5-74.2,5.7
		c-16.9,7.4-34.4,15-55.6,10.6c-12.9-2.7-24.5-7.6-35.8-12.3C3162,551.4,3148.8,545.8,3135,545.8z M3467.4,946.4
		c-2.2,0-3.2,0.5-3.3,0.8c-0.9,1.6,0.9,8.2,10.6,19.6c2-7,2.7-12.5,2.2-16.3c-0.3-1.7-0.7-2.6-1.4-2.8
		C3471.7,946.7,3469.2,946.4,3467.4,946.4z M3478.2,442.1c-5.5,0.9-10.7,2.7-15.6,5.2c-20.6,10.6-36.5,34.6-47.1,71.4
		c-1.6,5.6-3,11.2-4.3,16.8c10.7-5,21.3-11.4,30.9-18.8c27-20.8,40.8-45.4,37.7-67.6C3479.4,446.8,3478.9,444.5,3478.2,442.1z"/>
</g>
</svg>
