<?xml version="1.0" encoding="utf-8"?>
<!-- Generator: Adobe Illustrator 26.5.0, SVG Export Plug-In . SVG Version: 6.00 Build 0)  -->
<svg version="1.1" id="Layer_2" xmlns="http://www.w3.org/2000/svg" xmlns:xlink="http://www.w3.org/1999/xlink" x="0px" y="0px"
	 viewBox="0 0 6000 4000" style="enable-background:new 0 0 6000 4000;" xml:space="preserve">
<style type="text/css">
	.st0{fill:#46FFF1;stroke:#46FFF1;stroke-width:4;stroke-miterlimit:10;}
</style>
<g>
	<path class="st0" d="M6000,3783.5H4579.7c-1.7,0-3.2-1.1-3.8-2.7c-0.6-1.6,0-3.4,1.3-4.4c84.6-67.6,118.1-125.1,99.6-170.9
		c-5.1-12.6-14.2-24.5-27.1-35.6c-10.8,2.6-21.8,4.4-32.9,5.3l-1376.6,110.7c-4.7,0.4-9.5,0.6-14.2,0.6c-52.8,0-103.5-23.2-138-63.7
		c-30.3-35.6-45.5-80.8-43-127.5l64.6-1166.3c2.7-35.9,15.3-65.7,36.6-86.4c4.7-4.6,9.8-8.7,15.1-12.1c-5.7-64-12.2-116-17.9-151.7
		c-3.6-22.8-6.2-42.8-8.5-60.5c-3.6-28.1-6.4-50.1-11.6-68.5c-63.1,19.9-133.9,30-211.5,30c-103.8,0-196-27.3-273.9-81
		c-62.3-43-115.7-102.8-158.6-177.9c-73-127.7-90.7-257.1-90.9-258.4c-0.2-1.8,0.7-3.5,2.4-4.2c1.6-0.7,3.5-0.3,4.7,1.1
		c60.9,73.9,118.4,119.7,170.8,136c43.3,13.5,82.6,6.7,116.6-20.2c33.9-26.7,61.7-73.7,76.4-128.9c6.6-25,9.8-49.1,9.4-68.7
		c-16.3-11.6-31.4-24.3-45-37.8c-11.6-11.6-30.5-32.8-26.7-44.7c1.1-3.4,3.7-5.5,7.4-6.2c12-2,37,13,61.6,45.7
		c6.1,8.1,9.6,21.8,10.4,38.8c29.7,20.8,63.3,37.9,98.1,50c-3.4-10.8-4.2-21.1,0.1-29.1c7-13.2,25.5-16.9,55-11.1
		c39.9,7.8,69.4,25.6,89.9,54.5c14.6-3.3,27.8-8.4,39.1-15.3c16.7-10.2,34.5-28.3,52.8-53.3c-38.2,3.4-81.3,4.5-105.9-20.1
		c-26-26-36.2-52.9-26.1-68.6c8.8-13.6,30.6-15,59.9-3.9c33.5,12.7,72.9,7.3,107.7,2.6c6.6-0.9,12.8-1.8,18.8-2.5
		c3.5-7.2,7.1-14.6,10.6-22.2c34.2-74.1,62.1-159.7,71.3-218.1c11.6-74.1-4.9-104.2-18.1-128.5c-7.4-13.6-13.8-25.3-13.8-41.4
		c0-16.5,7.2-34,14.1-51c12.1-29.6,23.5-57.5,0.7-80.3c-17.9-17.9-17.8-45.9-17.6-75.7c-2.6-1.8-5.1-3.8-7.4-6.2
		c-51.5-51.5-79.8-120.1-64.2-135.7c7.9-7.9,22.3-1.7,42.6,18.6c36.5,36.5,37.4,79.9,37.1,118.8c9.6,5.1,20.6,5.4,32.3,0.9
		c35.5-13.9,75.7-72.5,78.7-143.2c1.8-42.9-10.2-122.1-110.6-171.3c-48.5-23.7-98.4-34.1-144.1-37.2c18,13.5,33.2,28.8,45.1,45.4
		c22.7,31.9,31.9,67.1,25.7,99.2c-5.2,27.4-21.1,50.6-45.9,67.1c-26.6,17.7-63,27.1-105.2,27.1c-40.9,0-72.7-3.5-94.6-10.4
		c-25.9-8.2-31.4-19.4-31.4-27.3c0-3,0.8-6.1,2.4-9.1c-25.4-3.3-50.8-8.2-75.3-14.8c-34.4-9.2-53.8-23.6-57.7-42.9
		c-3.9-19.7,9.8-42.8,38.7-65.1c54.9-42.3,157.9-78.2,266.2-78.2c1.4,0,2.8,0,4.1,0c-13.1-7.8-27.4-14.8-42.7-20.8
		c-147.8-58.8-357.8-104.3-581.4,92.4c35.4-5.7,70.1-6.8,103.5-3c81,9.2,153.1,47,203.1,106.5c44,52.4,68.2,118.6,68.2,186.3
		c-0.1,73-27.7,143.3-79.9,203.3c-39.7,45.7-32.8,133.6-26,218.6c7.5,94.7,15.3,192.6-38.6,241.6c-25,22.7-61.1,33.3-109.6,31.9
		c-4,5.7-8.4,11.1-13.3,16.2c-31.3,32.8-81.6,52.3-158.4,61.5c-143.3,17.1-165.3,24.1-337,78.2c-10.4,3.3-21.3,6.7-32.9,10.4
		c-32.3,10.2-60.1,22.7-83.2,37.4c6.9,11.2,7.1,30.3,0.2,53.3c-7.1,24-20.6,47.5-35.9,62.9c-10.2,10.2-21,13.7-29.9,9.7
		c-9.6-4.3-14.8-16.2-13.8-31.9c1.3-22.3,14.7-47.9,36.8-70.2c8.8-8.9,18.8-17.2,30-25c-11-5.5-31,2.2-57.6,22.3
		c-98.1,74.1-157.3,196.6-171.2,354.1c-13.7,155.3-89.9,578.8-125.1,748.5c-5.4,26-13.3,53.8-21.7,83.1
		c-23.7,82.9-50.6,176.8-27.5,263.7c26.6,100,115.5,174,271.7,226.1c40.5,13.5,78.6,24.4,114.6,33.2c-9.1-14.7-17.4-30.6-25-47.6
		c-30.4-68.3-47.1-151.4-47.1-234.2c0-59.9,22.9-161.8,49.4-279.8c40.6-180.5,86.6-385.2,62.8-498.5
		c-18.9-90.4-31.8-164.2-38.2-219.3c-10.9-94.1-0.3-111.4,8.6-116.2c10.9-5.9,23.2,6.4,27.3,10.5c31.3,31.3,59,128.7,70.7,248.2
		c13.7,140.7,4.1,288.6-27.2,416.5c-17.7,72.4-33.7,130.9-46.6,177.8c-37.3,136.3-48.6,177.5-4.3,196.5
		c3.7,1.6,375.4,160.4,483.5,160.4c48.9,0,114.8-40.3,172.9-75.8c62.5-38.3,111.9-68.5,133.1-47.3c17.4,17.4,48.8,24.2,82.1,31.4
		c36.7,8,74.7,16.2,98.3,39.8c17.9,17.9,33.1,39.2,47.7,59.9c20.6,28.9,40,56.3,60.5,62.7c11.7,3.7,20.2,14,22.7,27.5
		c2.9,15.5-2.5,31.2-13.6,40c-11.9,9.4-29.1,9.9-48.3,1.3c-16.6-7.4-36.6-30.5-57.9-54.9c-8.2-9.4-16.8-19.3-25.2-28.2
		c-2.9,4.8-6.5,9.6-10.7,14.4c7.3,4.7,13.1,10.5,17,17.3c7.7,13.4,7,29.1-2,42.2c-7.3,10.6-19.4,18.7-34.8,23.4
		c-2.9,0.9-5.9,1.6-8.9,2.2c8,14.3,10.6,30.5,7.2,44.1c-2.9,11.6-9.9,20.5-20.2,25.7c-11.3,5.7-25.9,6.7-43.3,2.8
		c-10.2-2.3-20.7-4.7-31.8-7.3c-38.7-9-78.8-18.4-113.9-21.7c-39.1-3.7-64.6,1-78,14.3c-17.1,17.1-49.1,23.6-87.8,17.9
		c-33.5-5-66.2-18.6-81.5-33.8c-6.8-6.8-27.1-2.3-57.7,4.5c-41.2,9.2-104.4,23.3-193.6,23.3c-62.7,0-138.4-7-228.4-27.5
		c30.9,44,69.1,74.7,112.6,90.1c68.4,24.2,135.2,42.8,198.9,56.9c86.5-33.9,221.6-46.9,309.5-52c160.9-9.2,340.1-1.3,399.4,17.7
		c14.3,4.6,20.9,9.6,20.9,16c0,5.7-3.9,11.3-11.7,16.8c-35.6,25.2-158.6,51.1-324.8,51.9c-91.7,0.5-185.7-6.6-279.2-21
		c-38.2-5.9-76-12.9-113.3-21.2c-32.2,12.8-54.3,27.5-66,43.9c-26.8,37.8-32.7,72.5-17.5,103.3c17.3,34.9,61.7,65.9,131.9,92.1
		c56.8,21.2,130.3,39.1,218.5,53.5c150.4,24.4,293.1,29.7,294.5,29.7c2.2,0.1,3.9,1.9,3.9,4.1c0,2.2-1.8,3.9-4,3.9H1708.8
		c-2,0-3.6-1.4-3.9-3.3c-0.3-1.9,0.8-3.8,2.6-4.4c55.8-19.1,100.7-46.3,130-78.7c26.3-29.1,38.2-60.9,33.4-89.4
		c-4-24.3-19.8-45-45.6-59.8c-28.5-16.4-68.8-25-116.5-25c-24.2,0-45.6,1.7-64.5,4.6c5.6,9.2,8.5,19.9,8.3,31
		c-0.7,28.8-22.2,54-57.6,67.3c-33.8,12.7-60.9,11.9-74.4-2.2c-8.3-8.7-9.8-21.3-4-34.8c8.1-19,28.8-36.7,58.1-49.8
		c16.2-7.3,34.8-12.9,55.3-17c-4.9-5-11-9.2-17.9-12.1c-16.2-6.9-35.8-7-56.7-0.3c-25.1,8.1-51.1,25.4-77.3,51.5
		c-36.1,36.1-50.6,71.1-42.9,103.9c16.6,71,131.1,110.4,132.3,110.8c1.9,0.6,3,2.5,2.7,4.4c-0.3,1.9-2,3.4-3.9,3.4H0v-8h1545.4
		c-11.3-4.9-26.4-12.2-42-21.7c-42.2-25.7-68.4-55.8-75.8-87.1c-8.3-35.7,6.8-73.1,45-111.3c27-27,54.1-45,80.5-53.5
		c22.8-7.3,44.4-7.1,62.3,0.5c9.6,4.1,17.8,10.3,24,17.8c21.5-3.6,44.8-5.4,69.5-5.4c49.1,0,90.7,9,120.5,26.1
		c27.9,16,45.1,38.7,49.5,65.4c5.2,31-7.4,65.1-35.4,96.1c-26.3,29.2-64.9,54.2-112.3,73.1h934c-50.9-4.5-113.4-11.5-177.3-21.8
		c-88.7-14.4-162.7-32.5-220-53.9c-72.2-26.9-118.1-59.3-136.3-96.1c-16.6-33.6-10.5-71.1,18.1-111.5c11.8-16.7,32.6-30.6,59-42.3
		c-64.7-14.8-127.9-33.1-189-54.7c-47.4-16.8-88.7-51-121.4-100.3c-38.5-9.2-79.6-20.8-123.3-35.4c-159-53-249.6-128.8-276.9-231.6
		c-23.7-89,3.6-184.1,27.6-268c8.4-29.2,16.3-56.8,21.6-82.5c35.2-169.5,111.3-592.6,125-747.6c6.9-78.6,24.9-148.9,53.5-208.8
		c29.5-61.8,70.1-112.6,120.9-151c39.6-29.9,59.6-28.7,69.7-20.7c23.9-15.4,52.7-28.5,86.1-39c11.6-3.6,22.5-7.1,32.9-10.4
		c172.3-54.3,194.4-61.3,338.4-78.5c74.9-8.9,123.7-27.7,153.6-59c3.4-3.5,6.5-7.2,9.5-11.1c-15.4-0.9-31.9-2.9-49.6-6.1
		c-56.3-10-99.6-22.7-132.6-38.9c-30.3-14.9-51.1-32.5-63.5-53.7c-16.1-27.5-16.2-57.8-9.4-89.8c-0.1,0-0.2,0.1-0.3,0.1
		c-34.5,14.4-69.3,20.2-106.3,17.9c-68.2-4.3-132.4-36.1-194.4-67c-27.3-13.6-54.2-26.9-80.9-37.8
		c-81.3,76.8-125.3,167.3-153.6,300.1c-20.3,95-45.5,213.3-105.2,299.3c-67.7,97.6-167.8,137.6-306.1,122.2
		c-70.9-7.9-129.9-32.5-175.4-73.3c-36.4-32.6-64.3-75.5-82.8-127.4c-31.5-88.2-25-173.3-24.9-174.2c0.2-2,1.8-3.6,3.8-3.7
		c2-0.1,3.8,1.3,4.1,3.3c15.7,92.2,70.1,154,153.3,174.1c91.7,22.1,202-12.2,251.1-78c31.4-42.1,40.3-94.9,49.7-150.8
		c16.2-96.3,34.6-205.5,173.1-292.5c46.5-29.2,96-38,151.2-26.8c20.2,4.1,40.2,10.5,60.2,18.4c24.3-22.5,52-44.1,84.2-65.6
		c-55.6-48-86.2-100.8-90.9-157C1881,720,1996.8,583.9,2235.8,439.9c51.9-31.3,104.1-53.5,155.2-66.1c6.8-1.7,13.5-3.2,20.2-4.5
		c23-20.8,46.3-39.5,69.8-56c61.9-43.3,127.2-72.4,194-86.5c57.3-12.1,117.5-13.4,179-4c49.6,7.6,100.6,22,156.1,44
		c20.3,8.1,38.8,17.7,55.4,28.7c54.3,2.2,109.4,13.9,159.8,38.5c104.5,51.2,117,134,115.1,178.8c-1.4,33-11.2,66.9-27.6,95.4
		c-15.6,27.1-36.1,47.1-56.2,54.9c-12.5,4.9-24.5,4.9-35.3,0.5c-0.2,27.4,0.5,50.9,15.3,65.7c26.5,26.5,13.6,58.3,1,89
		c-6.9,17-13.5,33.1-13.5,48c0,14.1,5.7,24.5,12.8,37.6c13.8,25.3,31,56.8,19,133.6c-9.4,59.9-37,144.3-71.9,220.2
		c-2.6,5.5-5.4,11.5-8.5,17.9c20.1-1.8,35.9-0.7,45.2,8.6c12.7,12.7,24,42.7,36,74.4c12.3,32.5,25,66.2,39,80.2
		c14.4,14.4,13.4,26.9,12.6,36c-0.9,10.2-1.4,15.8,17.7,22.1c25.9,8.6,23.3,24.7,20.9,38.8c-1.8,10.9-3.5,21.2,5.7,30.4
		c1.1,1.1,2.3,2.3,3.4,3.4c23.6,23.2,50.3,49.4-9.6,156c-22.6,40.3-35.1,73.5-39.2,107.8c10.2-9.9,19.3-19.7,27.4-29.3
		c70.3-82.9,86.1-166.7,86.2-167.5c0.2-1.1,0.8-2,1.7-2.6c0.9-0.6,2-0.8,3.1-0.6c1.3,0.3,33.1,7.5,72.6,36.8
		c23.1,17.1,44,38.3,62.2,62.9c22.6,30.7,41,66.9,54.6,107.6c19.5,58.1,42.2,163.9,60.8,283c3.1,19.6,6.3,41.3,9.6,64.8
		c16.2-1.8,33.1-2.7,50.9-2.7l970.8-7.9c58.6,0,113.9,25.6,151.8,70.1c37.9,44.5,54.3,103.2,45.1,160.9l-94.1,988.2
		c0,0.1,0,0.2,0,0.3c-7.5,46.8-30.9,90.3-65.7,122.4c-24.3,22.4-53.7,38.8-85.2,48c11.9,10.9,20.3,22.6,25.3,35
		c9.8,24.2,6.6,51.4-9.5,80.6c-15.6,28.3-43.7,59.4-83.7,92.4h1409V3783.5z M3162.1,2239.4c-23.1,16.6-41.3,46-44.5,90.1
		L3053,3495.7c-2.5,44.6,12.1,87.8,41.1,121.8c35.9,42.1,90.3,64.7,145.5,60.3l1376.6-110.7c8.7-0.7,17.2-1.9,25.6-3.6
		c-69.8-52-229.6-85.4-469.7-97.5c-255.2-12.9-548.3,1.5-721.8,17.7c-42.8,4-85.5-10.5-117-39.8c-31.5-29.3-49.1-70.8-48.2-113.8
		l2.1-121.8c-37.8-37.5-68.1-94.4-88.6-167.4c-23.6-83.9-33.5-186.9-27.9-290.2C3181.2,2554.9,3173.6,2372.4,3162.1,2239.4z
		 M1635.8,3528.8c-70.8,12.8-103.3,43.2-111.8,63c-4.5,10.5-3.6,19.7,2.5,26.1c11,11.5,35.6,11.6,65.8,0.2
		c32.2-12.1,51.8-34.5,52.4-59.9C1644.9,3547.6,1641.7,3537.4,1635.8,3528.8z M3959.9,3453.1c71.5,0,143.4,1.5,212.5,5
		c139.1,7,252.4,21.2,336.5,42.2c65,16.2,112.7,36.6,142.7,60.9c77.5-20.1,137.1-84,150.3-165.3l94.1-988.2c0-0.1,0-0.2,0-0.3
		c8.9-55.5-6.8-111.8-43.3-154.6c-36.4-42.8-89.5-67.3-145.7-67.3l-970.8,7.9c-17.4,0-34,0.9-49.8,2.6c13,94.9,26.1,217.8,31,350
		c6.1,164.9-2.4,304-25,413.6c-27.1,131.1-74.4,217.4-140.6,256.4c-45.4,26.7-88.4,41.7-127.7,44.5c-36.8,2.6-70.9-5.5-101.2-23.9
		c-9.6-5.9-18.9-12.8-27.8-20.7l-2,114.5c-0.8,40.7,15.8,80,45.6,107.7c29.8,27.7,70.2,41.5,110.8,37.7
		C3576.2,3464,3766.8,3453.1,3959.9,3453.1z M2235.9,3447.8c150.1,32,282.5,39.7,378.8,39.3c76.8-0.4,149.5-6.2,210.1-16.7
		c52.5-9.1,92.7-21.4,110.1-33.8c5.3-3.8,8.3-7.4,8.3-10.3c0,0-0.4-3.6-15.4-8.4c-51.1-16.3-217.2-27.5-396.5-17.3
		c-92.2,5.3-173.9,15.7-236.3,30.2C2272.9,3436.1,2253.2,3441.7,2235.9,3447.8z M2377.8,3285.9c7.8,0,13.5,1.7,17.5,5.7
		c27.3,27.3,122.7,51.3,158,15.9c33.4-33.4,121.6-12.9,199.3,5.3c11.1,2.6,21.5,5,31.7,7.3c28.6,6.4,48.8-2.1,54-22.6
		c3.1-12.1,0.4-26.9-7.2-39.7c-0.2-0.4-0.4-0.7-0.7-1.1c-13.1,1.6-27.5,1.1-43.1-1.5c-24.6-4.1-38.5-10.2-41.2-18.4
		c-1.2-3.5-0.2-7.1,2.6-10.1c6.9-7.2,26.8-11.5,46.8-5.8c16.7,4.8,29.8,14.8,38.6,27c21.1-3.6,35-12.9,41.8-22.8
		c7.3-10.6,7.9-22.8,1.7-33.6c-3.5-6.1-8.9-11.3-15.7-15.5c-22.3,20.2-60.4,14.7-79.6,4.3c-10.6-5.7-11.9-11.1-11.2-14.6
		c1.1-5.3,7.3-8.4,18.8-9.4c28.4-2.4,52.9,1.2,70.6,9.9c5.1-5.4,9.1-10.9,12.1-16.3c-13.9-14-27-24.3-36.9-24.3
		c-11.5,0-29.6-3.5-46.1-8.8c-30.1-9.8-30.1-17.1-30.1-19.5c0-6.7,8.9-8.6,11.8-9.3c6.7-1.5,16.9-2.2,30.4-2.2
		c57.7,0,76.8,16.8,82.6,31c3.8,9.3,3,20.2-2,31.5c8.8,9.2,18,19.8,27.3,30.5c19.7,22.7,40.1,46.2,55.1,52.8
		c16.6,7.4,30.5,7.3,40.1-0.3c8.7-6.9,13-19.8,10.7-32.3c-2-10.8-8.3-18.5-17.2-21.4c-23.1-7.2-42.3-34.3-64.6-65.7
		c-14.5-20.4-29.5-41.5-46.9-58.9c-22-22-58.8-29.9-94.4-37.7c-34.4-7.5-66.9-14.5-86-33.6c-16.7-16.7-68.5,15-123.3,48.5
		c-59,36.1-125.9,77-177.1,77c-42.9,0-129.5-23.7-257.5-70.3c-114.5-41.8-217.7-85.8-229.1-90.6c-25.5-10.9-35.2-28.4-33.5-60.2
		c1.7-30.9,14.2-76.6,33.1-145.8c12.8-46.9,28.8-105.4,46.5-177.6c41.9-171.3,34.9-332.8,27-413.8c-5.7-58.8-15.4-113.1-28-156.9
		c-12-41.7-26.3-72.3-40.4-86.4c-7.8-7.8-14.2-11.1-17.8-9.1c-4.8,2.6-14.9,18.4-4.5,108.2c6.4,54.9,19.2,128.4,38.1,218.6
		c24.1,115-22.1,320.6-62.8,501.9c-26.4,117.5-49.2,219-49.2,278c0,81.6,16.5,163.7,46.4,230.9c8.6,19.4,18.3,37.3,28.9,53.6
		c221.3,52,356.5,21.9,426.9,6.1C2351.2,3289.4,2366.6,3285.9,2377.8,3285.9z M3295.2,3205.2c10.1,9.6,20.7,17.9,31.7,24.6
		c60.6,36.9,134.9,29.9,220.7-20.6c64.2-37.8,110.3-122.3,136.9-251.1c22.5-109,30.8-247.5,24.8-411.7
		c-4.4-119.2-16.2-240.4-31.1-349.3c-100.3,12.9-167,61.4-198.8,144.5c-4.6,11.9-8.2,24.1-11.1,36.6
		c49.6,133.1,97.4,277.2,110.4,395.3c2.8,25.8,0.6,39.6-7.1,43.6c-4.7,2.4-10.4,0.7-16.9-5.1c-22.6-20.2-59.8-95.8-83-187.3
		c-12.8-50.5-19.9-99.2-20.9-144.8c-0.9-36.7,2.2-70.6,9.2-101.2c-15.4-41.4-31.1-81.8-45.8-119.9c-28.9-74.9-56.3-145.6-72.9-199.9
		c-28.5-92.9-45.3-152.3-43.9-205.7c-33.2,29.4-71.1,54-113.3,73.4c-17,7.8-34.8,14.8-53.2,20.9c5.5,19.1,8.3,41.7,11.9,69.9
		c2.2,17.6,4.8,37.5,8.4,60.2c5.6,35.1,12,85.9,17.7,148.5c14.4-7.7,30.5-11.4,46.9-10.8c25.3,0.9,48.6,12.3,65.6,31.9
		c19,21.9,29,52.9,29,89.5L3295.2,3205.2z M2776.8,3226.4c-10.5,0-19.1,2.7-22.1,5.9c-1.1,1.2-0.9,1.7-0.8,2
		c0.3,0.8,3.5,7.8,34.9,13c13.6,2.3,25.7,2.7,36.3,1.8c-8.2-9.8-19.1-16.9-31.6-20.4C2787.7,3227.1,2782,3226.4,2776.8,3226.4z
		 M3169.7,2234.5c11.7,133.7,19.6,318.3,8.9,516.7c-5.5,102.4,4.3,204.5,27.7,287.6c19.2,68.2,46.8,121.9,81.1,158.4l15.1-860.8
		c0-76.1-43.7-111.8-87-113.4C3200.2,2222.5,3184.3,2226.2,3169.7,2234.5z M2779.1,3167.4c0.3,1.3,4.3,5.5,15.3,9.4
		c14.3,5.1,41.9,9.3,60-4.8c-16.1-7.1-38.1-9.9-63.7-7.7C2781.7,3165.1,2779.5,3167,2779.1,3167.4z M2767.9,3097.6
		c1.6,1.9,8.2,6.6,26,12.2c15.3,4.8,31.7,7.9,41.9,7.9c12,0,25.8,10,40.5,24.5c3-8.2,3.3-15.8,0.6-22.3c-7-16.8-33.7-26-75.2-26
		C2776.4,3093.8,2769.6,3096.5,2767.9,3097.6z M3465.3,2392.7c-15.9,85.5,1,177.4,14.3,229.8c22.8,90,58.9,163.9,80.6,183.3
		c4.2,3.7,6.8,4.5,7.9,3.9c0.6-0.3,6.2-4.2,2.8-35.6C3558.3,2660.5,3513.1,2522,3465.3,2392.7z M3306,1845.3
		c-3.5,54.7,13.3,114.5,43,211.1c16.6,54,43.9,124.6,72.7,199.3c13.5,34.8,27.6,71.5,41.8,109.2c2.5-9.1,5.4-17.8,8.6-26.3
		c18.1-47.3,47.6-84.2,87.8-109.8c32.2-20.5,71.5-33.8,117.3-39.7c-21.5-154.7-49-283.8-69.9-346.2c-30.1-90-78.4-140.1-113.6-166.3
		c-30.3-22.6-56.4-31.8-66-34.6c-1.8,7.8-6.4,25.6-16,49.5c-11.8,29.3-33.7,73.4-71.1,117.5
		C3329.8,1821.7,3318.2,1833.9,3306,1845.3z M2398.8,1475.7c6.8,37,29.5,139.7,87.6,241.4c66.5,116.2,194.2,254.7,425.4,254.7
		c82.3,0,151.4-11.5,209-29.9c-8.2-23.6-21.6-41-48.4-58.3c-38.9-25-66.2-91.1-78.9-128.3c-17.8-51.8-29.8-111.3-29.8-148
		c0-66.8-31.1-105.7-54.5-129c-7.6-7.6-22.2-26.3-30.7-45.5c-35.9-11.7-70.7-28.9-101.7-49.8c-0.2,19.2-3.5,41.8-9.7,65.2
		c-15.1,56.9-43.9,105.4-79.2,133.2c-36.2,28.6-77.9,35.8-124,21.5C2512.8,1587.1,2457.3,1544.3,2398.8,1475.7z M2888.7,1436.1
		c7.4,14.3,17.9,28.4,26.1,36.6c14.1,14.1,56.8,56.8,56.8,134.7c0,35.9,11.8,94.3,29.3,145.4c21.5,62.5,48.4,106.6,75.7,124.1
		c28.7,18.5,43.1,37.5,51.7,62.5c74.5-24.8,129.5-61,169.6-97.8c3-38.6,15.9-75,41.3-120.2c56.9-101.2,33.6-124.2,11-146.4
		c-1.2-1.2-2.3-2.3-3.5-3.5c-12.1-12.1-9.8-26.1-7.9-37.3c2.3-14.1,3.9-23.4-15.6-29.9c-23.2-7.7-24.3-17.5-23.1-30.4
		c0.8-8.8,1.5-17.9-10.3-29.7c-15.3-15.3-28.3-49.7-40.9-83.1c-11.1-29.5-22.7-60.1-34.2-71.5c-7.7-7.7-23.8-7.9-43.7-5.8
		c-11.7,23.5-26.5,50.5-43.2,75.4c25.3-2.5,43.5-4.1,51.3,3c2.5,2.2,3.8,5.3,3.8,8.8c0,21.3,2.3,39.4,6.9,54.3
		c19.9,5.5,39.2,14,53.6,22.3c13.5,7.8,29.1,19,26.7,28c-1.9,7.1-12,7.1-15.3,7.1c-27.6,0-48.3-10.5-61.7-31.2
		c-3.7-5.7-6.8-12.2-9.4-19.5c-27.5-6.9-55.5-7.6-70.1,7.1c-17.9,17.9-41.2,52.3-61.2,89.6c0.3,1.8,0.6,3.6,0.9,5.4
		c3.5,22,28,26.6,56.4,32c18.8,3.6,38.3,7.3,52.5,16.8c16.7,11.2,23.2,28.6,20,53.1c-7.2,54.2-29.9,80.3-48.7,86.7
		c-10.9,3.7-21.6,1.3-29.4-6.6c-0.3-0.3-0.5-0.5-0.7-0.8c-8.9,2.7-18.9,3.3-30,1.7c-14.4-2.1-25.8-7.3-34-15.1
		c-8.6,2.5-20.7,0.5-33.1-20.2c-17.1-28.6,6.6-95.6,37.9-154.4c-5.1-29.1-12.9-57.4-28.1-80.9c-9.1,1.7-18.7,2.8-28.8,3.3
		c-28.1,1.2-58.6-2.6-90.7-11.4C2894,1437.6,2891.3,1436.9,2888.7,1436.1z M1059.2,1456.9c1,32.5,5.9,84.5,25,137.7
		c41.3,115.6,126,181.3,251.5,195.2c135.1,15,232.8-23.9,298.7-118.8c58.8-84.7,83.8-202.1,104-296.4
		c22.5-105.6,54.1-181.1,102.4-244.7c15.1-19.9,31.8-38.7,50.8-56.9c-66.2-25.5-131.7-34.2-200.7,9.2
		c-135.4,85.1-153.5,192.4-169.5,287c-9.6,56.9-18.6,110.6-51.2,154.2c-50.8,68.2-164.7,103.8-259.3,81
		C1134.8,1586.1,1081.8,1534.2,1059.2,1456.9z M3111.6,1712c5.4,4.4,12.2,5.5,19.5,3c15.8-5.3,36.7-29.5,43.4-80.2
		c6.3-47.3-28.8-54-66-61c-27-5.1-54.9-10.4-61.8-33.9c-3.4,6.6-6.6,13.3-9.7,19.9c-26.1,56.4-34.7,99.3-23.7,117.7
		c6.7,11.2,13.5,17,20.2,17.2c-6.1-9-9.1-20.4-8.7-34c0.5-16.7,6.3-36.1,15.9-53.3c3.5-6.2,15.8-26.7,27.8-27.7
		c2.8-0.2,9.4,0.3,11.6,10.9c3.3,15.9,0.9,40.1-6.5,63.2c-3.3,10.6-12.1,34.1-26.3,44.2c6.3,5.2,15.2,9.2,27.4,11
		c9.2,1.4,17.1,1,23.8-0.6c-9.6-17.1-8.8-45.3,2.6-78.1c8.5-24.4,18-35.4,28.4-32.5c15.4,4.3,20.5,39.3,14.7,66.6
		c-3.6,16.9-11,30.7-21.3,39.9C3119.4,1707.5,3115.6,1710,3111.6,1712z M3126.5,1605.4c-4,0-10.7,7.1-17.8,27.5
		c-12.6,36.3-10,60.5-2.4,72.8c19.4-8.6,27.1-28.9,30.1-43c6-28-1.3-55.1-9.1-57.2C3127,1605.5,3126.8,1605.4,3126.5,1605.4z
		 M3069.3,1587.7c-0.1,0-0.2,0-0.2,0c-10.5,0.9-35.4,39.1-36.4,73.3c-0.3,10.2,1.5,21.8,8.9,31.2c20.5-13,36.7-71.1,30.6-99.9
		C3071.3,1588.1,3069.9,1587.7,3069.3,1587.7z M1915,1559.8c-11.3,7.8-21.4,16.1-30.2,25c-20.7,20.9-33.3,44.7-34.5,65.1
		c-0.7,12,2.8,21.3,9.1,24.2c5.6,2.5,13.3-0.4,20.9-8.1c14.5-14.5,27.1-36.7,33.9-59.5C1920.2,1586.3,1920.4,1568.9,1915,1559.8z
		 M3024.5,1444.6c13.9,22.2,21.1,47.7,25.8,71.6c19.8-35.5,41.7-66.8,57.8-82.9c16.3-16.3,44.7-16.8,73-10.3
		c-3.9-14.7-5.9-32.1-5.9-52c0-1.6-0.6-2.3-1.1-2.8c-5.4-4.9-26.8-2.8-47.6-0.7c-1.4,0.1-2.9,0.3-4.3,0.4
		c-18.1,25.7-38.3,48.4-59.1,61.1C3051.7,1435.8,3038.8,1441.1,3024.5,1444.6z M3193.4,1434.5c1.9,4.6,4.1,8.7,6.5,12.5
		c12,18.5,30,27.5,55,27.5c5.4,0,7.2-0.9,7.6-1.2c-0.3-3.8-15.3-16.9-43.9-29.4C3210.8,1440.4,3202.2,1437.2,3193.4,1434.5z
		 M2884.3,1426.3c4.8,1.5,9.6,2.9,14.4,4.3c41.1,11.3,79.9,14,112.3,8.5c-17.4-23.1-43.2-40.6-82.7-48.3c-17.6-3.4-40-5-46.4,7.1
		C2878.1,1404.8,2879.8,1415.3,2884.3,1426.3z M2707,1296.6c-0.4,0-0.7,0-1,0.1c-1,0.2-1.1,0.5-1.1,0.7c-1,3.1,2.9,14.8,24.7,36.7
		c11.8,11.8,24.8,22.9,38.8,33.2c-1.1-12.3-3.9-22-8.4-28C2736.5,1308.3,2714.8,1296.6,2707,1296.6z M3005.3,1276.8
		c-9,0-15.6,2.6-18.9,7.7c-6.4,9.8-1.2,32.4,25,58.6c23.5,23.5,68.2,20.8,106.3,17.1c14.6-21,29.4-46.3,44-75.3
		c-4.4,0.6-8.8,1.2-13.4,1.8c-35.7,4.9-76.2,10.4-111.6-3C3024.6,1279.1,3013.8,1276.8,3005.3,1276.8z M2551.5,1343.9
		c43.8,0.5,76.5-9.4,99.1-29.9c51-46.3,43.4-142.3,36-235c-3.4-43.2-7-87.8-4.5-126.6c2.9-44.1,13.5-76.1,32.4-97.9
		c98.9-113.7,103.7-269.6,11.6-379.2c-60-71.4-169.6-126.1-311.5-98.7c-42.4,38.7-85.2,86.3-128.1,144.1
		c-44.5,60-74.7,109.8-92.4,152.3c-15.4,37.1-20.8,67.7-16.4,93.6c7.5,43.8,41.6,66.9,77.8,91.4c37.1,25.1,75.5,51,81.7,101
		c5.5,44.4-10.7,90.9-26.4,135.8c-6.4,18.4-12.8,36.5-17.5,54c31-15.3,63-38.4,96.2-71.7c27.4-27.4,51.3-53.2,71.3-77.2
		c-1-13.3-1.2-26.9-0.8-40.6c1.6-48.8,12.2-86.4,29.1-103.3c12.7-12.7,27.6-18.6,39-15.6c7.3,2,12.6,7.5,14.7,15.6
		c3.2,11.8,1.6,34.9-23.9,77.5c-12.5,20.9-29.2,43.9-50,68.9c2.4,30.2,8.4,58.2,17.2,79.5c7.4,17.9,20.5,39.3,40.3,39.3
		c11.2,0,20.1-4.5,26.9-10.4c-2.1-10.9-4.3-21.6-6.5-32c-11.8-57.3-20.3-98.7-6.8-112.5c4-4.1,9.6-5.5,16.6-4.3
		c27.6,5,36.7,45.5,33.5,80.9c-2.4,27.1-11.8,54.4-28.1,70.8c7.4,38.3,13.8,78.7,13.8,116
		C2576.1,1279.2,2568.4,1315.6,2551.5,1343.9z M2290.8,1158.9c-7.6,32.5-8.5,62.9,7.2,89.8c24.2,41.3,86.5,70.3,190.6,88.8
		c19.4,3.4,37.2,5.5,53.6,6.2c17.7-27.6,25.8-63.8,25.8-113.7c0-35.2-5.8-73.4-12.8-110c-8.2,5.9-17.7,9.4-28.7,9.4
		c-19.2,0-35.6-15.3-47.6-44.3c-8.3-20.1-14.2-46-17-74c-19.1,22.4-41.4,46.3-66.6,71.6C2360.5,1117.6,2326.2,1142.6,2290.8,1158.9z
		 M1906.2,1070.2c25.7,10.6,51.4,23.4,78,36.6c94.1,46.8,190.7,94.7,299.8,46.3c4.9-19.8,12.1-40.2,19.4-61.1
		c15.4-44.1,31.4-89.7,26.1-132.2c-5.8-46.4-41-70.2-78.2-95.4c-36-24.3-73.2-49.5-81.2-96.6c-9.8-57.4,25.2-137.5,110.2-251.9
		c38.6-52,78.7-97.6,119.7-136.2c-49.7,11.4-103.3,32.9-159.9,67c-126.4,76.2-219,150.8-275.1,221.8
		c-48.1,60.8-70.1,119.7-65.5,175.1c4.6,54.7,34.8,106.2,89.8,153.1c20.2-13.2,42.1-26.4,66-39.7c43-24,81.5-35.9,114.5-35.2
		c28.4,0.6,52.4,10.6,69.2,29.2c14.6,16.1,23.4,38.1,24.6,61.9c1.2,23.1-4.7,45.2-16.5,62.4c-14.2,20.6-34.9,31.2-59.2,31.2
		c-12.2,0-25.3-2.7-38.9-8c-34.4-13.6-100.5-43.1-157-89.1c-1.1-0.9-2.1-1.8-3.2-2.6C1957.6,1027.3,1930.3,1048.2,1906.2,1070.2z
		 M2552.2,969.8c-3.4,0-5.1,1.3-6.2,2.3c-10.5,10.8-1.1,56.7,8.9,105.3c1.8,8.7,3.6,17.6,5.4,26.6c1.9-2.3,3.5-4.6,4.9-6.8
		c9.2-14.3,15.3-33.7,17.2-54.8c3-33-5.3-68.4-27-72.3C2554.2,969.9,2553.1,969.8,2552.2,969.8z M1995.6,1002.1
		c0.4,0.3,0.8,0.7,1.2,1c55.7,45.3,121,74.5,154.9,87.8c37.3,14.7,69.6,7.3,88.6-20.3c23-33.3,19.7-84.6-7.4-114.3
		c-15.3-16.9-37.3-26-63.5-26.5c-31.6-0.6-68.7,10.9-110.5,34.2C2036.3,976.7,2015.3,989.3,1995.6,1002.1z M2522,847.7
		c-8.1,0-18.2,5.2-27.1,14c-15.2,15.2-25.2,51.8-26.8,97.9c-0.3,10.5-0.3,20.9,0.2,31.2c18-22.1,32.6-42.6,43.8-61.3
		c25.3-42.4,25.3-62.9,23-71.3c-1.4-5.4-4.5-8.8-9.1-10C2524.9,847.9,2523.5,847.7,2522,847.7z M3150,522.1c-1.2,0-2.1,0.3-2.6,0.9
		c-3.3,3.3-3.8,18.2,8.6,45.5c12.2,27,32.5,55.8,55.6,78.9c0.6,0.6,1.2,1.2,1.8,1.7c0.1-35.8-2.3-75-34.8-107.5
		C3163.3,526.3,3154.3,522.1,3150,522.1z M2882.4,497.1c-2,2.8-3.1,5.5-3.1,8c0,7.4,9.1,14.4,25.8,19.7c20.8,6.6,52.7,10,92.2,10
		c78,0,132.9-33.6,143.3-87.8c5.7-29.9-2.9-62.9-24.4-93c-13.5-19-31.6-36.1-53.4-50.8c-32.7-1.1-62.7,1.3-87.8,4.9
		c-74,10.5-147,37.9-190.6,71.5c-26.4,20.3-39.1,40.6-35.8,57.2c3.2,15.8,21.1,28.5,51.9,36.7c28.1,7.5,54.6,12.3,78.7,15.2
		c6.7-6.9,17.5-13.3,31.7-18.7c26-9.8,60.7-15.2,97.8-15.2c53,0,57.4,9.3,58.8,12.4c0.8,1.8,1.7,5.4-1.7,9.5
		c-9,10.8-45.2,20-89.9,22.9C2946,501.6,2914.2,500.7,2882.4,497.1z M2889.7,489.9c30.9,3.1,57.3,3.2,77.5,2.2
		c46.8-2.2,78.8-10.8,89.7-18.3c2.5-1.7,3.2-3,3.2-3.3c0,0-3.9-7.7-51.5-7.7C2950.2,462.8,2908.1,475.9,2889.7,489.9z"/>
</g>
</svg>
