<?xml version="1.0" encoding="utf-8"?>
<!-- Generator: Adobe Illustrator 26.5.0, SVG Export Plug-In . SVG Version: 6.00 Build 0)  -->
<svg version="1.1" id="Layer_2" xmlns="http://www.w3.org/2000/svg" xmlns:xlink="http://www.w3.org/1999/xlink" x="0px" y="0px"
	 viewBox="0 0 1400 1000" style="enable-background:new 0 0 1400 1000;" xml:space="preserve">
<style type="text/css">
	.st0{fill:#46FFF1;stroke:#46FFF1;stroke-width:4;stroke-miterlimit:10;}
</style>
<g>
	<path class="st0" d="M347.9,831.5c-5,0-8.6-0.2-9.1-0.2L0,831.3v-2h338.9c13.7,0.7,50.1,0.1,53.7-11.3c0.7-2.1,1.9-5.1,3.4-8.8
		c9.6-23.6,31.9-78.7,19.2-151.4c-2-11.5-6.2-28.2-11.1-47.6c-12.2-48.6-27.5-109-20.1-134.5c6.5-22.5,10.7-52.2-6.3-65.3
		c-3.1-2.4-6.2-3.2-9.2-4c-5-1.3-9.6-2.5-12.8-10.8c-1.8-4.7-7.4-8.7-11.9-10.4c-1.5-0.6-5.1-0.8-8.9-1c-4.8-0.3-10.3-0.7-14-1.8
		c-1.8-0.5-3.7-1.9-5.9-3.4c-6.5-4.6-14.5-10.3-26.5-0.3c-15.4,12.9-16.7,24-15.9,33.2c0.1,0.7,0.3,1.4,0.7,2.1
		c7.7-1.4,14.8-2,16.9-0.5c0.7,0.5,0.8,1,0.9,1.4c0.3,4.1-1.9,6.7-5.9,7c-4.4,0.3-10-2.2-12.8-5.8c-4.9,0.9-10.6,2.2-16.7,3.8
		c-18.1,4.8-22.2,9.2-23.1,11.4c-0.4,1-0.3,2,0.4,3.1c0.9,1.5,4.9,1.7,9.5,1.9c7.7,0.4,18.7,0.9,27.5,7.8c11,2.3,20.8,6.7,27.6,14.2
		c6,6.7,11.5,10.3,15.9,10.6c-2.1-7.6-2.2-12.7-0.1-15c1.2-1.3,2.9-1.7,4.8-1c2.8,0.9,5.3,3.6,5.6,6c0.4,3.4-1.5,9.2-6.1,11.3
		c-0.5,0.2-1,0.4-1.6,0.5c1.1,3.5,2.8,7.8,5.1,13.1c14,32,7,54,0.8,73.4c-1.3,3.9-2.5,7.7-3.4,11.4c-1,3.9-1.9,5.3-3.1,5.2
		c-2.1-0.2-2.7-4.3-4.3-23.7c-1.4-16.7-3.3-39.6-7.8-53.5c-2-6.2-5.9-12.1-11.2-17.5c5.4,14.1,6.6,25.8,7.1,31.1
		c0.5,4.3,0.5,10.3,0.6,17.2c0.1,12.7,0.3,28.4,3.4,38c1.7,5.5,3.7,10.2,5.6,14.8c3.2,7.7,6,14.3,6.4,21.5c0.2,3-1.6,9-4.1,17.3
		c-7.1,23.6-20.3,67.4-5.9,107c8.6,23.6,16.3,43,21.9,57.1c8.9,22.3,9.4,23.9,8,24.7c-0.9,0.6-1.8-0.4-2.2-0.9c-1-1.2-3-2.7-5.8-4.8
		c-10.5-8.1-32.5-25-56.3-65.3c-21.2-35.7-40-79.8-56.1-130.9c-2.4-7.7-7-18.8-12.3-31.7c-10.3-25-23.1-56.1-24.4-74.2
		c-1.7-23.6,8.9-39.5,33.5-50.2c-3-0.1-6.1,0-9.1,0.1c-18.8,0.8-29.7-2.3-32.4-9.1c-2.9-7.3,4.6-16.3,9-19.9c0.4-0.3,1-0.3,1.3,0
		c0.4,0.3,0.4,0.9,0.1,1.3c0,0-2.8,4-1.3,6.8c1.2,2.3,5.1,3.6,11.2,3.6c18.6,0,25.8-7.7,35-37.3c8.8-28.2,21.6-49.7,39.7-65.9
		c2.9-9,8.4-20.5,16.4-33.6c28-46,26.6-62.4,25.3-76.9c-0.4-4.8-0.8-9.4-0.1-14.7l0.1-0.5c2.7-21.9,9.1-73,67.1-103.6
		c66.9-35.2,97.6-24.8,107.7-18.6c13.2,8.1,43.1,31.1,46.9,44.6c2,0.5,4,1.3,5.8,2.5c-4.4-11.1-9-20.4-12.7-22.4
		c-2.1-1.1-3.1-2.2-3-3.4c0-0.5,0.3-1.4,1.8-1.8c4.6-1.4,19,2.3,31.5,17.3c1.6,2,3.4,4,5.1,6.1c17.7,21,39.7,47.1,42.1,76.8l0.5,6
		c2.5,30,4.9,58.4-4.2,81.4c-4.6,11.6-10.2,16.9-15.1,21.6c-5.4,5.1-10.1,9.5-11.8,21.2c-3.1,21,8.2,37.3,19.1,53l2,2.9
		c16.9,24.6,22,43,16.2,65.4c2.4,4.1,4.7,8.6,6.9,13.8c10.1,23.5,35.8,62.1,60.6,99.5c31,46.7,60.3,90.8,58.8,104.4
		c-2,18.1-20.7,46.3-39.6,53.6c-2.9,1.1-5.7,1.7-8.4,1.8c4.4,6,8.6,11.2,12.4,15.1c11.7,12,19.6,14.7,26.2,13.7
		c0.2-6.4,5.6-15.7,20.7-22.6c10.3-4.7,14.2-16.5,17.7-26.8c2.8-8.5,5.5-16.4,11.3-19.3c3.1-1.5,6.7-1.5,11.1,0.1
		c2,0.7,3.8,1.5,5.6,2.4c6.6-7,15.7-9.8,25.6-7.8c1.1,0.2,2.2,0.5,3.2,0.9c4.4-1.1,9.6-1.6,14.6-1.5c3,0,5.8,0.6,8.5,1.6
		c0.8-0.1,1.6-0.1,2.5-0.1c9.4,0.3,21.8,5.4,26,19.2c5.1,16.6,5.9,22.1,3.6,23.7c-1.5,1-3.4-0.1-4.8-1.1c-0.9-0.7-1.4-0.8-1.6-0.9
		c-0.2,0.5-0.2,2-0.1,3.3c0.1,4.2,0.2,10.6-4.2,15.9c-7.8,9.4-18.3,13.3-26.8,13.6c-0.8,2.6-3.6,5.7-8.5,9.3
		c-16.1,11.8-56.6,12.1-92.4,12.3c-15.3,0.1-29.7,0.2-40.8,1.2c-21.4,1.9-23.3,6-23.3,7.1c-0.1,2.4,4.9,5.2,9.5,6.2
		c1.5,0.3,4.9,0.8,9.6,1.4c16.7-4.8,46.8-6.9,78.3-4.7c17.4,1.2,33.6,4.1,47.2,7.3c4.2-1.2,8.1-2.6,11.4-4.1
		c-3.7-1.7-6.9-3.7-8.4-5.8c-1.3-1.9-1-3.4-0.6-4.3c1.7-3.5,9-5.6,22.4-6.3c4.2-0.2,5,1.6,5.2,2.8c0.3,3.1-4.7,8.7-13.7,13.5
		c4.3,1.5,8.9,2.3,12.1,2c12.6-1.3,19.9-19.7,33.2-53c3.2-7.9,6.8-16.9,10.8-26.7c21.1-50.7,75.4-190.6,76-192
		c0.1-0.3,10.7-33.3,56.9-33.3c45.5,0,224.2,1.3,226,1.3c0.2,0,6.2,0.1,10.3,5.9c5.8,8.4,4.4,23.7-4,45.4
		c-19.1,49.4-93.9,223-94.7,224.7c-0.1,0.3-13.5,29.9-60.8,33.9c-46.8,4-143.7,11.9-144.7,12c-0.6,0-1-0.4-1.1-0.9
		c-0.1-0.5,0.3-1,0.9-1.1c1.5-0.2,153.3-20,166.4-25.9c13.5-6.1,24.3-11.9,30.8-26.2c6.6-14.5,91.8-218.6,92.7-220.6
		c0,0,3.8-11.9,0-17c-1.1-1.5-2.8-2.3-5.1-2.3c-12.5,0-218.1,0.6-220.2,0.6c-0.3,0-23.4-1.4-38.2,34.1
		c-15.2,36.2-101.8,247.2-102.7,249.3c-0.1,0.1-2.8,5.6-9.8,11.2c16.7,6.5,48.5,17,81.6,17H1400v2H947.5c-34.2,0-67-11-83.5-17.6
		c-7.3,5.1-18.6,9.9-35.2,10.1c-0.4,0-0.8,0-1.2,0c-33.9,0-144.6-12.3-151.4-21.4c-0.6-0.8-0.5-1.5-0.4-1.9c0.8-2.4,3.9-4.7,8.9-6.5
		c-2.6-0.3-4.5-0.6-5.5-0.9c-4.7-1-11.3-4.3-11-8.3c0.3-4.5,8.7-7.5,25.2-9c11.1-1,25.6-1.1,40.9-1.2c35.5-0.2,75.7-0.5,91.2-11.9
		c4.9-3.6,6.8-6.1,7.5-7.7c-3.4-0.1-6.4-0.8-8.7-2c-1.4-0.7-2-1.5-1.8-2.4c0.3-1.4,2.2-1.8,3.8-2c3.5-0.3,7.8,0.7,8.9,3.6
		c0.1,0.2,0.2,0.5,0.2,0.8c8-0.4,17.9-4.1,25.1-12.8c3.9-4.7,3.8-10.7,3.8-14.6c0-2.7-0.1-4.5,1.2-5.1c1.1-0.6,2.5,0.2,3.7,1.1
		c1.9,1.4,2.4,1.1,2.4,1.1c1.8-1.3-2.8-16.5-4.3-21.5c-3.6-11.9-13.9-16.9-22.3-17.7c5.1,3.1,9.4,8.3,12.6,15.2
		c5.8,12.7,6.2,28.7,0.8,35.1c-2.7,3.2-5.2,4.6-7.6,4.4c-3-0.3-4.6-3.3-5.3-4.5c-1-1.8-1.3-6.2-1.8-12.3
		c-0.9-11.3-2.1-26.8-8.5-31.9c-2.3-1.9-2.4-3.5-2-4.5c0.4-1.1,1.6-2.1,3.2-2.7c-1.3-0.3-2.7-0.4-4.2-0.4c-4.1-0.1-8,0.3-11.3,0.9
		c8.6,4.3,13,12.9,15.2,20c4.5,14.3,2.7,30.9-1.8,35.5c-4.7,4.9-8.4,4.8-10.7,3.9c-3.9-1.6-6.3-6.8-6.3-13.3
		c0-17.3-2.3-28.9-6.3-32.6c-4-3.7-4-6.6-3.3-8.5c0.9-2.3,3.3-4,6.6-5.3c0,0-0.1,0-0.1,0c-11.3-2.3-18.9,2.4-23.4,6.9
		c21.2,13.1,22,44,18.6,61.6c-1.7,8.8-8,13.3-13,12.9c-4-0.3-6.7-3.2-6.9-7.7c-0.1-1.7-0.2-3.7-0.3-5.7c-0.4-10.2-0.9-24.3-6.9-32.4
		c-4-5.4-2.8-16,2.8-24.8c0.8-1.2,1.6-2.4,2.5-3.5c-1.5-0.8-3.1-1.5-4.9-2.1c-3.9-1.4-7-1.4-9.6-0.2c-5.1,2.5-7.6,10.1-10.3,18.1
		c-3.6,10.7-7.6,22.9-18.7,28c-13.9,6.4-19.1,14.6-19.5,20.4c3.3-0.9,6.3-2.6,9.4-4.4c5.4-3.1,10.9-6.3,18.3-4.9
		c8,1.5,10.5,4.5,11.2,6.7c0.7,2.2,0,4.7-2.1,6.9c-5.1,5.4-17.8,9.4-31.3,5.9c-4.1-1-6.8-4-7.4-7.9c-7,1-15.5-1.9-27.7-14.4
		c-4.1-4.2-8.7-10-13.5-16.6c-4.3-0.4-8.2-2.2-11.8-5.3c-4.7-4.2-11.4-9.3-18.4-14.6c-28.3-21.7-67.1-51.4-54.5-76.6
		c1.9-3.7,4.3-5.7,7.4-5.8c0.1,0,0.3,0,0.4,0c12.8,0,32.7,31.1,53.8,64c8.2,12.7,16.5,25.7,24.2,36.4c2.9,0.1,5.9-0.4,9.1-1.6
		c18-6.9,36.4-34.8,38.3-52c1.4-12.9-29-58.7-58.5-103c-24.9-37.4-50.6-76.1-60.8-99.8c-1.9-4.4-3.9-8.3-5.9-11.9
		c-2,6.8-5,14-9,21.9c-0.8,1.7-1.7,3.3-2.5,5c1.1,2.6,2.1,5.3,3.2,8c7.3,19.2,19.5,55.6,18.7,83.2c-0.3,11.3-4.9,22.1-13.3,31.5
		c-2.8,13.9-9.1,26.5-18.6,37.3c-5.5,6.2-11.8,11.4-18.7,15.7c4.1,1.7,8,3.8,11.5,6.3c11.1,7.8,16.9,18.3,16.8,30.5
		c-0.3,30.5-13.8,67.8-76.6,72.3c-2.4,0.2-4.8,0.3-7.1,0.3c-53.5,0-74.6-45.7-78.6-73.8c-3.1-21.6-4.2-43.1,8.1-54.5
		c8.8-8.2,23.1-9.9,43.8-5.3c37.1,8.3,81.7-0.5,108.4-21.3c3.4-2.7,6.5-5.5,9.2-8.4c1-4.9,1.5-10,1.5-15.3c0.1-11.6-2.1-25-5.6-38.7
		c-2.6,2.4-5.7,4.2-8.9,4.2c-6.1,0-11.6-5.9-16.5-17.5c-9.8-23.4-5.8-46.1-1.5-59.6c-2.2-4.6-4.2-8.4-5.7-11.1
		c-1.3-2.4-3.1-6.3-5.1-10.8c-5.8-13.2-15.6-35.3-23.8-34.1c-1.8,0.3-4,1.8-6.2,5.9c3.7,7.7,5.2,16.9,4.2,26.3
		c-0.5,4.6,0.5,7.9,2.8,9.8c4.8,4,14.1,1.2,14.2,1.2c0.4-0.1,0.9,0.1,1.2,0.5c0.2,0.4,0.2,0.9-0.2,1.2c-0.4,0.4-9.7,8.7-17.8,6.2
		c-4.6-1.4-7.8-5.9-9.5-13.4c-0.6-2.4-1.4-4.6-2.4-6.7c-1.2,6.3-2.3,13.7-3.3,22.6c-6.2,52.8-28.3,68.7-45.7,72.6
		c-24.5,5.6-51.4-9.7-57.9-19.9c-1-1.6-2.2-3.5-3.5-5.6c-9.6-5.5-17-12.9-19.3-21.7c-1.7-6.3-1.3-7.8-0.1-8.3c2.3-1,5.8,3.8,19,25.4
		c0.6,1,1.2,2,1.8,2.9c15.4,8.8,36.7,13,50.8,10.8c10.6-1.7,18.9-7.1,24.5-16.1c9.4-15.1,9.5-38.4,4.7-53.6
		c-0.1-0.2-0.1-0.5-0.2-0.7c-5.2,0.3-10.9-1.2-15.6-3.7c-8.4-4.3-17.2-13.3-14.5-24.3c0.2-0.8,0.4-1.6,0.5-2.4
		c-6.4-5-11.6-10.9-14.2-14.9c-2.3-3.6-2.9-5.9-1.7-7.1c1.7-1.6,5.2-1.4,8.7,0.7c5.2,3,10.4,10.1,9.2,20.5c8.5,6.5,19.2,11.7,27.9,8
		c5.4-2.3,12.3-1.8,18.3,1.3c3.8,1.9,7,4.7,9.5,8.1c1.8-8.6,3.9-15.1,6.2-19.6c-1.1-2.2-2.4-4.3-3.9-6.2c-4.4,2.7-8.9,4.7-12.9,6.1
		c-8.2,2.8-15.5,3.3-19.5,1.2c-3.8-2-5.5-5.4-4.4-9.2c1.5-5.5,8.8-11,19.3-10.3c6.6,0.4,12.9,3.8,18,9.6
		c8.8-5.6,17.4-13.9,22.5-24.7c0.8-1.7,1.5-3.3,2.1-5c-8.2-8.7-12.9-14.4-7.1-29.5c1.5-4,3.4-6.2,5.5-6.4c1-0.1,2.5,0.1,4,2.1
		c3.6,4.9,5,18.4-0.1,33.3c3.4,3.6,7.2,7.7,11.3,13.3c5.8,7.9,10.2,16.1,13.2,24.3c8.5,1.3,19.8,8.4,30.1,24.7
		c4.9-21-0.4-38.6-16.3-61.8l-2-2.9c-11.1-16.1-22.6-32.7-19.4-54.5c1.8-12.4,6.7-17,12.4-22.4c4.8-4.5,10.2-9.6,14.7-20.9
		c9-22.6,6.6-50.7,4.1-80.5l-0.5-6c-2.4-29.1-24.2-54.9-41.7-75.7c-1.8-2.1-3.5-4.1-5.1-6.1c-11-13.3-22.9-16.9-27.6-16.9
		c-1.2,0-1.9,0.2-2.1,0.3c0.1,0.2,0.6,0.7,1.9,1.4c4.7,2.4,10.1,13.8,14.8,26.3c5.9,4.8,10.5,12,13.3,17.1c5,9.2,9.7,22.9,6.2,31.3
		c-0.3,0.6-0.6,1.2-0.9,1.8c0.4,0.4,0.7,0.9,1.1,1.3c2.1,2.5,5,5.8,8.8,10.8c9.3,12.1,0.5,40.6-4.7,57.6c-1.7,5.4-3,9.7-3.1,11.4
		c-0.2,4.6-3.3,7-7.2,10c-2.9,2.2-6.5,5-10,9.6c-6,7.7-3.3,17.8-0.6,27.5c0.8,3.1,1.6,6,2.1,8.7c0.7,4.2-0.1,8-2.6,11.4
		c-3.5,4.9-9.4,7.4-12.2,7.8c-2.9,0.4-3.5,8.1-3.8,12.7c-0.1,1.5-0.2,2.8-0.3,3.8c-0.5,3.2-5.1,4.3-9.1,5.3c-1.3,0.3-3,0.7-3.7,1.1
		c0,0,0,0.1,0.1,0.1c0.1,0.2,2.2,5,0,9.2c-1.4,2.6-4.1,4.4-8.1,5.2c-4.4,0.9-5.4,5-6.7,10.2c-1.8,7.2-4.1,16.2-16.5,20.1
		c-1.2,0.4-2.6,0.6-4,0.6c-18.8,0-57.5-29.9-75.6-47.5c-8.3-8-15.5-18.2-20.8-28c-3,9.1-7.5,17.9-13.3,24.8
		c-11.6,13.9-26.4,18.2-41.6,12c-6.8-2.8-13.1-4.4-18.9-5.1c-7,7.3-15.5,11.9-26.5,13.2c-6.5,0.7-8.8-0.8-9.5-2.3
		c-0.4-0.9-0.8-2.6,1.4-5.1c4.8-5.2,17.5-9.7,33.9-7.8c7-7.6,12.6-18.2,18.4-31.5c4.4-10.3,3.7-22.8,3-35c-1-17.2-2-33.5,10.7-43.4
		c0.6-0.5,1.2-0.9,1.7-1.4c-1.3-18.5-0.4-38.1,8.9-47.7c4.6-4.7,10.9-6.7,18.7-5.8c4.4,0.5,9.7,0.6,15.8,0.5
		c14.2-19.4,42.8-46.2,74.5-52.4c14.9-2.9,29-3.9,40.3-4.6c3.8-0.2,7.3-0.5,10.5-0.8c5.7-7.7,11.7-11.6,17.9-11.6c0.5,0,1,0,1.5,0.1
		c-4.2-11.7-30.1-33-45.8-42.6c-9.8-6-39.7-16.1-105.7,18.7c-57.1,30.1-63.4,80.5-66.1,102.1l-0.1,0.5c-0.6,5.1-0.3,9.6,0.1,14.3
		c1.3,14.8,2.7,31.6-25.6,78.1c-7.5,12.3-12.3,22.2-15.1,30c4.9-4.1,10.1-7.9,15.8-11.3c17.1-10.5,21.1-9.8,22.7-8
		c2,2.1,1.6,7.4-15.4,30.1c-8.5,11.3-19.2,16.9-24.9,13.1c-3.9-2.6-4.6-8.7-2.3-17.5c-16.5,15.7-28.4,36.2-36.7,62.8
		c-9.6,30.7-17.2,38.7-37,38.7c-7,0-11.4-1.6-13-4.7c-0.7-1.3-0.8-2.8-0.5-4.1c-3.6,4.2-6.7,9.8-5,14.2c1.6,4.1,8.2,8.8,30.4,7.9
		c4.6-0.2,9.3-0.2,13.8,0.1c13.4-4.8,32.3-7.2,49.3-4.7c-7.5-4.3-16-4.7-22.8-5c-5.6-0.3-9.7-0.4-11.1-2.8c-1-1.6-1.2-3.2-0.5-4.9
		c1.8-4.5,10-8.8,24.4-12.6c4.3-1.1,10.2-2.6,16.1-3.7c-0.3-0.7-0.6-1.5-0.6-2.3c-0.8-9.7,0.5-21.4,16.6-34.8
		c13.2-11.1,22.6-4.3,28.9,0.2c2,1.4,3.8,2.7,5.3,3.1c3.5,1.1,8.9,1.4,13.6,1.7c4.1,0.3,7.7,0.5,9.5,1.2c5,1.9,11,6.2,13,11.6
		c2.8,7.3,6.6,8.3,11.4,9.6c3,0.8,6.5,1.7,9.9,4.3c18,13.8,13.7,44.3,7,67.4c-7.2,24.9,7.9,85.1,20.1,133.4
		c4.9,19.4,9.1,36.2,11.1,47.7c12.8,73.2-9.7,128.7-19.4,152.5c-1.5,3.7-2.7,6.7-3.3,8.7C390.9,830,362.8,831.5,347.9,831.5z
		 M689.3,794.7c-6.7,1.9-10.8,4.2-11.5,6.6c0.2,1.8,13.6,6.9,62.7,13.3c34.4,4.5,71.5,7.6,88.3,7.4c15.4-0.1,25.9-4.3,33-9
		c-5.5-2.2-8.6-3.8-8.7-3.8c-0.2-0.1-15.3-6.4-38.3-11.8c-2.9,0.8-5.9,1.4-9.1,1.9C780.7,803.2,715.3,797.8,689.3,794.7z
		 M818.6,796.3c21.3,5.3,35.1,11.1,35.3,11.1c0.1,0.1,3.7,1.8,9.9,4.3c7.4-5.4,10.1-11,10.2-11.1c0.9-2.1,87.5-213,102.6-249.3
		c15.4-36.9,39.1-35.4,40.1-35.3c2,0,207.6-0.6,220.1-0.6c3,0,5.2,1,6.7,3.1c4.3,5.9,0.4,18.4,0.2,18.9
		c-0.9,2.1-86.1,206.3-92.7,220.8c-6.8,14.9-18.4,21.1-31.8,27.2c-9.2,4.1-81.7,14.5-128.1,20.9c32.5-2.7,77.9-6.4,105.6-8.8
		c46.2-3.9,59-32.4,59.2-32.7c0.8-1.7,75.5-175.2,94.7-224.6c10.2-26.3,7.9-38.2,4.2-43.6c-3.4-5-8.6-5.1-8.6-5.1
		c-1.8,0-180.5-1.3-226-1.3c-44.7,0-54.9,31.6-55,32c-0.6,1.5-54.9,141.3-76,192.1c-4.1,9.8-7.6,18.8-10.8,26.7
		c-13.6,34.1-21.1,52.8-34.9,54.3c-3.7,0.4-9.5-0.8-14.7-2.8C825.7,793.7,822.3,795.1,818.6,796.3z M216.3,450.1
		c-1,0.4-2.1,0.8-3,1.2c-24.5,10.3-35.1,25.7-33.4,48.7c1.3,17.8,14.1,48.8,24.3,73.6c5.3,12.9,9.9,24,12.3,31.8
		c16,51,34.8,94.9,55.9,130.5c23.7,40,45.4,56.7,55.8,64.8c2,1.6,3.7,2.8,4.8,3.9c-1.2-3.7-4.3-11.4-7.9-20.6
		c-5.6-14.2-13.3-33.5-21.9-57.2c-14.6-40.2-1.2-84.4,5.9-108.2c2.3-7.8,4.2-14,4-16.6c-0.4-6.9-3.1-13.3-6.2-20.8
		c-1.9-4.6-3.9-9.4-5.7-15c-3.1-9.8-3.3-25.1-3.5-38.5c-0.1-6.6-0.1-12.7-0.6-17c-0.6-5.7-2-19-8.6-34.5
		C272.2,461.5,245.2,451.6,216.3,450.1z M694.8,793.3c28.5,3.1,87.3,7.6,110.6,4c1.8-0.3,3.5-0.6,5.1-1c-12.6-2.8-27.3-5.3-43-6.4
		C737.8,787.9,711.2,789.8,694.8,793.3z M840.3,776.7c-0.2,0-0.4,0-0.6,0c-16.9,1-20.1,4-20.7,5.2c-0.1,0.2-0.5,1,0.4,2.3
		c1.4,2,5,4.2,9.1,5.8c9.3-4.7,14.5-10,14.2-12.4C842.7,776.9,841.3,776.7,840.3,776.7z M462.6,633.6c-9.9,0-17.4,2.4-22.6,7.2
		c-11.6,10.8-10.5,31.7-7.5,52.8c4.1,28.6,26.3,75.9,83.6,71.8c61.3-4.4,74.5-40.7,74.7-70.3c0.1-11.5-5.4-21.5-15.9-28.9
		c-3.8-2.7-8-4.9-12.5-6.6c-7.5,4.3-15.6,7.5-24.1,9.2c-19.4,4-35.3,2.4-37-3.5c-1-3.5,3.2-7.2,11.7-10.4c12-4.4,32-3.9,49,2.5
		c17.1-10.2,31.5-27.1,37-49.1c-2.2,2.1-4.5,4.2-7.1,6.2c-27.2,21.1-72.4,30-110.1,21.6C474.8,634.4,468.3,633.6,462.6,633.6z
		 M724.5,756.4c0.5,3.2,2.6,5.5,5.9,6.3c12.8,3.2,24.7-0.4,29.4-5.4c1.1-1.2,2.3-3,1.7-5c-0.8-2.4-4.2-4.3-9.7-5.4
		c-6.7-1.3-11.7,1.6-17,4.7C731.6,753.5,728.3,755.4,724.5,756.4z M789.2,691c-1.1,1.3-2,2.6-2.6,3.5c-5.1,7.9-6.3,17.8-2.9,22.5
		c6.3,8.6,6.9,23,7.3,33.5c0.1,2,0.2,4,0.3,5.7c0.2,3.5,2.1,5.7,5.1,5.8c4.2,0.2,9.5-3.6,11-11.3C807.6,748.9,815.3,706.6,789.2,691
		z M824.8,751.1c0.1,0.1,0.3,0.2,0.5,0.3c2.1,1,4.9,1.7,8.1,1.7c-0.3-1-1.6-1.6-2.6-1.9C828.5,750.5,825.8,750.8,824.8,751.1z
		 M817.6,683.6c-4.3,1.2-7.3,3-8.1,5c-0.7,1.8,0.2,3.9,2.8,6.2c5.8,5.3,7,21.4,7,34.1c0,5.6,2,10.2,5.1,11.4c2.4,1,5.4-0.2,8.5-3.4
		c3.6-3.7,5.7-19.4,1.3-33.5C831.9,696.1,827.2,687.2,817.6,683.6z M840.4,683.6c-3.1,0.3-5,1.2-5.3,2.2c-0.3,0.8,0.7,1.8,1.4,2.3
		c7,5.6,8.3,21.6,9.2,33.3c0.4,5.4,0.8,10,1.6,11.5c0.5,1,1.7,3.2,3.7,3.4c1.6,0.2,3.7-1.1,5.9-3.7c4.8-5.7,4.3-21.1-1.1-32.9
		C853.4,694.6,848.7,686.9,840.4,683.6z M604.5,625.4c-0.1,0-0.2,0-0.3,0c-2.3,0.1-4.2,1.7-5.7,4.7c-11.8,23.7,26.2,52.8,54,74.1
		c7,5.4,13.7,10.5,18.5,14.7c2.7,2.4,5.7,3.9,8.8,4.6c-7.4-10.5-15.4-22.9-23.2-35C636.7,657.5,616.2,625.4,604.5,625.4z
		 M532.3,653.8c-7,0-13.4,1-18.4,2.8c-8.5,3.2-11,6.2-10.5,7.9c1,3.6,13.7,6.4,34.6,2.1c7.4-1.5,14.9-4.3,21.9-8.2
		C550.9,655.3,541.1,653.8,532.3,653.8z M597.6,548.6c3.7,14.3,6,28.3,5.9,40.4c0,4.2-0.4,8.3-1,12.3c6.7-8.5,10.4-17.8,10.6-27.7
		c0.8-27.3-11.3-63.4-18.6-82.4c-0.8-2.1-1.6-4.2-2.4-6.3c-3.4,7.6-6.3,15.3-7.7,23.3c3.7,9.7,7.4,20.3,10.5,30.9
		c3.6-0.8,7.3-3.8,9.1-5.3c0.3-0.3,0.6-0.5,0.8-0.6c0.4-0.3,0.9-0.3,1.2,0c0.4,0.3,0.5,0.8,0.3,1.2
		C606.2,534.9,602.8,542.9,597.6,548.6z M290.3,474.8c7.2,6.3,12.4,13.5,14.9,21.2c4.6,14.1,6.5,37.1,7.9,53.9
		c0.8,9.1,1.6,18.5,2.5,21.3c0.2-0.5,0.6-1.5,1-3.1c1-3.8,2.2-7.5,3.5-11.5c6.1-19.1,13-40.7-0.7-72c-2.3-5.1-4-9.7-5.2-13.7
		c0,0,0,0-0.1,0c-4.1,0-9.9-2.5-17.9-11.3c-5.8-6.4-14-10.5-23.2-12.9c0.5,0.6,1.1,1.2,1.6,1.8C281.7,457.5,286.7,466.5,290.3,474.8
		z M570.3,479.9c-3.9,13.4-7,34.5,2.1,56.2c4.5,10.8,9.4,16.3,14.6,16.3c3,0,5.9-1.9,8.4-4.4c-0.6-2.2-1.2-4.5-1.8-6.7
		c-0.9,0-1.8-0.1-2.7-0.4c-3.5-1.1-6-4.7-7.6-10.7c-1.9-7.4-2-14.7-0.8-21.9C578.2,497.6,574,487.7,570.3,479.9z M414.1,523.8
		c0.6,0.9,1.1,1.8,1.6,2.6c6.2,9.8,32.1,24.4,55.7,19c16.8-3.8,38-19.2,44.1-70.9c1.1-9.6,2.4-18,3.8-25.1c-2.5-3.9-5.8-6.9-9.8-9
		c-5.5-2.8-11.7-3.3-16.6-1.2c-9.1,3.8-20-0.9-29-7.6c-0.1,0.5-0.2,1-0.3,1.5c-2.4,9.9,5.7,18,13.4,22.1c4.3,2.2,9.5,3.7,14.2,3.5
		c-2.1-8.9,1.5-12,3.2-12.9c2.8-1.5,6.5-0.7,8.4,1.8c1.9,2.4,1.5,5.6-1,8.6c-2.1,2.4-4.9,3.7-8,4.2c0,0.1,0.1,0.2,0.1,0.3
		c4.7,15.1,5.2,38.9-4.9,55.3c-5.9,9.5-14.6,15.3-25.9,17C449.2,535.1,429.5,531.7,414.1,523.8z M595.6,541c0.5,1.7,1,3.5,1.4,5.2
		c2.4-2.9,4.4-6.3,5.7-8.8C600.7,538.9,598.2,540.4,595.6,541z M583.9,512.3c-0.6,5.8-0.3,11.6,1.3,17.4c1.4,5.2,3.5,8.4,6.3,9.3
		c0.5,0.2,1,0.2,1.5,0.3C590.3,530.1,587.2,520.9,583.9,512.3z M392.1,494.1c0,0.7,0.1,2.2,1.1,5.7c1.9,7.1,7.5,13.3,15,18.2
		C403,509.5,394.8,496.1,392.1,494.1z M571.2,477.1c3.6,7.5,7.8,17,11.9,27.6c1.7-7.6,4.6-15.1,8-22.3c-4.5-11-8.9-20.5-12.9-28.1
		c-0.5,4.8-1.6,9.4-3.5,13.4C573.9,469.7,572.5,472.9,571.2,477.1z M578.5,450.5c4.4,8.1,9.2,18.4,13.8,29.5
		c0.6-1.1,1.1-2.3,1.7-3.4c4.3-8.5,7.4-16.2,9.4-23.4c-10.2-16.8-21.2-23.5-28.6-25.2C577.3,435.7,578.6,443.4,578.5,450.5z
		 M535.2,419.2c9.4,0,18.3,20.4,25,35.4c2,4.5,3.7,8.4,5,10.6c1.3,2.3,3,5.5,4.9,9.4c1.1-3.3,2.2-5.9,3-7.6c2.3-4.9,3.3-10.4,3.5-16
		c-4.3-7.8-7.9-13.1-10.2-15.1c-3.3-2.9-3-5.3-2.6-6.5c0.8-2.2,3.4-3.6,7-3.7c0.3,0,0.6,0,1,0c-3.1-8.3-7.5-16.2-12.4-22.9
		c-3.8-5.1-7.3-9-10.5-12.4c-0.5,1.4-1.1,2.8-1.8,4.2c-5.2,11.2-14,19.6-23,25.4c1.3,1.6,2.4,3.3,3.4,5.2c2.1-3.5,4.4-5.4,6.9-5.8
		C534.5,419.2,534.8,419.2,535.2,419.2z M221.4,448.4c25.7,2.2,49.5,11,65.4,23.5c-3.4-7.1-7.8-14.6-13.8-22
		c-1.2-1.5-2.5-2.8-3.9-3.9C253.3,442.8,235.2,444.4,221.4,448.4z M521.5,449.1c1.7,2.8,2.9,5.9,3.7,9.3c1.6,6.7,4.3,10.7,8.1,11.9
		c4.3,1.3,9.3-1.1,12.5-3.2c-3.5,0.4-8.4,0.3-11.7-2.4c-2.9-2.4-4.1-6.3-3.5-11.6c0.9-8.3-0.4-16.6-3.4-23.7
		C525.3,433.7,523.3,440,521.5,449.1z M316.5,454.6c-0.6,0-1.1,0.2-1.6,0.7c-0.9,1-2.1,4.1,0.6,13.5c0.5-0.1,1-0.2,1.4-0.4
		c3.7-1.7,5.3-6.5,5-9.3c-0.2-1.6-2.2-3.6-4.2-4.3C317.3,454.7,316.9,454.6,316.5,454.6z M497.4,447.1c-0.7,0-1.5,0.2-2.1,0.5
		c-2.7,1.4-3.4,5.4-2.1,10.9c2.8-0.4,5.2-1.6,7-3.6c1.9-2.2,2.3-4.4,1-6C500.3,447.7,498.9,447.1,497.4,447.1z M571.1,427.5
		c-0.1,0-0.2,0-0.4,0c-2.7,0.1-4.7,1-5.2,2.4c-0.4,1.2,0.3,2.8,2,4.4c2.3,2,5.4,6.4,8.8,12.4c-0.4-6.3-1.8-12.8-4-19.1
		C571.9,427.5,571.5,427.5,571.1,427.5z M449.5,409.2c-0.8,0-1.4,0.2-1.8,0.5c-0.4,0.7,1.3,4.6,6.7,10.5c2.1,2.4,4.9,5.1,8.1,7.6
		c0.5-8.7-3.9-14.6-8.4-17.2C452.3,409.6,450.6,409.2,449.5,409.2z M502.9,410.6c-8.6,0-14.4,4.4-15.6,8.9c-0.8,2.9,0.4,5.4,3.4,6.9
		c3.4,1.8,10.3,1.3,17.9-1.3c3.9-1.3,8.1-3.2,12.3-5.7c-4.7-5.2-10.5-8.3-16.4-8.7C503.9,410.6,503.4,410.6,502.9,410.6z
		 M274.8,415.8c2.6,2.6,7,4.4,10.4,4.2c2.9-0.2,4.3-1.9,4.1-4.9C288.5,414.2,282.9,414.4,274.8,415.8z M379.5,327.1
		c5.2,9.9,12.4,20.5,21.4,29.2c22.6,21.9,63.3,51.1,77.7,46.4c11.3-3.6,13.4-11.6,15.2-18.7c1.4-5.4,2.7-10.5,8.3-11.6
		c3.4-0.7,5.6-2.1,6.7-4.2c1.5-3,0.3-6.6,0-7.3c-0.6-0.6-0.5-1.2-0.4-1.6c0.4-1.3,2.3-1.8,5.3-2.5c2.9-0.7,7.3-1.8,7.6-3.6
		c0.1-0.9,0.2-2.2,0.3-3.6c0.5-6.2,1-13.9,5.5-14.5c2.7-0.4,7.9-2.8,10.9-7c2.1-2.9,2.9-6.3,2.2-9.9c-0.5-2.7-1.3-5.5-2.1-8.6
		c-2.7-9.7-5.7-20.7,1-29.2c3.7-4.7,7.4-7.6,10.4-9.9c3.7-2.9,6.2-4.8,6.4-8.5c0.1-2,1.4-6.1,3.2-11.9c5.1-16.6,13.7-44.4,5.1-55.8
		c-3.8-5-6.6-8.3-8.7-10.7c-0.3-0.4-0.6-0.7-0.9-1c-1.2,1.3-2.8,2.2-4.7,2.8c-4.7,1.4-9,1.6-13.1,1.9c-6.2,0.4-12.5,0.8-20.7,4.7
		c-4.1,2-6.4,4-9.1,6.4c-6.5,5.8-14.7,13.1-51.7,24.3c-11.3,3.4-21.3,5.2-30,5.6c-0.1,2.4-0.8,4.8-2.1,7.2c-2.2,4.2-4.8,9.9-7.5,16
		c-7.3,16.5-12.1,26.6-16,25.8c-2.4-0.5-3.5-4.5-3.7-13.5c-0.3-13.5-3.6-21.9-7.8-25.6c0,1.4-0.1,2.8-0.2,4.4
		c-1.4,13.4-6.6,20.1-10.7,21.8c-2,0.8-3.9,0.6-5.4-0.7c-2.8-2.3-3.5-7.7-1.9-14.7c2.1-9.7,7.5-15.6,13.8-15
		c0.7,0.1,1.5,0.2,2.2,0.5c-0.5-3.4-1.8-5.5-3.8-6.4c-5.1-2.1-15.7,4.3-24.5,15c-8.7,10.5-0.5,20.6,9.9,33.4
		c3.9,4.9,8,9.9,11.5,15.4C383.9,299.4,383.6,313.2,379.5,327.1z M546,354.7c-0.1,0-0.1,0-0.2,0c-0.6,0.1-2.2,0.7-3.9,5.2
		c-5.2,13.5-1.7,18.4,6,26.6c4.5-13.8,3.3-26.1,0-30.5C547.5,355.4,546.8,354.7,546,354.7z M296.9,361c-13,0-22,4.3-25,7.6
		c-1,1.1-1.5,2.2-1.1,2.8c0.5,0.9,2.7,1.8,7.5,1.2c10-1.1,17.8-5,24.3-11.4C300.6,361,298.7,361,296.9,361z M306.5,359.8
		c5.7,0.8,11.7,2.4,18,5c18.3,7.4,31.5-2.1,39.3-11.5c6.3-7.5,10.8-16.7,13.6-25.9c-1.4-2.6-2.6-5.3-3.7-7.8
		c-0.3,0.3-0.5,0.5-0.8,0.8c-1.8,1.5-4,1.9-6.4,1c-10.4-4-23.3-31-26.6-55.6c-0.6-4.8-1.2-9.9-1.7-15.2c-0.2,0.2-0.5,0.4-0.7,0.6
		c-11.9,9.3-10.9,25-9.9,41.7c0.7,12.4,1.5,25.2-3.1,35.9C319,341.5,313.4,352,306.5,359.8z M266.7,330.6
		c-3.3,10.6-2.3,16.5,0.6,18.4c4.6,3.1,14.6-2.5,22.1-12.6c16-21.3,16.6-26.4,15.5-27.6c-0.5-0.6-3.6-1.8-20.2,8.4
		C278.2,321.2,272.2,325.6,266.7,330.6z M375.2,317.8c0.9,2.2,1.9,4.4,3.1,6.7c3.4-13,3.2-25.3-0.9-31.7
		c-3.4-5.4-7.5-10.4-11.4-15.2c-10.5-13-19.6-24.2-9.9-35.9c7.9-9.6,19.7-18.5,26.8-15.5c3,1.3,4.7,4.4,5.1,9.3
		c5,3.3,9.5,11.9,9.9,28.2c0.2,10.9,1.9,11.6,2.1,11.6c2.6,0.5,9.6-15.2,13.8-24.6c2.7-6.1,5.3-11.9,7.5-16.1
		c1.1-2.1,1.7-4.1,1.8-6.2c-19.9,0.7-32.2-5.3-35.4-11.8c-1.8-3.8-0.6-7.7,3.2-10.3c7.5-5.3,18.7-1.7,25.7,4.7
		c4.3,3.8,8,9.3,8.4,15.4c8.5-0.5,18.4-2.2,29.5-5.5c36.5-11.1,44.5-18.2,50.9-23.9c2.8-2.5,5.3-4.7,9.6-6.7
		c8.5-4.1,15.1-4.5,21.5-4.9c4.2-0.3,8.2-0.5,12.7-1.8c1.6-0.5,2.9-1.3,3.9-2.4c-3.1-3.7-4.4-6-6-12c-2-7.9-6.7-23.4-11.8-37
		c-2.1-1.6-4.3-2.9-6.7-3.6c0.1,0.8,0,1.6-0.2,2.3c-1.7,5.8-9.1,7.6-20.7,8.6c-1.8,2.5-3.6,5.5-5.4,8.9
		c-11.6,22.1-41.5,34.2-64.6,40.5c-19.8,5.4-39.9,7.9-55.3,8.5c-2.6,3.6-4.6,6.9-6.1,9.7c-9.4,18.2-16.5,26.6-36.4,42.3
		c0.4,5.7,1.1,11.3,1.8,16.4c3.4,25.9,16.7,50.7,25.4,54c1.7,0.6,3.1,0.4,4.3-0.6c0.5-0.4,0.9-0.8,1.3-1.3
		c-4.3-10.5-5.8-19.1-3.4-21.9c1.2-1.3,2.4-1.3,3-1.1c2,0.5,3.7,3.2,4.7,7.3C378.3,306.6,378.3,313.1,375.2,317.8z M371.8,296.5
		c-0.2,0-0.5,0.1-0.9,0.5c-1.6,1.9-0.4,9.1,3.2,18.5c1.9-3.9,2-9,1-13.1c-0.8-3.5-2.3-5.6-3.2-5.8
		C372,296.5,371.9,296.5,371.8,296.5z M382.8,235.8c-4.8,0-9.2,5.3-11,13.4c-1.4,6.2-0.9,11,1.2,12.8c1.1,1,2.4,0.7,3.3,0.4
		c3.8-1.6,8.3-8.4,9.5-20.1c0.2-2.1,0.3-4,0.2-5.6c-0.9-0.4-1.7-0.7-2.6-0.8C383.3,235.8,383,235.8,382.8,235.8z M362.3,196.5
		c-5.7,0-10.4,1.8-13.9,5.4c-8.6,8.8-9.7,27.2-8.5,44.8c19-15.1,25.6-23,34.8-40.8c1.3-2.6,3.1-5.5,5.4-8.7
		c-5.7,0.1-10.6-0.1-14.6-0.5C364.4,196.5,363.3,196.5,362.3,196.5z M399.5,205.6c-2.7,0-5.2,0.7-7.4,2.2c-3.1,2.1-4,4.9-2.5,7.8
		c2.9,5.9,14.7,11.3,33.5,10.7c-0.4-5.5-3.8-10.5-7.7-14C411,208.4,405,205.6,399.5,205.6z M505.3,139.5c-2.7,0.2-5.7,0.4-8.8,0.6
		c-11.2,0.7-25.2,1.7-40,4.6c-30.6,6-58.1,31.4-72.4,50.4c37.8-1.6,99.6-15.3,116.6-47.8C502.2,144.3,503.7,141.8,505.3,139.5z
		 M538.6,134.7c5.9,16.4,10.5,33.4,10.6,33.7c1.4,5.4,2.5,7.5,5.2,10.8c0.1-0.3,0.3-0.6,0.4-0.9c2.6-6.3,0.2-17.9-6.1-29.6
		C546.4,144.7,543,139.1,538.6,134.7z M524.8,127.7c0,0-0.1,0-0.1,0c-5.2,0-10.3,3.2-15.2,9.4c9.5-1,15.8-2.7,17.1-7
		c0.2-0.7,0.2-1.4,0.1-2.2C526.1,127.7,525.4,127.7,524.8,127.7z"/>
</g>
</svg>
