<?xml version="1.0" encoding="utf-8"?>
<!-- Generator: Adobe Illustrator 26.5.0, SVG Export Plug-In . SVG Version: 6.00 Build 0)  -->
<svg version="1.1" id="Calque_1" xmlns="http://www.w3.org/2000/svg" xmlns:xlink="http://www.w3.org/1999/xlink" x="0px" y="0px"
	 viewBox="0 0 50 50" style="enable-background:new 0 0 50 50;" xml:space="preserve">
<style type="text/css">
	.st0{fill:#F7E015;}
	.st1{fill:#020203;}
	.st2{fill:#3677BC;}
	.st3{fill:#FFFFFF;}
	.st4{fill:#679E63;}
	.st5{fill:url(#SVGID_1_);}
	.st6{fill:url(#SVGID_00000115498224537874547530000015338395503693410472_);}
	.st7{fill:url(#SVGID_00000176726606242987526550000005298606695397186218_);}
	.st8{fill:#55C3EA;}
	.st9{fill:#C31532;}
	.st10{fill:#42B27F;}
	.st11{fill:#30495E;}
	.st12{fill:#161617;}
	.st13{fill:#2465AF;}
	.st14{fill-rule:evenodd;clip-rule:evenodd;}
	.st15{fill:#0A70B8;}
	.st16{fill:#2EA9DF;}
	.st17{fill:#CFCFCF;}
	.st18{fill:#E44E28;}
	.st19{fill:#EC662B;}
	.st20{fill:#8A93BE;}
	.st21{fill:#232532;}
</style>
<g>
	<polygon class="st15" points="39.1,45.1 25.7,48.8 12.3,45.1 9.3,11.7 42.1,11.7 	"/>
	<polygon class="st15" points="25.7,14.4 25.7,45.9 14.5,42.7 12,14.4 	"/>
	<polygon class="st16" points="39,14.4 36.5,43 25.7,45.9 25.7,14.4 	"/>
	<polygon class="st3" points="36.2,22.6 27.1,26.6 35.8,26.6 34.7,39.3 25.7,41.8 25.7,37.5 30.6,36 31,30.6 25.7,30.7 25.7,18.3 
		36.6,18.3 	"/>
	<polygon class="st17" points="25.7,18.3 25.7,30.7 15.7,30.7 15.4,26.5 25.4,22.1 14.9,22.1 14.5,18.3 	"/>
	<polygon class="st17" points="20.4,36.5 25.7,37.5 25.7,41.8 16.6,39.4 16,33.1 20.1,33.1 	"/>
	<polygon class="st1" points="21.9,4.8 21.9,3 15.9,3 15.9,9.1 21.9,9.1 21.9,7.6 17.7,7.6 17.7,4.8 	"/>
	<polygon class="st1" points="28.7,4.7 24.3,4.7 24.3,5.5 28.7,5.5 28.7,9.1 22.6,9.1 22.6,7.7 26.9,7.7 26.9,6.7 22.6,6.7 22.6,3 
		28.7,3 	"/>
	<polygon class="st1" points="35.5,4.7 31.1,4.7 31.1,5.5 35.5,5.5 35.5,9.1 29.4,9.1 29.4,7.7 33.6,7.7 33.6,6.7 29.4,6.7 29.4,3 
		35.5,3 	"/>
</g>
</svg>
