<?xml version="1.0" encoding="utf-8"?>
<!-- Generator: Adobe Illustrator 26.5.0, SVG Export Plug-In . SVG Version: 6.00 Build 0)  -->
<svg version="1.1" id="Calque_1" xmlns="http://www.w3.org/2000/svg" xmlns:xlink="http://www.w3.org/1999/xlink" x="0px" y="0px"
	 viewBox="0 0 50 50" style="enable-background:new 0 0 50 50;" xml:space="preserve">
<style type="text/css">
	.st0{fill:#F7E015;}
	.st1{fill:#020203;}
	.st2{fill:#3677BC;}
	.st3{fill:#FFFFFF;}
	.st4{fill:#679E63;}
	.st5{fill:url(#SVGID_1_);}
	.st6{fill:url(#SVGID_00000154394258035013031470000000422733589855413420_);}
	.st7{fill:url(#SVGID_00000102525931818804203410000000518715326886236313_);}
	.st8{fill:#55C3EA;}
	.st9{fill:#C31532;}
	.st10{fill:#42B27F;}
	.st11{fill:#30495E;}
	.st12{fill:#161617;}
	.st13{fill:#2465AF;}
	.st14{fill-rule:evenodd;clip-rule:evenodd;}
	.st15{fill:#0A70B8;}
	.st16{fill:#2EA9DF;}
	.st17{fill:#CFCFCF;}
	.st18{fill:#E44E28;}
	.st19{fill:#EC662B;}
	.st20{fill:#8A93BE;}
	.st21{fill:#232532;}
</style>
<g>
	<path class="st13" d="M46.5,25.2c0,12.3-9.6,22.3-21.4,22.3c-11.8,0-21.4-10-21.4-22.3c0-12.3,9.6-22.3,21.4-22.3
		C36.9,2.9,46.5,12.9,46.5,25.2z"/>
	<g>
		<g>
			<rect x="14.1" y="21.4" class="st3" width="4.7" height="15.2"/>
			<path class="st3" d="M16.5,13.8c-1.5,0-2.5,1.1-2.5,2.7c0,1.5,1,2.6,2.5,2.6c1.6,0,2.6-1.2,2.6-2.6C19,14.9,18,13.8,16.5,13.8z"
				/>
		</g>
		<path class="st3" d="M30.7,21.1c-2.1,0-3.5,1-4.3,1.9v-1.6h-4.7v15.2h4.7v-8.5c0-0.5,0.1-0.9,0.2-1.2c0.3-0.9,1.1-1.9,2.4-1.9
			c1.7,0,2.4,1.4,2.4,3.4v8.1h4.7v-8.8C36.1,23.2,33.8,21.1,30.7,21.1z"/>
	</g>
</g>
</svg>
