<?xml version="1.0" encoding="utf-8"?>
<!-- Generator: Adobe Illustrator 26.5.0, SVG Export Plug-In . SVG Version: 6.00 Build 0)  -->
<svg version="1.1" id="Calque_1" xmlns="http://www.w3.org/2000/svg" xmlns:xlink="http://www.w3.org/1999/xlink" x="0px" y="0px"
	 viewBox="0 0 50 50" style="enable-background:new 0 0 50 50;" xml:space="preserve">
<style type="text/css">
	.st0{fill:#F7E015;}
	.st1{fill:#020203;}
	.st2{fill:#3677BC;}
	.st3{fill:#FFFFFF;}
	.st4{fill:#679E63;}
	.st5{fill:url(#SVGID_1_);}
	.st6{fill:url(#SVGID_00000134216211520229199030000003494962846487543709_);}
	.st7{fill:url(#SVGID_00000149380763146609923790000014711577052902037686_);}
	.st8{fill:#55C3EA;}
	.st9{fill:#C31532;}
	.st10{fill:#42B27F;}
	.st11{fill:#30495E;}
	.st12{fill:#161617;}
	.st13{fill:#2465AF;}
	.st14{fill-rule:evenodd;clip-rule:evenodd;}
	.st15{fill:#0A70B8;}
	.st16{fill:#2EA9DF;}
	.st17{fill:#CFCFCF;}
	.st18{fill:#E44E28;}
	.st19{fill:#EC662B;}
	.st20{fill:#8A93BE;}
	.st21{fill:#232532;}
</style>
<g>
	<path class="st4" d="M24.5,40.5c-0.1,0-0.3,0-0.4-0.1l-1.3-0.8c-0.2-0.1-0.1-0.1,0-0.2c0.3-0.1,0.3-0.1,0.6-0.3c0,0,0.1,0,0.1,0
		l1,0.6c0,0,0.1,0,0.1,0l3.9-2.3c0,0,0.1-0.1,0.1-0.1v-4.5c0,0,0-0.1-0.1-0.1l-3.9-2.3c0,0-0.1,0-0.1,0l-3.9,2.3
		c0,0-0.1,0.1-0.1,0.1v4.5c0,0,0,0.1,0.1,0.1l1.1,0.6c0.6,0.3,0.9-0.1,0.9-0.4v-4.5c0-0.1,0.1-0.1,0.1-0.1h0.5c0.1,0,0.1,0,0.1,0.1
		v4.5c0,0.8-0.4,1.2-1.2,1.2c-0.2,0-0.4,0-0.9-0.2l-1-0.6c-0.3-0.1-0.4-0.4-0.4-0.7v-4.5c0-0.3,0.2-0.6,0.4-0.7l3.9-2.3
		c0.2-0.1,0.6-0.1,0.8,0l3.9,2.3c0.3,0.1,0.4,0.4,0.4,0.7v4.5c0,0.3-0.2,0.6-0.4,0.7l-3.9,2.3C24.8,40.4,24.7,40.5,24.5,40.5"/>
	<path class="st4" d="M25.7,37.3c-1.7,0-2.1-0.8-2.1-1.5c0-0.1,0.1-0.1,0.1-0.1h0.5c0.1,0,0.1,0,0.1,0.1c0.1,0.5,0.3,0.8,1.4,0.8
		c0.8,0,1.2-0.2,1.2-0.6c0-0.3-0.1-0.4-1.4-0.6c-1.1-0.1-1.7-0.3-1.7-1.2c0-0.8,0.7-1.3,1.8-1.3c1.3,0,1.9,0.4,2,1.4
		c0,0,0,0.1,0,0.1c0,0-0.1,0-0.1,0h-0.5c-0.1,0-0.1,0-0.1-0.1c-0.1-0.5-0.4-0.7-1.2-0.7c-0.9,0-1,0.3-1,0.6c0,0.3,0.1,0.4,1.4,0.5
		c1.2,0.2,1.8,0.4,1.8,1.2C27.7,36.8,27,37.3,25.7,37.3"/>
	<path class="st1" d="M35,15.2l-2.5-1.4c-0.2-0.1-0.3,0-0.3,0.2v6.8L30.9,20c-0.2-0.1-0.4-0.1-0.6,0l-4.1,2.4
		c-0.2,0.1-0.3,0.3-0.3,0.5v4.7c0,0.2,0.1,0.4,0.3,0.5l4.1,2.4c0.2,0.1,0.4,0.1,0.6,0l4.1-2.4c0.2-0.1,0.3-0.3,0.3-0.5V15.7
		C35.3,15.5,35.1,15.3,35,15.2z M32.1,26c0,0.1,0,0.1-0.1,0.2L30.7,27c-0.1,0-0.1,0-0.2,0l-1.4-0.8C29,26.2,29,26.1,29,26v-1.6
		c0-0.1,0-0.1,0.1-0.2l1.4-0.8c0.1,0,0.1,0,0.2,0l1.4,0.8c0.1,0,0.1,0.1,0.1,0.2V26z"/>
	<path class="st1" d="M12,22.3L7.9,20c-0.2-0.1-0.4-0.1-0.6,0l-4.1,2.4c-0.2,0.1-0.3,0.3-0.3,0.5v6.4c0,0.2,0.1,0.3,0.3,0.2L5.7,28
		C5.9,27.9,6,27.6,6,27.4v-3c0-0.1,0-0.1,0.1-0.2l1.4-0.8c0.1,0,0.1,0,0.2,0l1.4,0.8c0.1,0,0.1,0.1,0.1,0.2v3c0,0.2,0.1,0.4,0.3,0.5
		l2.5,1.5c0.2,0.1,0.3,0,0.3-0.2v-6.4C12.3,22.6,12.2,22.4,12,22.3z"/>
	<g>
		<path class="st1" d="M46.8,22.8C46.7,22.8,46.7,22.8,46.8,22.8L46.8,22.8C46.7,22.8,46.7,22.8,46.8,22.8c0-0.1,0-0.1,0-0.1
			c0,0,0,0,0,0c0,0,0,0,0,0c0,0,0,0,0-0.1l0,0c0,0,0-0.1,0-0.1c0,0,0,0,0,0c0,0,0,0,0,0c0,0,0,0,0,0c0,0,0,0,0,0c0,0,0,0,0,0
			c0,0,0,0,0,0c0,0,0,0-0.1,0l-0.9-0.5L42.3,20c-0.2-0.1-0.4-0.1-0.6,0l-4.1,2.4c-0.2,0.1-0.3,0.3-0.3,0.5v4.7
			c0,0.2,0.1,0.4,0.3,0.5l1.3,0.7l2.8,1.6c0.2,0.1,0.4,0.1,0.6,0l2.5-1.5c0.2-0.1,0.2-0.3,0-0.4l-4.3-2.5c-0.1,0-0.1-0.1-0.1-0.2
			v-1.6c0-0.1,0-0.1,0.1-0.2l1.4-0.8c0.1,0,0.1,0,0.2,0l1.4,0.8c0.1,0,0.1,0.1,0.1,0.2v1.2c0,0.2,0.1,0.3,0.3,0.2l1.3-0.8l0,0
			l1.2-0.7c0.2-0.1,0.3-0.3,0.3-0.5v-0.8L46.8,22.8C46.8,22.9,46.8,22.8,46.8,22.8z"/>
		<path class="st4" d="M42.1,24.1c0,0-0.1,0-0.1,0l-0.8,0.4c0,0-0.1,0.1-0.1,0.1v0.9c0,0,0,0.1,0.1,0.1l0.8,0.4c0,0,0.1,0,0.1,0
			l0.8-0.4c0,0,0.1-0.1,0.1-0.1v-0.9c0,0,0-0.1-0.1-0.1L42.1,24.1z"/>
	</g>
	<g>
		<linearGradient id="SVGID_1_" gradientUnits="userSpaceOnUse" x1="22.5355" y1="18.9886" x2="13.9205" y2="34.5746">
			<stop  offset="0" style="stop-color:#3F873F"/>
			<stop  offset="0.3296" style="stop-color:#3F8B3D"/>
			<stop  offset="0.6367" style="stop-color:#3E9638"/>
			<stop  offset="0.9341" style="stop-color:#3DA92E"/>
			<stop  offset="1" style="stop-color:#3DAE2B"/>
		</linearGradient>
		<path class="st5" d="M18.8,20l-4.1,2.4c-0.2,0.1-0.3,0.3-0.3,0.5v4.7c0,0.2,0.1,0.4,0.3,0.5l4.1,2.4c0.2,0.1,0.4,0.1,0.6,0
			l4.1-2.4c0.2-0.1,0.3-0.3,0.3-0.5v-4.7c0-0.2-0.1-0.4-0.3-0.5L19.4,20C19.2,19.9,18.9,19.9,18.8,20z"/>
		
			<linearGradient id="SVGID_00000127751928062627312850000007936655381891626409_" gradientUnits="userSpaceOnUse" x1="11.2549" y1="25.5504" x2="28.3037" y2="24.8833">
			<stop  offset="0" style="stop-color:#3F873F"/>
			<stop  offset="0.3296" style="stop-color:#3F8B3D"/>
			<stop  offset="0.6367" style="stop-color:#3E9638"/>
			<stop  offset="0.9341" style="stop-color:#3DA92E"/>
			<stop  offset="1" style="stop-color:#3DAE2B"/>
		</linearGradient>
		<path style="fill:url(#SVGID_00000127751928062627312850000007936655381891626409_);" d="M14.4,27.6c-0.1,0.2,0,0.4,0.1,0.5
			l4.3,2.5c0.2,0.1,0.4,0,0.5-0.1l4.4-7.5c0.1-0.2,0-0.4-0.1-0.5l-4.3-2.5c-0.2-0.1-0.4,0-0.5,0.1L14.4,27.6z"/>
		
			<linearGradient id="SVGID_00000137845491016013956910000017908738543312193958_" gradientUnits="userSpaceOnUse" x1="14.6101" y1="24.8842" x2="23.6146" y2="25.61">
			<stop  offset="0" style="stop-color:#6ABF4B"/>
			<stop  offset="9.191650e-02" style="stop-color:#6ABF4B"/>
			<stop  offset="0.2871" style="stop-color:#64B749"/>
			<stop  offset="0.5984" style="stop-color:#52A044"/>
			<stop  offset="0.8624" style="stop-color:#3F873F"/>
			<stop  offset="1" style="stop-color:#3F873F"/>
		</linearGradient>
		<path style="fill:url(#SVGID_00000137845491016013956910000017908738543312193958_);" d="M23.7,27.6c0.1,0.2,0,0.4-0.1,0.5
			l-4.3,2.5c-0.2,0.1-0.4,0-0.5-0.1l-4.4-7.5c-0.1-0.2,0-0.4,0.1-0.5l4.3-2.5c0.2-0.1,0.4,0,0.5,0.1L23.7,27.6z"/>
	</g>
</g>
</svg>
