<?xml version="1.0" encoding="utf-8"?>
<!-- Generator: Adobe Illustrator 26.5.0, SVG Export Plug-In . SVG Version: 6.00 Build 0)  -->
<svg version="1.1" id="Calque_1" xmlns="http://www.w3.org/2000/svg" xmlns:xlink="http://www.w3.org/1999/xlink" x="0px" y="0px"
	 viewBox="0 0 50 50" style="enable-background:new 0 0 50 50;" xml:space="preserve">
<style type="text/css">
	.st0{fill:#F7E015;}
	.st1{fill:#020203;}
	.st2{fill:#3677BC;}
	.st3{fill:#FFFFFF;}
	.st4{fill:#679E63;}
	.st5{fill:url(#SVGID_1_);}
	.st6{fill:url(#SVGID_00000122682465483303708190000006818804071860379041_);}
	.st7{fill:url(#SVGID_00000005236175096311522910000004360656205609665194_);}
	.st8{fill:#55C3EA;}
	.st9{fill:#C31532;}
	.st10{fill:#42B27F;}
	.st11{fill:#30495E;}
	.st12{fill:#161617;}
	.st13{fill:#2465AF;}
	.st14{fill-rule:evenodd;clip-rule:evenodd;}
	.st15{fill:#0A70B8;}
	.st16{fill:#2EA9DF;}
	.st17{fill:#CFCFCF;}
	.st18{fill:#E44E28;}
	.st19{fill:#EC662B;}
	.st20{fill:#8A93BE;}
	.st21{fill:#232532;}
	.st22{clip-path:url(#SVGID_00000111910503140163632750000008073482599319872384_);fill:#211F20;}
	.st23{clip-path:url(#SVGID_00000111910503140163632750000008073482599319872384_);fill:#FFFFFF;}
	.st24{clip-path:url(#SVGID_00000140010838390126655460000005935756351007695014_);fill:#211F1F;}
	.st25{fill:#280D0D;}
	.st26{fill:#F4991C;}
	.st27{fill:#132035;}
	.st28{fill:#53A0D8;}
	.st29{fill:#400F21;}
	.st30{fill:#E94869;}
</style>
<g>
	<path class="st25" d="M39.2,44.4H12.3c-4.2,0-7.5-3.4-7.5-7.5V10.9c0-4.2,3.4-7.5,7.5-7.5h26.9c4.2,0,7.5,3.4,7.5,7.5v25.9
		C46.7,41,43.3,44.4,39.2,44.4z"/>
	<g>
		<rect x="33.4" y="19.8" class="st26" width="3.8" height="14"/>
		<circle class="st26" cx="35.3" cy="16.1" r="2.2"/>
		<g>
			<path class="st26" d="M25.1,15.3h-4.9l0,0c0,0.8-0.1,1.7-0.4,2.4l-5.8,16.1H18l1.5-4.4l6.5,0l1.5,4.5h4.3L25.1,15.3z M20.5,25.8
				l2.1-7.2l2.2,7.2H20.5z"/>
		</g>
	</g>
</g>
</svg>
