<?xml version="1.0" encoding="utf-8"?>
<!-- Generator: Adobe Illustrator 26.5.0, SVG Export Plug-In . SVG Version: 6.00 Build 0)  -->
<svg version="1.1" id="Calque_1" xmlns="http://www.w3.org/2000/svg" xmlns:xlink="http://www.w3.org/1999/xlink" x="0px" y="0px"
	 viewBox="0 0 50 50" style="enable-background:new 0 0 50 50;" xml:space="preserve">
<style type="text/css">
	.st0{fill:#F7E015;}
	.st1{fill:#020203;}
	.st2{fill:#3677BC;}
	.st3{fill:#FFFFFF;}
	.st4{fill:#679E63;}
	.st5{fill:url(#SVGID_1_);}
	.st6{fill:url(#SVGID_00000025412423841417784060000006468916611857142437_);}
	.st7{fill:url(#SVGID_00000134946414144547802010000003282578099699400096_);}
	.st8{fill:#55C3EA;}
	.st9{fill:#C31532;}
	.st10{fill:#42B27F;}
	.st11{fill:#30495E;}
	.st12{fill:#161617;}
	.st13{fill:#2465AF;}
	.st14{fill-rule:evenodd;clip-rule:evenodd;}
	.st15{fill:#0A70B8;}
	.st16{fill:#2EA9DF;}
	.st17{fill:#CFCFCF;}
	.st18{fill:#E44E28;}
	.st19{fill:#EC662B;}
	.st20{fill:#8A93BE;}
	.st21{fill:#232532;}
</style>
<g>
	<path class="st12" d="M47.1,25c0-12-9.8-21.8-21.8-21.8C13.3,3.2,3.5,13,3.5,25c0,10.9,8,19.9,18.4,21.5V31.3h-5.6V25h5.6l0-4.8
		c0-5.5,3.2-8.5,8.2-8.5c2.4,0,4.9,0.5,4.9,0.5v5.3h-2.7c-2.7,0-3.6,1.7-3.6,3.4l0,4.1h6.1l-1,6.3h-5.1v15.2
		C39.1,44.9,47.1,35.9,47.1,25"/>
</g>
</svg>
