<?xml version="1.0" encoding="utf-8"?>
<!-- Generator: Adobe Illustrator 26.5.0, SVG Export Plug-In . SVG Version: 6.00 Build 0)  -->
<svg version="1.1" id="Calque_1" xmlns="http://www.w3.org/2000/svg" xmlns:xlink="http://www.w3.org/1999/xlink" x="0px" y="0px"
	 viewBox="0 0 50 50" style="enable-background:new 0 0 50 50;" xml:space="preserve">
<style type="text/css">
	.st0{fill:#F7E015;}
	.st1{fill:#020203;}
	.st2{fill:#3677BC;}
	.st3{fill:#FFFFFF;}
	.st4{fill:#679E63;}
	.st5{fill:url(#SVGID_1_);}
	.st6{fill:url(#SVGID_00000105404569596583340810000003497875770186267815_);}
	.st7{fill:url(#SVGID_00000072276257475327726120000001770078263551727756_);}
	.st8{fill:#55C3EA;}
	.st9{fill:#C31532;}
	.st10{fill:#42B27F;}
	.st11{fill:#30495E;}
	.st12{fill:#161617;}
	.st13{fill:#2465AF;}
	.st14{fill-rule:evenodd;clip-rule:evenodd;}
	.st15{fill:#0A70B8;}
	.st16{fill:#2EA9DF;}
	.st17{fill:#CFCFCF;}
	.st18{fill:#E44E28;}
	.st19{fill:#EC662B;}
	.st20{fill:#8A93BE;}
	.st21{fill:#232532;}
</style>
<g>
	<path class="st14" d="M24.9,4.4c12.6,0,22.9,9.6,22.9,21.4c0,9.5-6.5,17.5-15.6,20.3c-1.2,0.2-1.6-0.5-1.6-1c0-0.7,0-3,0-5.9
		c0-2-0.7-3.3-1.6-4c5.1-0.5,10.5-2.3,10.5-10.6c0-2.3-0.9-4.2-2.4-5.7c0.2-0.5,1-2.7-0.2-5.7c0,0-1.9-0.6-6.3,2.2
		c-1.8-0.5-3.8-0.7-5.7-0.7c-1.9,0-3.9,0.2-5.7,0.7c-4.4-2.8-6.3-2.2-6.3-2.2c-1.2,2.9-0.5,5.1-0.2,5.7c-1.5,1.5-2.4,3.4-2.4,5.7
		c0,8.2,5.3,10,10.4,10.6c-0.7,0.5-1.2,1.5-1.5,2.9c-1.3,0.5-4.6,1.5-6.7-1.8c0,0-1.2-2.1-3.5-2.2c0,0-2.2,0-0.2,1.3
		c0,0,1.5,0.7,2.5,3.1c0,0,1.3,3.8,7.7,2.5c0,1.8,0,3.5,0,4c0,0.6-0.4,1.2-1.6,1C8.6,43.3,2,35.3,2,25.8C2,14,12.3,4.4,24.9,4.4"/>
</g>
</svg>
