<?xml version="1.0" encoding="utf-8"?>
<!-- Generator: Adobe Illustrator 26.5.0, SVG Export Plug-In . SVG Version: 6.00 Build 0)  -->
<svg version="1.1" id="Calque_1" xmlns="http://www.w3.org/2000/svg" xmlns:xlink="http://www.w3.org/1999/xlink" x="0px" y="0px"
	 viewBox="0 0 50 50" style="enable-background:new 0 0 50 50;" xml:space="preserve">
<style type="text/css">
	.st0{fill:#F7E015;}
	.st1{fill:#020203;}
	.st2{fill:#3677BC;}
	.st3{fill:#FFFFFF;}
	.st4{fill:#679E63;}
	.st5{fill:url(#SVGID_1_);}
	.st6{fill:url(#SVGID_00000051365455808617076950000008037705846480958609_);}
	.st7{fill:url(#SVGID_00000065776682481522167710000017153533667259346595_);}
	.st8{fill:#55C3EA;}
	.st9{fill:#C31532;}
	.st10{fill:#42B27F;}
	.st11{fill:#30495E;}
	.st12{fill:#161617;}
	.st13{fill:#2465AF;}
	.st14{fill-rule:evenodd;clip-rule:evenodd;}
	.st15{fill:#0A70B8;}
	.st16{fill:#2EA9DF;}
	.st17{fill:#CFCFCF;}
	.st18{fill:#E44E28;}
	.st19{fill:#EC662B;}
	.st20{fill:#8A93BE;}
	.st21{fill:#232532;}
</style>
<g>
	<rect x="4.7" y="4.1" class="st0" width="41.8" height="41.8"/>
	<g>
		<path class="st1" d="M15.5,39.1l3.2-1.9c0.6,1.1,1.2,2,2.5,2c1.3,0,2.1-0.5,2.1-2.5V23.4h3.9v13.4c0,4.1-2.4,5.9-5.8,5.9
			C18.2,42.6,16.4,41,15.5,39.1z"/>
		<path class="st1" d="M29.3,38.7l3.2-1.8c0.8,1.4,1.9,2.4,3.9,2.4c1.6,0,2.7-0.8,2.7-1.9c0-1.3-1.1-1.8-2.8-2.6l-1-0.4
			c-2.8-1.2-4.7-2.7-4.7-5.9c0-2.9,2.2-5.2,5.7-5.2c2.5,0,4.3,0.9,5.6,3.1l-3,2c-0.7-1.2-1.4-1.7-2.5-1.7c-1.1,0-1.9,0.7-1.9,1.7
			c0,1.2,0.7,1.6,2.4,2.4l1,0.4c3.3,1.4,5.2,2.9,5.2,6.1c0,3.5-2.8,5.4-6.5,5.4C32.8,42.6,30.4,40.9,29.3,38.7z"/>
	</g>
</g>
</svg>
