<?xml version="1.0" encoding="utf-8"?>
<!-- Generator: Adobe Illustrator 26.5.0, SVG Export Plug-In . SVG Version: 6.00 Build 0)  -->
<svg version="1.1" id="Calque_1" xmlns="http://www.w3.org/2000/svg" xmlns:xlink="http://www.w3.org/1999/xlink" x="0px" y="0px"
	 viewBox="0 0 50 50" style="enable-background:new 0 0 50 50;" xml:space="preserve">
<style type="text/css">
	.st0{fill:#F7E015;}
	.st1{fill:#020203;}
	.st2{fill:#3677BC;}
	.st3{fill:#FFFFFF;}
	.st4{fill:#679E63;}
	.st5{fill:url(#SVGID_1_);}
	.st6{fill:url(#SVGID_00000071552215532627317440000014559783327674135953_);}
	.st7{fill:url(#SVGID_00000133531154493291987660000009022968964038442135_);}
	.st8{fill:#55C3EA;}
	.st9{fill:#C31532;}
	.st10{fill:#42B27F;}
	.st11{fill:#30495E;}
	.st12{fill:#161617;}
	.st13{fill:#2465AF;}
	.st14{fill-rule:evenodd;clip-rule:evenodd;}
	.st15{fill:#0A70B8;}
	.st16{fill:#2EA9DF;}
	.st17{fill:#CFCFCF;}
	.st18{fill:#E44E28;}
	.st19{fill:#EC662B;}
	.st20{fill:#8A93BE;}
	.st21{fill:#232532;}
	.st22{clip-path:url(#SVGID_00000100362318617406777810000006456278613321218475_);fill:#211F20;}
	.st23{clip-path:url(#SVGID_00000100362318617406777810000006456278613321218475_);fill:#FFFFFF;}
	.st24{clip-path:url(#SVGID_00000008829559548398422090000007689175797036425600_);fill:#211F1F;}
	.st25{fill:#280D0D;}
	.st26{fill:#F4991C;}
	.st27{fill:#132035;}
	.st28{fill:#53A0D8;}
	.st29{fill:#400F21;}
	.st30{fill:#E94869;}
</style>
<g>
	<path class="st29" d="M38.8,45.3H11.6C7.4,45.3,4,42,4,37.9V12.1C4,8,7.4,4.7,11.6,4.7h27.1c4.2,0,7.6,3.3,7.6,7.5v25.7
		C46.4,42,43,45.3,38.8,45.3z"/>
	<g>
		<rect x="15.2" y="16.6" class="st30" width="4.1" height="18.4"/>
		<g>
			<path class="st30" d="M31.1,15v5.6h-2.5c-3.5,0-6.3,2.8-6.3,6.2v2.1c0,3.4,2.8,6.2,6.3,6.2h2.5c0,0,4-0.3,4.1-1.5v-1.8v-7.9v-3.3
				V15H31.1z M31.1,31.8h-1.5c-1.9,0-3.4-1.5-3.4-3.4v-1.1c0-1.9,1.5-3.4,3.4-3.4h1.5V31.8z"/>
		</g>
	</g>
</g>
</svg>
