<?xml version="1.0" encoding="utf-8"?>
<!-- Generator: Adobe Illustrator 26.5.0, SVG Export Plug-In . SVG Version: 6.00 Build 0)  -->
<svg version="1.1" id="Calque_1" xmlns="http://www.w3.org/2000/svg" xmlns:xlink="http://www.w3.org/1999/xlink" x="0px" y="0px"
	 viewBox="0 0 50 50" style="enable-background:new 0 0 50 50;" xml:space="preserve">
<style type="text/css">
	.st0{fill:#F7E015;}
	.st1{fill:#020203;}
	.st2{fill:#3677BC;}
	.st3{fill:#FFFFFF;}
	.st4{fill:#679E63;}
	.st5{fill:url(#SVGID_1_);}
	.st6{fill:url(#SVGID_00000157271813032894954280000015762505985453539230_);}
	.st7{fill:url(#SVGID_00000005225578758387104720000017404427730854287276_);}
	.st8{fill:#55C3EA;}
	.st9{fill:#C31532;}
	.st10{fill:#42B27F;}
	.st11{fill:#30495E;}
	.st12{fill:#161617;}
	.st13{fill:#2465AF;}
	.st14{fill-rule:evenodd;clip-rule:evenodd;}
	.st15{fill:#0A70B8;}
	.st16{fill:#2EA9DF;}
	.st17{fill:#CFCFCF;}
	.st18{fill:#E44E28;}
	.st19{fill:#EC662B;}
	.st20{fill:#8A93BE;}
	.st21{fill:#232532;}
</style>
<ellipse class="st20" cx="24.7" cy="25" rx="23.5" ry="12.3"/>
<path class="st21" d="M17.7,19.1h-4.6v0h-1.7l-2.6,13h3l0.6-3.4h3c3.2,0,5.7-2.6,5.7-5.7v-0.5C21.2,20.7,19.6,19.1,17.7,19.1z
	 M18,23.5c0,1.6-1.3,2.9-2.9,2.9h-2l0.8-4.8h2.5c0.8,0,1.5,0.7,1.5,1.5V23.5z"/>
<path class="st21" d="M39.3,19.1h-4.6v0H33l-2.6,13h3l0.6-3.4h3c3.2,0,5.7-2.6,5.7-5.7v-0.5C42.8,20.7,41.2,19.1,39.3,19.1z
	 M39.6,23.5c0,1.6-1.3,2.9-2.9,2.9h-2l0.8-4.8h2.5c0.8,0,1.5,0.7,1.5,1.5V23.5z"/>
<path class="st21" d="M28.8,19.2l-3.2,0l0.7-3.4h-3l-2.6,13.1h3l1.4-7.3h2.9c0.4,0,0.7,0.4,0.7,0.8l-1.2,6.4h3.1l1.2-7v0
	C32,20.6,30.8,19.2,28.8,19.2z"/>
</svg>
