<?xml version="1.0" encoding="utf-8"?>
<!-- Generator: Adobe Illustrator 26.5.0, SVG Export Plug-In . SVG Version: 6.00 Build 0)  -->
<svg version="1.1" id="Calque_1" xmlns="http://www.w3.org/2000/svg" xmlns:xlink="http://www.w3.org/1999/xlink" x="0px" y="0px"
	 viewBox="0 0 50 50" style="enable-background:new 0 0 50 50;" xml:space="preserve">
<style type="text/css">
	.st0{fill:#F7E015;}
	.st1{fill:#020203;}
	.st2{fill:#3677BC;}
	.st3{fill:#FFFFFF;}
	.st4{fill:#679E63;}
	.st5{fill:url(#SVGID_1_);}
	.st6{fill:url(#SVGID_00000013180592021133543780000000618282912647131283_);}
	.st7{fill:url(#SVGID_00000155148255925874152530000013080355320335406497_);}
	.st8{fill:#55C3EA;}
	.st9{fill:#C31532;}
	.st10{fill:#42B27F;}
	.st11{fill:#30495E;}
	.st12{fill:#161617;}
	.st13{fill:#2465AF;}
	.st14{fill-rule:evenodd;clip-rule:evenodd;}
	.st15{fill:#0A70B8;}
	.st16{fill:#2EA9DF;}
	.st17{fill:#CFCFCF;}
	.st18{fill:#E44E28;}
	.st19{fill:#EC662B;}
	.st20{fill:#8A93BE;}
	.st21{fill:#232532;}
</style>
<g>
	<g>
		<rect x="3.5" y="3.9" class="st2" width="42.9" height="42.9"/>
		<g>
			<path class="st3" d="M27.5,27.3h-5.6v16.1h-4.5V27.3h-5.6v-3.6h15.7V27.3z"/>
			<path class="st3" d="M29.3,42.7v-4.4c0.8,0.7,1.7,1.2,2.6,1.5c0.9,0.3,1.9,0.5,2.8,0.5c0.6,0,1.1-0.1,1.5-0.2
				c0.4-0.1,0.8-0.2,1-0.4c0.3-0.2,0.5-0.4,0.6-0.6c0.1-0.2,0.2-0.5,0.2-0.8c0-0.4-0.1-0.7-0.3-1c-0.2-0.3-0.5-0.6-0.9-0.8
				c-0.4-0.3-0.8-0.5-1.4-0.7c-0.5-0.2-1.1-0.5-1.7-0.7c-1.5-0.6-2.7-1.4-3.5-2.4c-0.8-0.9-1.1-2-1.1-3.4c0-1,0.2-1.9,0.6-2.7
				c0.4-0.7,1-1.3,1.7-1.8c0.7-0.5,1.5-0.8,2.5-1.1c0.9-0.2,1.9-0.3,3-0.3c1,0,1.9,0.1,2.7,0.2c0.8,0.1,1.5,0.3,2.2,0.6v4.1
				c-0.3-0.2-0.7-0.4-1.1-0.6c-0.4-0.2-0.8-0.3-1.2-0.4c-0.4-0.1-0.8-0.2-1.2-0.3c-0.4-0.1-0.8-0.1-1.2-0.1c-0.5,0-1,0-1.4,0.1
				c-0.4,0.1-0.8,0.2-1,0.4c-0.3,0.2-0.5,0.4-0.7,0.6c-0.2,0.2-0.2,0.5-0.2,0.8c0,0.3,0.1,0.6,0.3,0.9c0.2,0.3,0.4,0.5,0.7,0.7
				c0.3,0.2,0.7,0.5,1.2,0.7c0.5,0.2,1,0.5,1.6,0.7c0.8,0.3,1.5,0.7,2.1,1.1c0.6,0.4,1.2,0.8,1.6,1.3c0.5,0.5,0.8,1,1,1.6
				c0.2,0.6,0.4,1.3,0.4,2.1c0,1.1-0.2,2-0.6,2.8c-0.4,0.7-1,1.4-1.7,1.8c-0.7,0.5-1.6,0.8-2.5,1c-1,0.2-2,0.3-3,0.3
				c-1.1,0-2.1-0.1-3.1-0.3C30.9,43.4,30,43.1,29.3,42.7z"/>
		</g>
	</g>
</g>
</svg>
