<?xml version="1.0" encoding="utf-8"?>
<!-- Generator: Adobe Illustrator 26.5.0, SVG Export Plug-In . SVG Version: 6.00 Build 0)  -->
<svg version="1.1" id="Calque_1" xmlns="http://www.w3.org/2000/svg" xmlns:xlink="http://www.w3.org/1999/xlink" x="0px" y="0px"
	 viewBox="0 0 50 50" style="enable-background:new 0 0 50 50;" xml:space="preserve">
<style type="text/css">
	.st0{fill:#F7E015;}
	.st1{fill:#020203;}
	.st2{fill:#3677BC;}
	.st3{fill:#FFFFFF;}
	.st4{fill:#679E63;}
	.st5{fill:url(#SVGID_1_);}
	.st6{fill:url(#SVGID_00000101808334213038783990000007970833127970166716_);}
	.st7{fill:url(#SVGID_00000009567811809622278650000012288826882714331051_);}
	.st8{fill:#55C3EA;}
	.st9{fill:#C31532;}
	.st10{fill:#42B27F;}
	.st11{fill:#30495E;}
	.st12{fill:#161617;}
	.st13{fill:#2465AF;}
	.st14{fill-rule:evenodd;clip-rule:evenodd;}
	.st15{fill:#0A70B8;}
	.st16{fill:#2EA9DF;}
	.st17{fill:#CFCFCF;}
	.st18{fill:#E44E28;}
	.st19{fill:#EC662B;}
	.st20{fill:#8A93BE;}
	.st21{fill:#232532;}
</style>
<g>
	<g>
		<path class="st10" d="M49.1,4.7l-9.8,0l-14,26l-13.9-26l-9.8,0c-0.1,0-0.1,0.1-0.1,0.2c0,0,23.7,43.3,23.7,43.3c0,0,0,0,0,0
			c0,0,0,0,0,0c0,0,23.9-43.2,23.9-43.2C49.3,4.8,49.2,4.7,49.1,4.7z"/>
	</g>
	<polygon class="st11" points="31,4.7 25.4,14.9 19.9,4.6 11.5,4.6 25.4,30.7 39.4,4.7 	"/>
</g>
</svg>
