<?xml version="1.0" encoding="utf-8"?>
<!-- Generator: Adobe Illustrator 26.5.0, SVG Export Plug-In . SVG Version: 6.00 Build 0)  -->
<svg version="1.1" id="Calque_1" xmlns="http://www.w3.org/2000/svg" xmlns:xlink="http://www.w3.org/1999/xlink" x="0px" y="0px"
	 viewBox="0 0 50 50" style="enable-background:new 0 0 50 50;" xml:space="preserve">
<style type="text/css">
	.st0{fill:#F7E015;}
	.st1{fill:#020203;}
	.st2{fill:#3677BC;}
	.st3{fill:#FFFFFF;}
	.st4{fill:#679E63;}
	.st5{fill:url(#SVGID_1_);}
	.st6{fill:url(#SVGID_00000051361341202249176830000016004889457249397383_);}
	.st7{fill:url(#SVGID_00000178926764172555774170000013866144167400229789_);}
	.st8{fill:#55C3EA;}
	.st9{fill:#C31532;}
	.st10{fill:#42B27F;}
	.st11{fill:#30495E;}
	.st12{fill:#161617;}
	.st13{fill:#2465AF;}
	.st14{fill-rule:evenodd;clip-rule:evenodd;}
	.st15{fill:#0A70B8;}
	.st16{fill:#2EA9DF;}
	.st17{fill:#CFCFCF;}
	.st18{fill:#E44E28;}
	.st19{fill:#EC662B;}
	.st20{fill:#8A93BE;}
	.st21{fill:#232532;}
</style>
<g>
	<polygon class="st18" points="38.3,44.9 24.9,48.4 11.5,44.9 8.5,12.5 41.3,12.5 	"/>
	<polygon class="st18" points="24.9,15.1 24.9,45.6 13.6,42.6 11.1,15.1 	"/>
	<polygon class="st19" points="38.2,15.1 35.7,42.8 24.9,45.6 24.9,15.1 	"/>
	<polygon class="st17" points="24.9,23.1 19.1,23.1 19.4,27.2 24.9,27.2 24.9,31.2 15.6,31.2 14.5,19.1 24.9,19.1 	"/>
	<polygon class="st17" points="24.9,37.6 24.9,41.8 16.4,39.5 15.8,33.2 20,33.2 20.3,36.5 	"/>
	<polygon class="st3" points="34.4,27.2 33.4,39.5 24.9,41.8 24.9,41.8 24.9,37.6 24.9,37.6 29.5,36.4 30,31.2 24.9,31.2 24.9,27.2 
			"/>
	<polygon class="st3" points="35.3,19.1 34.9,23.1 24.9,23.1 24.9,19.1 	"/>
	<polygon class="st1" points="30.1,3.6 28.7,5.7 27.4,3.6 25.2,3.6 25.2,9.7 27.3,9.7 27.3,6.7 28.7,8.8 30.2,6.7 30.2,9.7 
		32.3,9.7 32.3,3.6 	"/>
	<polygon class="st1" points="15.5,3.6 15.5,5.6 13.6,5.6 13.6,3.6 11.5,3.6 11.5,9.7 13.6,9.7 13.6,7.6 15.5,7.6 15.5,9.7 
		17.6,9.7 17.6,3.6 	"/>
	<polygon class="st1" points="24.3,3.6 18.5,3.6 18.5,5.6 20.3,5.6 20.3,9.7 22.4,9.7 22.4,5.6 24.3,5.6 	"/>
	<polygon class="st1" points="38.4,7.6 35.4,7.6 35.4,3.6 33.3,3.6 33.3,9.7 35.4,9.7 38.4,9.7 	"/>
</g>
</svg>
