<?xml version="1.0" encoding="utf-8"?>
<!-- Generator: Adobe Illustrator 26.5.0, SVG Export Plug-In . SVG Version: 6.00 Build 0)  -->
<svg version="1.1" id="Calque_1" xmlns="http://www.w3.org/2000/svg" xmlns:xlink="http://www.w3.org/1999/xlink" x="0px" y="0px"
	 viewBox="0 0 50 50" style="enable-background:new 0 0 50 50;" xml:space="preserve">
<style type="text/css">
	.st0{fill:#F7E015;}
	.st1{fill:#020203;}
	.st2{fill:#3677BC;}
	.st3{fill:#FFFFFF;}
	.st4{fill:#679E63;}
	.st5{fill:url(#SVGID_1_);}
	.st6{fill:url(#SVGID_00000100341313491808540780000015329412344144831889_);}
	.st7{fill:url(#SVGID_00000161619311600417001790000017899376703271564982_);}
	.st8{fill:#55C3EA;}
	.st9{fill:#C31532;}
	.st10{fill:#42B27F;}
	.st11{fill:#30495E;}
	.st12{fill:#161617;}
	.st13{fill:#2465AF;}
	.st14{fill-rule:evenodd;clip-rule:evenodd;}
	.st15{fill:#0A70B8;}
	.st16{fill:#2EA9DF;}
	.st17{fill:#CFCFCF;}
	.st18{fill:#E44E28;}
	.st19{fill:#EC662B;}
	.st20{fill:#8A93BE;}
	.st21{fill:#232532;}
	.st22{clip-path:url(#SVGID_00000003080006266477965980000014281918481546792842_);fill:#211F20;}
	.st23{clip-path:url(#SVGID_00000003080006266477965980000014281918481546792842_);fill:#FFFFFF;}
	.st24{clip-path:url(#SVGID_00000143595254389984788660000003677194864922262461_);fill:#211F1F;}
	.st25{fill:#280D0D;}
	.st26{fill:#F4991C;}
	.st27{fill:#132035;}
	.st28{fill:#53A0D8;}
	.st29{fill:#400F21;}
	.st30{fill:#E94869;}
</style>
<g>
	<path class="st27" d="M38.2,45h-27c-4.2,0-7.6-3.4-7.6-7.6v-26c0-4.2,3.4-7.6,7.6-7.6h27c4.2,0,7.6,3.4,7.6,7.6v26
		C45.8,41.6,42.4,45,38.2,45z"/>
	<g>
		<path class="st28" d="M20.2,14.4h-6.9v18.3h3.9V27h3c1.7,0,3.3-0.7,4.4-1.8c1.1-1.1,1.8-2.7,1.8-4.4
			C26.5,17.2,23.7,14.4,20.2,14.4z M21.8,22.8c-0.5,0.5-1.3,0.9-2.1,0.9h-2.5v-5.9h2.5c1.6,0,3,1.3,3,3
			C22.7,21.5,22.3,22.3,21.8,22.8z"/>
	</g>
	<path class="st28" d="M38.5,28.6c0,1.2-0.6,2.4-1.5,3.2c-1,0.9-2.4,1.3-3.7,1.4c-0.2,0-0.3,0-0.5,0c-1.5,0-3-0.3-4.4-0.9
		c0,0,0,0,0,0c0-1.1,0-2.2,0-3.2c0,0.1,1.1,0.3,1.2,0.4c1.2,0.4,2.7,0.7,4,0.5c0.3,0,0.5-0.1,0.8-0.3c0.8-0.7,0-1.5-0.7-1.8
		c-0.7-0.3-1.5-0.6-2.2-0.9c-0.7-0.3-1.3-0.7-1.9-1.2c-1.8-1.7-1.7-4.5,0.1-6.1c1-0.9,2.4-1.2,3.8-1.3c1.4-0.1,2.8,0.2,4.1,0.7
		c0,0,0.1,0,0.1,0.1c0,0,0,0.1,0,0.1c0,1.1,0,2.2,0,3.3c-0.2-0.2-0.5-0.3-0.7-0.4c-0.3-0.1-0.5-0.2-0.8-0.3c-1-0.3-2.3-0.6-3.3-0.3
		c-0.4,0.1-0.7,0.4-0.7,0.8c0,0.6,0.6,0.9,1.1,1.2c0.6,0.3,1.3,0.5,1.9,0.8C37,25.3,38.5,26.6,38.5,28.6z"/>
</g>
</svg>
